<?xml version='1.0' encoding='utf-8'?>
<svg width="50.09mm" height="45.245424mm" viewBox="-27.841655 -35.905417 55.683311 50.297764" version="1.1" xmlns="http://www.w3.org/2000/svg">
  <g transform="scale(1,-1)" stroke-linecap="round">
    <g fill="none" stroke="rgb(31,35,40)" stroke-width="0.10004987001723342" id="visible">
      <line x1="-26.693281" y1="2.347428" x2="-26.693281" y2="18.025364" />
      <path d="M -27.791631,3.878359 A 3.75,2.165063509461097 -7.78718065295739e-16 0,1 -26.693281,2.347428" />
      <path d="M -26.693281,18.025364 C -27.391262,18.425083 -27.795612,18.988702 -27.79163,19.556295" />
      <line x1="-2.65165" y1="-11.533014" x2="-2.65165" y2="4.144922" />
      <line x1="-26.693281" y1="2.347428" x2="-2.65165" y2="-11.533014" />
      <line x1="-2.65165" y1="4.144922" x2="-26.693281" y2="18.025364" />
      <line x1="-26.693281" y1="2.347428" x2="-25.173001" y2="1.469694" />
      <path d="M 26.693281,2.347428 A 3.75,2.165063509461097 -7.78718065295739e-16 0,1 27.791631,3.878359" />
      <line x1="26.693281" y1="18.025364" x2="26.693281" y2="2.347428" />
      <path d="M 27.79163,19.556295 C 27.795612,18.988702 27.391262,18.425083 26.693281,18.025364" />
      <line x1="-25.349778" y1="19.942929" x2="-1.308148" y2="33.823371" />
      <line x1="2.65165" y1="-11.533014" x2="2.65165" y2="4.144922" />
      <path d="M -2.65165,-11.533014 A 3.75,2.165063509461097 -7.78718065295739e-16 0,1 2.65165,-11.533014" />
      <path d="M 2.65165,4.144922 C 1.959317,3.741942 0.983099,3.508491 -0.0,3.51079 C -0.983099,3.508491 -1.959317,3.741942 -2.65165,4.144922" />
      <line x1="-2.65165" y1="-11.533014" x2="-1.131371" y2="-12.410748" />
      <line x1="-25.173001" y1="1.469694" x2="-1.131371" y2="-12.410748" />
      <path d="M -25.641631,0.653197 A 1.6000000000000005,0.9237604307034016 -7.78718065295739e-16 0,1 -25.173001,-0.0" />
      <path d="M 1.308148,33.823371 A 1.8500000000000003,1.068097998000808 -7.78718065295739e-16 0,1 -1.308148,33.823371" />
      <line x1="2.65165" y1="-11.533014" x2="26.693281" y2="2.347428" />
      <line x1="26.693281" y1="18.025364" x2="2.65165" y2="4.144922" />
      <line x1="-1.927386" y1="4.909486" x2="-25.969017" y2="18.789928" />
      <path d="M -25.349778,19.942929 A 1.8500000000000003,1.068097998000808 -7.78718065295739e-16 0,1 -25.891631,19.18767" />
      <path d="M -25.891631,19.18767 A 1.8500000000000003,1.068097998000808 -7.78718065295739e-16 0,1 -25.349778,18.43241" />
      <line x1="-25.349778" y1="18.473235" x2="-1.308148" y2="32.353677" />
      <line x1="2.65165" y1="-11.533014" x2="1.131371" y2="-12.410748" />
      <path d="M -1.131371,-12.410748 A 1.6000000000000005,0.9237604307034016 -7.78718065295739e-16 0,1 1.131371,-12.410748" />
      <line x1="-25.173001" y1="-0.0" x2="-1.131371" y2="-13.880442" />
      <path d="M -0.565685,-14.207041 A 0.8000000000000015,0.46188021535170154 -7.78718065295739e-16 0,1 0.565685,-14.207041" />
      <line x1="1.308148" y1="33.823371" x2="25.349778" y2="19.942929" />
      <path d="M 1.308148,32.353677 A 1.8500000000000003,1.068097998000808 -7.78718065295739e-16 0,1 -1.308148,32.353677" />
      <path d="M -25.349778,18.473235 A 1.8500000000000003,1.068097998000808 -7.78718065295739e-16 0,1 -25.384203,18.452823" />
      <line x1="-24.395184" y1="17.881275" x2="-0.813173" y2="31.496356" />
      <line x1="1.131371" y1="-12.410748" x2="2.65165" y2="-11.533014" />
      <path d="M -1.131371,-13.880442 A 1.6000000000000005,0.9237604307034016 -7.78718065295739e-16 0,1 1.131371,-13.880442" />
      <line x1="-1.131371" y1="-13.880442" x2="-0.565685" y2="-14.207041" />
      <path d="M 25.173001,-0.0 A 1.6000000000000005,0.9237604307034016 -7.78718065295739e-16 0,1 25.641631,0.653197" />
      <line x1="1.131371" y1="-13.880442" x2="0.565685" y2="-14.207041" />
      <line x1="1.131371" y1="-13.880442" x2="25.173001" y2="-0.0" />
      <line x1="25.969017" y1="18.789928" x2="1.927386" y2="4.909486" />
      <path d="M 25.349778,18.43241 A 1.8500000000000003,1.068097998000808 -7.78718065295739e-16 0,1 25.891631,19.18767" />
      <path d="M 25.891631,19.18767 A 1.8500000000000003,1.068097998000808 -7.78718065295739e-16 0,1 25.349778,19.942929" />
      <line x1="1.308148" y1="32.353677" x2="25.349778" y2="18.473235" />
      <path d="M 0.813173,31.496356 A 1.15,0.6639528095680697 -7.78718065295739e-16 0,1 -0.813173,31.496356" />
      <line x1="-23.546656" y1="17.391377" x2="-0.813173" y2="30.51656" />
      <path d="M 25.384203,18.452823 A 1.8500000000000003,1.068097998000808 -7.78718065295739e-16 0,1 25.349778,18.473235" />
      <line x1="0.813173" y1="31.496356" x2="24.395184" y2="17.881275" />
      <path d="M 0.813173,30.51656 A 1.15,0.6639528095680697 -7.78718065295739e-16 0,1 -0.813173,30.51656" />
      <line x1="0.813173" y1="30.51656" x2="23.546656" y2="17.391377" />
      <path d="M 1.944544,29.863362 A 2.75,1.587713240271471 7.78718065295739e-16 0,1 -1.944544,29.863362" />
      <path d="M -26.569017,21.361892 A 0.6,0.3464101615137755 -60.00000000000001 0,0 -25.969017,21.015482" />
      <line x1="-25.969017" y1="21.015482" x2="-1.927386" y2="34.895924" />
      <path d="M -2.527386,35.242334 A 0.6,0.3464101615137755 -60.00000000000001 0,0 -1.927386,34.895924" />
      <path d="M -1.927386,34.895924 C -1.424155,35.188835 -0.714578,35.358522 -0.0,35.356851 C 0.714578,35.358522 1.424155,35.188835 1.927386,34.895924" />
      <path d="M 2.527386,35.242334 C 2.449055,35.288294 2.338613,35.277354 2.227386,35.212617 C 2.11616,35.148921 2.005714,35.032328 1.927386,34.895924" />
      <path d="M -26.693281,18.025364 A 0.6,0.3464101615137755 60.00000000000001 0,0 -25.969017,18.789928" />
      <path d="M -25.969017,18.789928 C -26.476354,19.080469 -26.77026,19.490143 -26.767366,19.902705 C -26.77026,20.315267 -26.476354,20.724941 -25.969017,21.015482" />
      <line x1="-25.969017" y1="21.015482" x2="-25.349778" y2="19.942929" />
      <line x1="-1.927386" y1="34.895924" x2="-1.308148" y2="33.823371" />
      <line x1="-25.173001" y1="1.469694" x2="-25.173001" y2="-0.0" />
      <line x1="1.927386" y1="34.895924" x2="25.969017" y2="21.015482" />
      <path d="M 26.569017,21.361892 A 0.6,0.3464101615137755 -119.99999999999999 0,1 25.969017,21.015482" />
      <line x1="1.927386" y1="34.895924" x2="1.308148" y2="33.823371" />
      <path d="M -2.65165,4.144922 C -2.653746,4.337403 -2.545523,4.586914 -2.389745,4.74874 C -2.235572,4.914111 -2.044516,4.980533 -1.927386,4.909486" />
      <line x1="-25.349778" y1="19.942929" x2="-25.349778" y2="18.473235" />
      <line x1="-1.308148" y1="33.823371" x2="-1.308148" y2="32.353677" />
      <line x1="-1.131371" y1="-12.410748" x2="-1.131371" y2="-13.880442" />
      <path d="M 25.969017,21.015482 C 26.476354,20.724941 26.77026,20.315267 26.767366,19.902705 C 26.77026,19.490143 26.476354,19.080469 25.969017,18.789928" />
      <path d="M 26.693281,18.025364 C 26.695377,18.217845 26.587153,18.467356 26.431376,18.629182 C 26.277203,18.794553 26.086146,18.860975 25.969017,18.789928" />
      <line x1="25.969017" y1="21.015482" x2="25.349778" y2="19.942929" />
      <line x1="1.308148" y1="33.823371" x2="1.308148" y2="32.353677" />
      <path d="M 2.65165,4.144922 A 0.6,0.3464101615137755 119.99999999999999 0,1 1.927386,4.909486" />
      <line x1="-25.349778" y1="18.473235" x2="-25.314423" y2="18.411998" />
      <line x1="-1.308148" y1="32.353677" x2="-0.813173" y2="31.496356" />
      <line x1="1.131371" y1="-12.410748" x2="1.131371" y2="-13.880442" />
      <line x1="25.173001" y1="1.469694" x2="25.173001" y2="-0.0" />
      <line x1="25.349778" y1="19.942929" x2="25.349778" y2="18.473235" />
      <line x1="1.308148" y1="32.353677" x2="0.813173" y2="31.496356" />
      <line x1="-0.813173" y1="31.496356" x2="-0.813173" y2="30.51656" />
      <line x1="25.349778" y1="18.473235" x2="25.314423" y2="18.411998" />
      <line x1="0.813173" y1="31.496356" x2="0.813173" y2="30.51656" />
      <line x1="-1.944544" y1="29.863362" x2="-1.944544" y2="21.535097" />
      <line x1="-16.334167" y1="13.227245" x2="-1.944544" y2="21.535097" />
      <path d="M -1.944544,21.535097 A 2.75,1.587713240271471 180.0 0,0 1.944544,21.535097" />
      <line x1="1.944544" y1="29.863362" x2="1.944544" y2="21.535097" />
      <line x1="-14.919953" y1="12.410748" x2="-1.237437" y2="20.310352" />
      <path d="M -1.944544,21.535097 A 1.0,0.5773502691896258 119.99999999999999 0,1 -1.237437,20.310352" />
      <line x1="1.944544" y1="21.535097" x2="16.334167" y2="13.227245" />
      <path d="M -1.237437,20.310352 A 1.75,1.0103629710818451 180.0 0,0 1.237437,20.310352" />
      <path d="M 1.944544,21.535097 A 1.0,0.5773502691896258 60.00000000000001 0,0 1.237437,20.310352" />
      <line x1="1.237437" y1="20.310352" x2="14.919953" y2="12.410748" />
      <line x1="-27.791631" y1="19.556295" x2="-27.791631" y2="3.878359" />
      <line x1="-26.569017" y1="21.361892" x2="-2.527386" y2="35.242334" />
      <path d="M -2.527386,35.242334 C -1.847784,35.637145 -0.926797,35.857077 0.000717,35.855392 C 0.927746,35.856853 1.848116,35.636946 2.527386,35.242334" />
      <line x1="27.791631" y1="19.556295" x2="27.791631" y2="3.878359" />
      <path d="M -27.79163,19.556295 C -27.7925,20.005512 -27.605451,20.453661 -27.250825,20.831042 C -27.0638,21.030386 -26.836531,21.207336 -26.569017,21.361892" />
      <line x1="-25.641631" y1="0.653197" x2="-25.641631" y2="1.740257" />
      <line x1="2.527386" y1="35.242334" x2="26.569017" y2="21.361892" />
      <path d="M 26.569017,21.361892 C 26.836859,21.207146 27.064354,21.029955 27.2515,20.830318 C 27.605682,20.453106 27.792495,20.005246 27.79163,19.556295" />
      <path d="M 1.927386,4.909486 C 1.473881,4.641223 0.739988,4.452694 -0.000575,4.457204 C -0.740752,4.452877 -1.474114,4.641368 -1.927386,4.909486" />
      <line x1="25.641631" y1="0.653197" x2="25.641631" y2="1.740257" />
    </g>
  </g>
</svg>