<?xml version='1.0' encoding='utf-8'?>
<svg width="400.089999mm" height="242.999422mm" viewBox="-51.344811 -32.720942 102.689622 62.369764" version="1.1" xmlns="http://www.w3.org/2000/svg">
  <g transform="scale(1,-1)" stroke-linecap="round">
    <g fill="none" stroke="rgb(240,246,252)" stroke-width="0.023099967504308355" id="visible">
      <path d="M 19.362804,-18.935838 A 3.25,1.876388374866284 0.0 0,1 20.682873,-18.473235" />
      <line x1="19.362804" y1="-18.935838" x2="19.362804" y2="-16.976246" />
      <path d="M 19.362804,-16.976246 A 3.25,1.876388374866284 0.0 0,1 20.682873,-16.513643" />
      <path d="M 20.682873,-16.513643 A 3.25,1.876388374866284 0.0 0,1 21.484125,-15.751501" />
      <line x1="21.484125" y1="-17.711093" x2="21.484125" y2="-15.751501" />
      <path d="M 20.682873,-18.473235 A 3.25,1.876388374866284 0.0 0,1 21.484125,-17.711093" />
      <path d="M 15.134776,-17.146428 A 3.25,1.876388374866284 0.0 0,1 19.362804,-18.935838" />
      <path d="M 15.285428,-14.622172 A 3.25,1.876388374866284 0.0 0,1 15.134776,-15.186836" />
      <path d="M 15.134776,-15.186836 A 3.25,1.876388374866284 0.0 0,1 19.362804,-16.976246" />
      <line x1="21.484125" y1="-15.751501" x2="21.484125" y2="-15.588202" />
      <path d="M 19.362804,-16.812947 A 3.25,1.876388374866284 0.0 0,1 21.484125,-15.588202" />
      <line x1="19.362804" y1="-16.976246" x2="19.362804" y2="-16.812947" />
      <path d="M 21.484125,-15.751501 A 3.25,1.876388374866284 0.0 0,1 21.634776,-15.186836" />
      <path d="M 21.634776,-15.186836 A 3.25,1.876388374866284 0.0 0,1 19.884776,-13.522254" />
      <path d="M 21.484125,-17.711093 A 3.25,1.876388374866284 0.0 0,1 21.634776,-17.146428" />
      <line x1="17.324116" y1="-15.799209" x2="15.285428" y2="-14.622172" />
      <line x1="19.362804" y1="-16.976246" x2="17.324116" y2="-15.799209" />
      <line x1="19.884776" y1="-14.664818" x2="21.484125" y2="-15.588202" />
      <line x1="17.324116" y1="-15.63591" x2="19.362804" y2="-16.812947" />
      <path d="M 17.324116,-15.63591 A 1.5,0.8660254037844388 0.0 0,1 19.445436,-15.63591" />
      <path d="M 19.445436,-15.63591 A 1.5,0.8660254037844388 0.0 0,1 19.884776,-15.023537" />
      <line x1="17.324116" y1="-15.799209" x2="17.324116" y2="-15.63591" />
      <line x1="15.285428" y1="-14.622172" x2="15.285428" y2="-14.458872" />
      <path d="M 16.884776,-13.358955 A 3.25,1.876388374866284 1.9476840171514755e-15 0,1 15.285428,-14.458872" />
      <line x1="15.285428" y1="-14.458872" x2="17.324116" y2="-15.63591" />
      <path d="M 16.884776,-15.023537 A 1.5,0.8660254037844388 0.0 0,1 17.324116,-15.63591" />
      <path d="M 19.445436,-13.676318 A 1.5,0.8660254037844388 0.0 0,1 19.884776,-13.063945" />
      <path d="M 19.884776,-13.063945 A 1.5,0.8660254037844388 0.0 0,1 16.884776,-13.063945" />
      <path d="M 16.884776,-13.063945 A 1.5,0.8660254037844388 0.0 0,1 19.445436,-13.676318" />
      <path d="M -17.406748,15.357019 A 3.25,1.876388374866284 0.0 0,1 -16.086679,15.819621" />
      <line x1="-17.406748" y1="15.357019" x2="-17.406748" y2="17.31661" />
      <path d="M -17.406748,17.31661 A 3.25,1.876388374866284 0.0 0,1 -16.086679,17.779213" />
      <path d="M -16.086679,17.779213 A 3.25,1.876388374866284 0.0 0,1 -15.285428,18.541355" />
      <line x1="-15.285428" y1="16.581763" x2="-15.285428" y2="18.541355" />
      <path d="M -16.086679,15.819621 A 3.25,1.876388374866284 0.0 0,1 -15.285428,16.581763" />
      <path d="M -21.634776,17.146428 A 3.25,1.876388374866284 0.0 0,1 -17.406748,15.357019" />
      <path d="M -21.484125,19.670685 A 3.25,1.876388374866284 0.0 0,1 -21.634776,19.10602" />
      <path d="M -21.634776,19.10602 A 3.25,1.876388374866284 0.0 0,1 -17.406748,17.31661" />
      <line x1="-15.285428" y1="18.541355" x2="-15.285428" y2="18.704655" />
      <path d="M -17.406748,17.47991 A 3.25,1.876388374866284 0.0 0,1 -15.285428,18.704655" />
      <line x1="-17.406748" y1="17.31661" x2="-17.406748" y2="17.47991" />
      <path d="M -15.285428,18.541355 A 3.25,1.876388374866284 0.0 0,1 -15.134776,19.10602" />
      <path d="M -15.134776,19.10602 A 3.25,1.876388374866284 0.0 0,1 -16.884776,20.770602" />
      <path d="M -15.285428,16.581763 A 3.25,1.876388374866284 0.0 0,1 -15.134776,17.146428" />
      <line x1="-19.445436" y1="18.493648" x2="-21.484125" y2="19.670685" />
      <line x1="-17.406748" y1="17.31661" x2="-19.445436" y2="18.493648" />
      <line x1="-16.884776" y1="19.628039" x2="-15.285428" y2="18.704655" />
      <line x1="-19.445436" y1="18.656947" x2="-17.406748" y2="17.47991" />
      <path d="M -19.445436,18.656947 A 1.5,0.8660254037844388 0.0 0,1 -17.324116,18.656947" />
      <path d="M -17.324116,18.656947 A 1.5,0.8660254037844388 0.0 0,1 -16.884776,19.269319" />
      <line x1="-19.445436" y1="18.493648" x2="-19.445436" y2="18.656947" />
      <line x1="-21.484125" y1="19.670685" x2="-21.484125" y2="19.833984" />
      <path d="M -19.884776,20.933901 A 3.25,1.876388374866284 1.9476840171514755e-15 0,1 -21.484125,19.833984" />
      <line x1="-21.484125" y1="19.833984" x2="-19.445436" y2="18.656947" />
      <path d="M -19.884776,19.269319 A 1.5,0.8660254037844388 0.0 0,1 -19.445436,18.656947" />
      <path d="M -17.324116,20.616539 A 1.5,0.8660254037844388 0.0 0,1 -16.884776,21.228911" />
      <path d="M -16.884776,21.228911 A 1.5,0.8660254037844388 0.0 0,1 -19.884776,21.228911" />
      <path d="M -19.884776,21.228911 A 1.5,0.8660254037844388 0.0 0,1 -17.324116,20.616539" />
      <path d="M 0.978028,25.971474 A 3.25,1.876388374866284 0.0 0,1 2.298097,26.434077" />
      <line x1="0.978028" y1="25.971474" x2="0.978028" y2="27.931066" />
      <path d="M 0.978028,27.931066 A 3.25,1.876388374866284 0.0 0,1 2.298097,28.393669" />
      <path d="M 2.298097,28.393669 A 3.25,1.876388374866284 0.0 0,1 3.099348,29.155811" />
      <line x1="3.099348" y1="27.196219" x2="3.099348" y2="29.155811" />
      <path d="M 2.298097,26.434077 A 3.25,1.876388374866284 0.0 0,1 3.099348,27.196219" />
      <path d="M -3.25,27.760884 A 3.25,1.876388374866284 0.0 0,1 0.978028,25.971474" />
      <path d="M -3.099348,30.28514 A 3.25,1.876388374866284 0.0 0,1 -3.25,29.720476" />
      <path d="M -3.25,29.720476 A 3.25,1.876388374866284 0.0 0,1 0.978028,27.931066" />
      <line x1="3.099348" y1="29.155811" x2="3.099348" y2="29.31911" />
      <path d="M 0.978028,28.094365 A 3.25,1.876388374866284 0.0 0,1 3.099348,29.31911" />
      <line x1="0.978028" y1="27.931066" x2="0.978028" y2="28.094365" />
      <path d="M 3.099348,29.155811 A 3.25,1.876388374866284 0.0 0,1 3.25,29.720476" />
      <path d="M 3.25,29.720476 A 3.25,1.876388374866284 0.0 0,1 1.5,31.385058" />
      <path d="M 3.099348,27.196219 A 3.25,1.876388374866284 0.0 0,1 3.25,27.760884" />
      <line x1="-1.06066" y1="29.108103" x2="-3.099348" y2="30.28514" />
      <line x1="0.978028" y1="27.931066" x2="-1.06066" y2="29.108103" />
      <line x1="1.5" y1="30.242494" x2="3.099348" y2="29.31911" />
      <line x1="-1.06066" y1="29.271402" x2="0.978028" y2="28.094365" />
      <path d="M -1.06066,29.271402 A 1.5,0.8660254037844388 0.0 0,1 1.06066,29.271402" />
      <path d="M 1.06066,29.271402 A 1.5,0.8660254037844388 0.0 0,1 1.5,29.883775" />
      <line x1="-1.06066" y1="29.108103" x2="-1.06066" y2="29.271402" />
      <line x1="-3.099348" y1="30.28514" x2="-3.099348" y2="30.44844" />
      <path d="M -1.5,31.548357 A 3.25,1.876388374866284 1.9476840171514755e-15 0,1 -3.099348,30.44844" />
      <line x1="-3.099348" y1="30.44844" x2="-1.06066" y2="29.271402" />
      <path d="M -1.5,29.883775 A 1.5,0.8660254037844388 0.0 0,1 -1.06066,29.271402" />
      <path d="M 1.06066,31.230994 A 1.5,0.8660254037844388 0.0 0,1 1.5,31.843367" />
      <path d="M 1.5,31.843367 A 1.5,0.8660254037844388 0.0 0,1 -1.5,31.843367" />
      <path d="M -1.5,31.843367 A 1.5,0.8660254037844388 0.0 0,1 1.06066,31.230994" />
      <path d="M 0.978028,4.742563 A 3.25,1.876388374866284 0.0 0,1 2.298097,5.205166" />
      <line x1="0.978028" y1="4.742563" x2="0.978028" y2="6.702155" />
      <path d="M 0.978028,6.702155 A 3.25,1.876388374866284 0.0 0,1 2.298097,7.164757" />
      <path d="M 2.298097,7.164757 A 3.25,1.876388374866284 0.0 0,1 3.099348,7.9269" />
      <line x1="3.099348" y1="5.967308" x2="3.099348" y2="7.9269" />
      <path d="M 2.298097,5.205166 A 3.25,1.876388374866284 0.0 0,1 3.099348,5.967308" />
      <path d="M -3.25,6.531973 A 3.25,1.876388374866284 0.0 0,1 0.978028,4.742563" />
      <path d="M -3.099348,9.056229 A 3.25,1.876388374866284 0.0 0,1 -3.25,8.491564" />
      <path d="M -3.25,8.491564 A 3.25,1.876388374866284 0.0 0,1 0.978028,6.702155" />
      <line x1="3.099348" y1="7.9269" x2="3.099348" y2="8.090199" />
      <path d="M 0.978028,6.865454 A 3.25,1.876388374866284 0.0 0,1 3.099348,8.090199" />
      <line x1="0.978028" y1="6.702155" x2="0.978028" y2="6.865454" />
      <path d="M 3.099348,7.9269 A 3.25,1.876388374866284 0.0 0,1 3.25,8.491564" />
      <path d="M 3.25,8.491564 A 3.25,1.876388374866284 0.0 0,1 1.5,10.156146" />
      <path d="M 3.099348,5.967308 A 3.25,1.876388374866284 0.0 0,1 3.25,6.531973" />
      <line x1="-1.06066" y1="7.879192" x2="-3.099348" y2="9.056229" />
      <line x1="0.978028" y1="6.702155" x2="-1.06066" y2="7.879192" />
      <line x1="1.5" y1="9.013583" x2="3.099348" y2="8.090199" />
      <line x1="-1.06066" y1="8.042491" x2="0.978028" y2="6.865454" />
      <path d="M -1.06066,8.042491 A 1.5,0.8660254037844388 0.0 0,1 1.06066,8.042491" />
      <path d="M 1.06066,8.042491 A 1.5,0.8660254037844388 0.0 0,1 1.5,8.654864" />
      <line x1="-1.06066" y1="7.879192" x2="-1.06066" y2="8.042491" />
      <line x1="-3.099348" y1="9.056229" x2="-3.099348" y2="9.219529" />
      <path d="M -1.5,10.319446 A 3.25,1.876388374866284 1.9476840171514755e-15 0,1 -3.099348,9.219529" />
      <line x1="-3.099348" y1="9.219529" x2="-1.06066" y2="8.042491" />
      <path d="M -1.5,8.654864 A 1.5,0.8660254037844388 0.0 0,1 -1.06066,8.042491" />
      <path d="M 1.06066,10.002083 A 1.5,0.8660254037844388 0.0 0,1 1.5,10.614456" />
      <path d="M 1.5,10.614456 A 1.5,0.8660254037844388 0.0 0,1 -1.5,10.614456" />
      <path d="M -1.5,10.614456 A 1.5,0.8660254037844388 0.0 0,1 1.06066,10.002083" />
      <path d="M 19.362804,15.357019 A 3.25,1.876388374866284 0.0 0,1 20.682873,15.819621" />
      <line x1="19.362804" y1="15.357019" x2="19.362804" y2="17.31661" />
      <path d="M 19.362804,17.31661 A 3.25,1.876388374866284 0.0 0,1 20.682873,17.779213" />
      <path d="M 20.682873,17.779213 A 3.25,1.876388374866284 0.0 0,1 21.484125,18.541355" />
      <line x1="21.484125" y1="16.581763" x2="21.484125" y2="18.541355" />
      <path d="M 20.682873,15.819621 A 3.25,1.876388374866284 0.0 0,1 21.484125,16.581763" />
      <path d="M 15.134776,17.146428 A 3.25,1.876388374866284 0.0 0,1 19.362804,15.357019" />
      <path d="M 15.285428,19.670685 A 3.25,1.876388374866284 0.0 0,1 15.134776,19.10602" />
      <path d="M 15.134776,19.10602 A 3.25,1.876388374866284 0.0 0,1 19.362804,17.31661" />
      <line x1="21.484125" y1="18.541355" x2="21.484125" y2="18.704655" />
      <path d="M 19.362804,17.47991 A 3.25,1.876388374866284 0.0 0,1 21.484125,18.704655" />
      <line x1="19.362804" y1="17.31661" x2="19.362804" y2="17.47991" />
      <path d="M 21.484125,18.541355 A 3.25,1.876388374866284 0.0 0,1 21.634776,19.10602" />
      <path d="M 21.634776,19.10602 A 3.25,1.876388374866284 0.0 0,1 19.884776,20.770602" />
      <path d="M 21.484125,16.581763 A 3.25,1.876388374866284 0.0 0,1 21.634776,17.146428" />
      <line x1="17.324116" y1="18.493648" x2="15.285428" y2="19.670685" />
      <line x1="19.362804" y1="17.31661" x2="17.324116" y2="18.493648" />
      <line x1="19.884776" y1="19.628039" x2="21.484125" y2="18.704655" />
      <line x1="17.324116" y1="18.656947" x2="19.362804" y2="17.47991" />
      <path d="M 17.324116,18.656947 A 1.5,0.8660254037844388 0.0 0,1 19.445436,18.656947" />
      <path d="M 19.445436,18.656947 A 1.5,0.8660254037844388 0.0 0,1 19.884776,19.269319" />
      <line x1="17.324116" y1="18.493648" x2="17.324116" y2="18.656947" />
      <line x1="15.285428" y1="19.670685" x2="15.285428" y2="19.833984" />
      <path d="M 16.884776,20.933901 A 3.25,1.876388374866284 1.9476840171514755e-15 0,1 15.285428,19.833984" />
      <line x1="15.285428" y1="19.833984" x2="17.324116" y2="18.656947" />
      <path d="M 16.884776,19.269319 A 1.5,0.8660254037844388 0.0 0,1 17.324116,18.656947" />
      <path d="M 19.445436,20.616539 A 1.5,0.8660254037844388 0.0 0,1 19.884776,21.228911" />
      <path d="M 19.884776,21.228911 A 1.5,0.8660254037844388 0.0 0,1 16.884776,21.228911" />
      <path d="M 16.884776,21.228911 A 1.5,0.8660254037844388 0.0 0,1 19.445436,20.616539" />
      <path d="M 12.291737,-1.78941 A 3.25,1.876388374866284 0.0 0,1 13.611806,-1.326807" />
      <line x1="12.291737" y1="-1.78941" x2="12.291737" y2="0.170182" />
      <path d="M 12.291737,0.170182 A 3.25,1.876388374866284 0.0 0,1 13.611806,0.632785" />
      <path d="M 13.611806,0.632785 A 3.25,1.876388374866284 0.0 0,1 14.413057,1.394927" />
      <line x1="14.413057" y1="-0.564665" x2="14.413057" y2="1.394927" />
      <path d="M 13.611806,-1.326807 A 3.25,1.876388374866284 0.0 0,1 14.413057,-0.564665" />
      <path d="M 8.063708,0.0 A 3.25,1.876388374866284 0.0 0,1 12.291737,-1.78941" />
      <path d="M 8.21436,2.524257 A 3.25,1.876388374866284 0.0 0,1 8.063708,1.959592" />
      <path d="M 8.063708,1.959592 A 3.25,1.876388374866284 0.0 0,1 12.291737,0.170182" />
      <line x1="14.413057" y1="1.394927" x2="14.413057" y2="1.558226" />
      <path d="M 12.291737,0.333481 A 3.25,1.876388374866284 0.0 0,1 14.413057,1.558226" />
      <line x1="12.291737" y1="0.170182" x2="12.291737" y2="0.333481" />
      <path d="M 14.413057,1.394927 A 3.25,1.876388374866284 0.0 0,1 14.563708,1.959592" />
      <path d="M 14.563708,1.959592 A 3.25,1.876388374866284 0.0 0,1 12.813708,3.624174" />
      <path d="M 14.413057,-0.564665 A 3.25,1.876388374866284 0.0 0,1 14.563708,-0.0" />
      <line x1="10.253048" y1="1.347219" x2="8.21436" y2="2.524257" />
      <line x1="12.291737" y1="0.170182" x2="10.253048" y2="1.347219" />
      <line x1="12.813708" y1="2.481611" x2="14.413057" y2="1.558226" />
      <line x1="10.253048" y1="1.510519" x2="12.291737" y2="0.333481" />
      <path d="M 10.253048,1.510519 A 1.5,0.8660254037844388 0.0 0,1 12.374369,1.510519" />
      <path d="M 12.374369,1.510519 A 1.5,0.8660254037844388 0.0 0,1 12.813708,2.122891" />
      <line x1="10.253048" y1="1.347219" x2="10.253048" y2="1.510519" />
      <line x1="8.21436" y1="2.524257" x2="8.21436" y2="2.687556" />
      <path d="M 9.813708,3.787473 A 3.25,1.876388374866284 1.9476840171514755e-15 0,1 8.21436,2.687556" />
      <line x1="8.21436" y1="2.687556" x2="10.253048" y2="1.510519" />
      <path d="M 9.813708,2.122891 A 1.5,0.8660254037844388 0.0 0,1 10.253048,1.510519" />
      <path d="M 12.374369,3.47011 A 1.5,0.8660254037844388 0.0 0,1 12.813708,4.082483" />
      <path d="M 12.813708,4.082483 A 1.5,0.8660254037844388 0.0 0,1 9.813708,4.082483" />
      <path d="M 9.813708,4.082483 A 1.5,0.8660254037844388 0.0 0,1 12.374369,3.47011" />
      <path d="M 30.676513,8.825046 A 3.25,1.876388374866284 0.0 0,1 31.996582,9.287649" />
      <line x1="30.676513" y1="8.825046" x2="30.676513" y2="10.784638" />
      <path d="M 30.676513,10.784638 A 3.25,1.876388374866284 0.0 0,1 31.996582,11.24724" />
      <path d="M 31.996582,11.24724 A 3.25,1.876388374866284 0.0 0,1 32.797833,12.009383" />
      <line x1="32.797833" y1="10.049791" x2="32.797833" y2="12.009383" />
      <path d="M 31.996582,9.287649 A 3.25,1.876388374866284 0.0 0,1 32.797833,10.049791" />
      <path d="M 26.448485,10.614456 A 3.25,1.876388374866284 0.0 0,1 30.676513,8.825046" />
      <path d="M 26.599136,13.138712 A 3.25,1.876388374866284 0.0 0,1 26.448485,12.574047" />
      <path d="M 26.448485,12.574047 A 3.25,1.876388374866284 0.0 0,1 30.676513,10.784638" />
      <line x1="32.797833" y1="12.009383" x2="32.797833" y2="12.172682" />
      <path d="M 30.676513,10.947937 A 3.25,1.876388374866284 0.0 0,1 32.797833,12.172682" />
      <line x1="30.676513" y1="10.784638" x2="30.676513" y2="10.947937" />
      <path d="M 32.797833,12.009383 A 3.25,1.876388374866284 0.0 0,1 32.948485,12.574047" />
      <path d="M 32.948485,12.574047 A 3.25,1.876388374866284 0.0 0,1 31.198485,14.238629" />
      <path d="M 32.797833,10.049791 A 3.25,1.876388374866284 0.0 0,1 32.948485,10.614456" />
      <line x1="28.637825" y1="11.961675" x2="26.599136" y2="13.138712" />
      <line x1="30.676513" y1="10.784638" x2="28.637825" y2="11.961675" />
      <line x1="31.198485" y1="13.096066" x2="32.797833" y2="12.172682" />
      <line x1="28.637825" y1="12.124974" x2="30.676513" y2="10.947937" />
      <path d="M 28.637825,12.124974 A 1.5,0.8660254037844388 0.0 0,1 30.759145,12.124974" />
      <path d="M 30.759145,12.124974 A 1.5,0.8660254037844388 0.0 0,1 31.198485,12.737347" />
      <line x1="28.637825" y1="11.961675" x2="28.637825" y2="12.124974" />
      <line x1="26.599136" y1="13.138712" x2="26.599136" y2="13.302011" />
      <path d="M 28.198485,14.401929 A 3.25,1.876388374866284 1.9476840171514755e-15 0,1 26.599136,13.302011" />
      <line x1="26.599136" y1="13.302011" x2="28.637825" y2="12.124974" />
      <path d="M 28.198485,12.737347 A 1.5,0.8660254037844388 0.0 0,1 28.637825,12.124974" />
      <path d="M 30.759145,14.084566 A 1.5,0.8660254037844388 0.0 0,1 31.198485,14.696938" />
      <path d="M 31.198485,14.696938 A 1.5,0.8660254037844388 0.0 0,1 28.198485,14.696938" />
      <path d="M 28.198485,14.696938 A 1.5,0.8660254037844388 0.0 0,1 30.759145,14.084566" />
      <path d="M 30.676513,-12.403865 A 3.25,1.876388374866284 0.0 0,1 31.996582,-11.941262" />
      <line x1="30.676513" y1="-12.403865" x2="30.676513" y2="-10.444273" />
      <path d="M 30.676513,-10.444273 A 3.25,1.876388374866284 0.0 0,1 31.996582,-9.981671" />
      <path d="M 31.996582,-9.981671 A 3.25,1.876388374866284 0.0 0,1 32.797833,-9.219529" />
      <line x1="32.797833" y1="-11.17912" x2="32.797833" y2="-9.219529" />
      <path d="M 31.996582,-11.941262 A 3.25,1.876388374866284 0.0 0,1 32.797833,-11.17912" />
      <path d="M 26.448485,-10.614456 A 3.25,1.876388374866284 0.0 0,1 30.676513,-12.403865" />
      <path d="M 26.599136,-8.090199 A 3.25,1.876388374866284 0.0 0,1 26.448485,-8.654864" />
      <path d="M 26.448485,-8.654864 A 3.25,1.876388374866284 0.0 0,1 30.676513,-10.444273" />
      <line x1="32.797833" y1="-9.219529" x2="32.797833" y2="-9.056229" />
      <path d="M 30.676513,-10.280974 A 3.25,1.876388374866284 0.0 0,1 32.797833,-9.056229" />
      <line x1="30.676513" y1="-10.444273" x2="30.676513" y2="-10.280974" />
      <path d="M 32.797833,-9.219529 A 3.25,1.876388374866284 0.0 0,1 32.948485,-8.654864" />
      <path d="M 32.948485,-8.654864 A 3.25,1.876388374866284 0.0 0,1 31.198485,-6.990282" />
      <path d="M 32.797833,-11.17912 A 3.25,1.876388374866284 0.0 0,1 32.948485,-10.614456" />
      <line x1="28.637825" y1="-9.267236" x2="26.599136" y2="-8.090199" />
      <line x1="30.676513" y1="-10.444273" x2="28.637825" y2="-9.267236" />
      <line x1="31.198485" y1="-8.132845" x2="32.797833" y2="-9.056229" />
      <line x1="28.637825" y1="-9.103937" x2="30.676513" y2="-10.280974" />
      <path d="M 28.637825,-9.103937 A 1.5,0.8660254037844388 0.0 0,1 30.759145,-9.103937" />
      <path d="M 30.759145,-9.103937 A 1.5,0.8660254037844388 0.0 0,1 31.198485,-8.491564" />
      <line x1="28.637825" y1="-9.267236" x2="28.637825" y2="-9.103937" />
      <line x1="26.599136" y1="-8.090199" x2="26.599136" y2="-7.9269" />
      <path d="M 28.198485,-6.826982 A 3.25,1.876388374866284 1.9476840171514755e-15 0,1 26.599136,-7.9269" />
      <line x1="26.599136" y1="-7.9269" x2="28.637825" y2="-9.103937" />
      <path d="M 28.198485,-8.491564 A 1.5,0.8660254037844388 0.0 0,1 28.637825,-9.103937" />
      <path d="M 30.759145,-7.144345 A 1.5,0.8660254037844388 0.0 0,1 31.198485,-6.531973" />
      <path d="M 31.198485,-6.531973 A 1.5,0.8660254037844388 0.0 0,1 28.198485,-6.531973" />
      <path d="M 28.198485,-6.531973 A 1.5,0.8660254037844388 0.0 0,1 30.759145,-7.144345" />
      <path d="M 49.061289,-1.78941 A 3.25,1.876388374866284 0.0 0,1 50.381358,-1.326807" />
      <line x1="49.061289" y1="-1.78941" x2="49.061289" y2="0.170182" />
      <path d="M 49.061289,0.170182 A 3.25,1.876388374866284 0.0 0,1 50.381358,0.632785" />
      <path d="M 50.381358,0.632785 A 3.25,1.876388374866284 0.0 0,1 51.18261,1.394927" />
      <line x1="51.18261" y1="-0.564665" x2="51.18261" y2="1.394927" />
      <path d="M 50.381358,-1.326807 A 3.25,1.876388374866284 0.0 0,1 51.18261,-0.564665" />
      <path d="M 44.833261,0.0 A 3.25,1.876388374866284 0.0 0,1 49.061289,-1.78941" />
      <path d="M 44.983913,2.524257 A 3.25,1.876388374866284 0.0 0,1 44.833261,1.959592" />
      <path d="M 44.833261,1.959592 A 3.25,1.876388374866284 0.0 0,1 49.061289,0.170182" />
      <line x1="51.18261" y1="1.394927" x2="51.18261" y2="1.558226" />
      <path d="M 49.061289,0.333481 A 3.25,1.876388374866284 0.0 0,1 51.18261,1.558226" />
      <line x1="49.061289" y1="0.170182" x2="49.061289" y2="0.333481" />
      <path d="M 51.18261,1.394927 A 3.25,1.876388374866284 0.0 0,1 51.333261,1.959592" />
      <path d="M 51.333261,1.959592 A 3.25,1.876388374866284 0.0 0,1 49.583261,3.624174" />
      <path d="M 51.18261,-0.564665 A 3.25,1.876388374866284 0.0 0,1 51.333261,-0.0" />
      <line x1="47.022601" y1="1.347219" x2="44.983913" y2="2.524257" />
      <line x1="49.061289" y1="0.170182" x2="47.022601" y2="1.347219" />
      <line x1="49.583261" y1="2.481611" x2="51.18261" y2="1.558226" />
      <line x1="47.022601" y1="1.510519" x2="49.061289" y2="0.333481" />
      <path d="M 47.022601,1.510519 A 1.5,0.8660254037844388 0.0 0,1 49.143921,1.510519" />
      <path d="M 49.143921,1.510519 A 1.5,0.8660254037844388 0.0 0,1 49.583261,2.122891" />
      <line x1="47.022601" y1="1.347219" x2="47.022601" y2="1.510519" />
      <line x1="44.983913" y1="2.524257" x2="44.983913" y2="2.687556" />
      <path d="M 46.583261,3.787473 A 3.25,1.876388374866284 1.9476840171514755e-15 0,1 44.983913,2.687556" />
      <line x1="44.983913" y1="2.687556" x2="47.022601" y2="1.510519" />
      <path d="M 46.583261,2.122891 A 1.5,0.8660254037844388 0.0 0,1 47.022601,1.510519" />
      <path d="M 49.143921,3.47011 A 1.5,0.8660254037844388 0.0 0,1 49.583261,4.082483" />
      <path d="M 49.583261,4.082483 A 1.5,0.8660254037844388 0.0 0,1 46.583261,4.082483" />
      <path d="M 46.583261,4.082483 A 1.5,0.8660254037844388 0.0 0,1 49.143921,3.47011" />
      <path d="M -47.105233,-1.78941 A 3.25,1.876388374866284 0.0 0,1 -45.785164,-1.326807" />
      <line x1="-47.105233" y1="-1.78941" x2="-47.105233" y2="0.170182" />
      <path d="M -47.105233,0.170182 A 3.25,1.876388374866284 0.0 0,1 -45.785164,0.632785" />
      <path d="M -45.785164,0.632785 A 3.25,1.876388374866284 0.0 0,1 -44.983913,1.394927" />
      <line x1="-44.983913" y1="-0.564665" x2="-44.983913" y2="1.394927" />
      <path d="M -45.785164,-1.326807 A 3.25,1.876388374866284 0.0 0,1 -44.983913,-0.564665" />
      <path d="M -51.333261,0.0 A 3.25,1.876388374866284 0.0 0,1 -47.105233,-1.78941" />
      <path d="M -51.18261,2.524257 A 3.25,1.876388374866284 0.0 0,1 -51.333261,1.959592" />
      <path d="M -51.333261,1.959592 A 3.25,1.876388374866284 0.0 0,1 -47.105233,0.170182" />
      <line x1="-44.983913" y1="1.394927" x2="-44.983913" y2="1.558226" />
      <path d="M -47.105233,0.333481 A 3.25,1.876388374866284 0.0 0,1 -44.983913,1.558226" />
      <line x1="-47.105233" y1="0.170182" x2="-47.105233" y2="0.333481" />
      <path d="M -44.983913,1.394927 A 3.25,1.876388374866284 0.0 0,1 -44.833261,1.959592" />
      <path d="M -44.833261,1.959592 A 3.25,1.876388374866284 0.0 0,1 -46.583261,3.624174" />
      <path d="M -44.983913,-0.564665 A 3.25,1.876388374866284 0.0 0,1 -44.833261,-0.0" />
      <line x1="-49.143921" y1="1.347219" x2="-51.18261" y2="2.524257" />
      <line x1="-47.105233" y1="0.170182" x2="-49.143921" y2="1.347219" />
      <line x1="-46.583261" y1="2.481611" x2="-44.983913" y2="1.558226" />
      <line x1="-49.143921" y1="1.510519" x2="-47.105233" y2="0.333481" />
      <path d="M -49.143921,1.510519 A 1.5,0.8660254037844388 0.0 0,1 -47.022601,1.510519" />
      <path d="M -47.022601,1.510519 A 1.5,0.8660254037844388 0.0 0,1 -46.583261,2.122891" />
      <line x1="-49.143921" y1="1.347219" x2="-49.143921" y2="1.510519" />
      <line x1="-51.18261" y1="2.524257" x2="-51.18261" y2="2.687556" />
      <path d="M -49.583261,3.787473 A 3.25,1.876388374866284 1.9476840171514755e-15 0,1 -51.18261,2.687556" />
      <line x1="-51.18261" y1="2.687556" x2="-49.143921" y2="1.510519" />
      <path d="M -49.583261,2.122891 A 1.5,0.8660254037844388 0.0 0,1 -49.143921,1.510519" />
      <path d="M -47.022601,3.47011 A 1.5,0.8660254037844388 0.0 0,1 -46.583261,4.082483" />
      <path d="M -46.583261,4.082483 A 1.5,0.8660254037844388 0.0 0,1 -49.583261,4.082483" />
      <path d="M -49.583261,4.082483 A 1.5,0.8660254037844388 0.0 0,1 -47.022601,3.47011" />
      <path d="M -28.720457,8.825046 A 3.25,1.876388374866284 0.0 0,1 -27.400388,9.287649" />
      <line x1="-28.720457" y1="8.825046" x2="-28.720457" y2="10.784638" />
      <path d="M -28.720457,10.784638 A 3.25,1.876388374866284 0.0 0,1 -27.400388,11.24724" />
      <path d="M -27.400388,11.24724 A 3.25,1.876388374866284 0.0 0,1 -26.599136,12.009383" />
      <line x1="-26.599136" y1="10.049791" x2="-26.599136" y2="12.009383" />
      <path d="M -27.400388,9.287649 A 3.25,1.876388374866284 0.0 0,1 -26.599136,10.049791" />
      <path d="M -32.948485,10.614456 A 3.25,1.876388374866284 0.0 0,1 -28.720457,8.825046" />
      <path d="M -32.797833,13.138712 A 3.25,1.876388374866284 0.0 0,1 -32.948485,12.574047" />
      <path d="M -32.948485,12.574047 A 3.25,1.876388374866284 0.0 0,1 -28.720457,10.784638" />
      <line x1="-26.599136" y1="12.009383" x2="-26.599136" y2="12.172682" />
      <path d="M -28.720457,10.947937 A 3.25,1.876388374866284 0.0 0,1 -26.599136,12.172682" />
      <line x1="-28.720457" y1="10.784638" x2="-28.720457" y2="10.947937" />
      <path d="M -26.599136,12.009383 A 3.25,1.876388374866284 0.0 0,1 -26.448485,12.574047" />
      <path d="M -26.448485,12.574047 A 3.25,1.876388374866284 0.0 0,1 -28.198485,14.238629" />
      <path d="M -26.599136,10.049791 A 3.25,1.876388374866284 0.0 0,1 -26.448485,10.614456" />
      <line x1="-30.759145" y1="11.961675" x2="-32.797833" y2="13.138712" />
      <line x1="-28.720457" y1="10.784638" x2="-30.759145" y2="11.961675" />
      <line x1="-28.198485" y1="13.096066" x2="-26.599136" y2="12.172682" />
      <line x1="-30.759145" y1="12.124974" x2="-28.720457" y2="10.947937" />
      <path d="M -30.759145,12.124974 A 1.5,0.8660254037844388 0.0 0,1 -28.637825,12.124974" />
      <path d="M -28.637825,12.124974 A 1.5,0.8660254037844388 0.0 0,1 -28.198485,12.737347" />
      <line x1="-30.759145" y1="11.961675" x2="-30.759145" y2="12.124974" />
      <line x1="-32.797833" y1="13.138712" x2="-32.797833" y2="13.302011" />
      <path d="M -31.198485,14.401929 A 3.25,1.876388374866284 1.9476840171514755e-15 0,1 -32.797833,13.302011" />
      <line x1="-32.797833" y1="13.302011" x2="-30.759145" y2="12.124974" />
      <path d="M -31.198485,12.737347 A 1.5,0.8660254037844388 0.0 0,1 -30.759145,12.124974" />
      <path d="M -28.637825,14.084566 A 1.5,0.8660254037844388 0.0 0,1 -28.198485,14.696938" />
      <path d="M -28.198485,14.696938 A 1.5,0.8660254037844388 0.0 0,1 -31.198485,14.696938" />
      <path d="M -31.198485,14.696938 A 1.5,0.8660254037844388 0.0 0,1 -28.637825,14.084566" />
      <path d="M -28.720457,-12.403865 A 3.25,1.876388374866284 0.0 0,1 -27.400388,-11.941262" />
      <line x1="-28.720457" y1="-12.403865" x2="-28.720457" y2="-10.444273" />
      <path d="M -28.720457,-10.444273 A 3.25,1.876388374866284 0.0 0,1 -27.400388,-9.981671" />
      <path d="M -27.400388,-9.981671 A 3.25,1.876388374866284 0.0 0,1 -26.599136,-9.219529" />
      <line x1="-26.599136" y1="-11.17912" x2="-26.599136" y2="-9.219529" />
      <path d="M -27.400388,-11.941262 A 3.25,1.876388374866284 0.0 0,1 -26.599136,-11.17912" />
      <path d="M -32.948485,-10.614456 A 3.25,1.876388374866284 0.0 0,1 -28.720457,-12.403865" />
      <path d="M -32.797833,-8.090199 A 3.25,1.876388374866284 0.0 0,1 -32.948485,-8.654864" />
      <path d="M -32.948485,-8.654864 A 3.25,1.876388374866284 0.0 0,1 -28.720457,-10.444273" />
      <line x1="-26.599136" y1="-9.219529" x2="-26.599136" y2="-9.056229" />
      <path d="M -28.720457,-10.280974 A 3.25,1.876388374866284 0.0 0,1 -26.599136,-9.056229" />
      <line x1="-28.720457" y1="-10.444273" x2="-28.720457" y2="-10.280974" />
      <path d="M -26.599136,-9.219529 A 3.25,1.876388374866284 0.0 0,1 -26.448485,-8.654864" />
      <path d="M -26.448485,-8.654864 A 3.25,1.876388374866284 0.0 0,1 -28.198485,-6.990282" />
      <path d="M -26.599136,-11.17912 A 3.25,1.876388374866284 0.0 0,1 -26.448485,-10.614456" />
      <line x1="-30.759145" y1="-9.267236" x2="-32.797833" y2="-8.090199" />
      <line x1="-28.720457" y1="-10.444273" x2="-30.759145" y2="-9.267236" />
      <line x1="-28.198485" y1="-8.132845" x2="-26.599136" y2="-9.056229" />
      <line x1="-30.759145" y1="-9.103937" x2="-28.720457" y2="-10.280974" />
      <path d="M -30.759145,-9.103937 A 1.5,0.8660254037844388 0.0 0,1 -28.637825,-9.103937" />
      <path d="M -28.637825,-9.103937 A 1.5,0.8660254037844388 0.0 0,1 -28.198485,-8.491564" />
      <line x1="-30.759145" y1="-9.267236" x2="-30.759145" y2="-9.103937" />
      <line x1="-32.797833" y1="-8.090199" x2="-32.797833" y2="-7.9269" />
      <path d="M -31.198485,-6.826982 A 3.25,1.876388374866284 1.9476840171514755e-15 0,1 -32.797833,-7.9269" />
      <line x1="-32.797833" y1="-7.9269" x2="-30.759145" y2="-9.103937" />
      <path d="M -31.198485,-8.491564 A 1.5,0.8660254037844388 0.0 0,1 -30.759145,-9.103937" />
      <path d="M -28.637825,-7.144345 A 1.5,0.8660254037844388 0.0 0,1 -28.198485,-6.531973" />
      <path d="M -28.198485,-6.531973 A 1.5,0.8660254037844388 0.0 0,1 -31.198485,-6.531973" />
      <path d="M -31.198485,-6.531973 A 1.5,0.8660254037844388 0.0 0,1 -28.637825,-7.144345" />
      <path d="M -10.33568,-1.78941 A 3.25,1.876388374866284 0.0 0,1 -9.015611,-1.326807" />
      <line x1="-10.33568" y1="-1.78941" x2="-10.33568" y2="0.170182" />
      <path d="M -10.33568,0.170182 A 3.25,1.876388374866284 0.0 0,1 -9.015611,0.632785" />
      <path d="M -9.015611,0.632785 A 3.25,1.876388374866284 0.0 0,1 -8.21436,1.394927" />
      <line x1="-8.21436" y1="-0.564665" x2="-8.21436" y2="1.394927" />
      <path d="M -9.015611,-1.326807 A 3.25,1.876388374866284 0.0 0,1 -8.21436,-0.564665" />
      <path d="M -14.563708,0.0 A 3.25,1.876388374866284 0.0 0,1 -10.33568,-1.78941" />
      <path d="M -14.413057,2.524257 A 3.25,1.876388374866284 0.0 0,1 -14.563708,1.959592" />
      <path d="M -14.563708,1.959592 A 3.25,1.876388374866284 0.0 0,1 -10.33568,0.170182" />
      <line x1="-8.21436" y1="1.394927" x2="-8.21436" y2="1.558226" />
      <path d="M -10.33568,0.333481 A 3.25,1.876388374866284 0.0 0,1 -8.21436,1.558226" />
      <line x1="-10.33568" y1="0.170182" x2="-10.33568" y2="0.333481" />
      <path d="M -8.21436,1.394927 A 3.25,1.876388374866284 0.0 0,1 -8.063708,1.959592" />
      <path d="M -8.063708,1.959592 A 3.25,1.876388374866284 0.0 0,1 -9.813708,3.624174" />
      <path d="M -8.21436,-0.564665 A 3.25,1.876388374866284 0.0 0,1 -8.063708,-0.0" />
      <line x1="-12.374369" y1="1.347219" x2="-14.413057" y2="2.524257" />
      <line x1="-10.33568" y1="0.170182" x2="-12.374369" y2="1.347219" />
      <line x1="-9.813708" y1="2.481611" x2="-8.21436" y2="1.558226" />
      <line x1="-12.374369" y1="1.510519" x2="-10.33568" y2="0.333481" />
      <path d="M -12.374369,1.510519 A 1.5,0.8660254037844388 0.0 0,1 -10.253048,1.510519" />
      <path d="M -10.253048,1.510519 A 1.5,0.8660254037844388 0.0 0,1 -9.813708,2.122891" />
      <line x1="-12.374369" y1="1.347219" x2="-12.374369" y2="1.510519" />
      <line x1="-14.413057" y1="2.524257" x2="-14.413057" y2="2.687556" />
      <path d="M -12.813708,3.787473 A 3.25,1.876388374866284 1.9476840171514755e-15 0,1 -14.413057,2.687556" />
      <line x1="-14.413057" y1="2.687556" x2="-12.374369" y2="1.510519" />
      <path d="M -12.813708,2.122891 A 1.5,0.8660254037844388 0.0 0,1 -12.374369,1.510519" />
      <path d="M -10.253048,3.47011 A 1.5,0.8660254037844388 0.0 0,1 -9.813708,4.082483" />
      <path d="M -9.813708,4.082483 A 1.5,0.8660254037844388 0.0 0,1 -12.813708,4.082483" />
      <path d="M -12.813708,4.082483 A 1.5,0.8660254037844388 0.0 0,1 -10.253048,3.47011" />
      <path d="M -17.406748,-18.935838 A 3.25,1.876388374866284 0.0 0,1 -16.086679,-18.473235" />
      <line x1="-17.406748" y1="-18.935838" x2="-17.406748" y2="-16.976246" />
      <path d="M -17.406748,-16.976246 A 3.25,1.876388374866284 0.0 0,1 -16.086679,-16.513643" />
      <path d="M -16.086679,-16.513643 A 3.25,1.876388374866284 0.0 0,1 -15.285428,-15.751501" />
      <line x1="-15.285428" y1="-17.711093" x2="-15.285428" y2="-15.751501" />
      <path d="M -16.086679,-18.473235 A 3.25,1.876388374866284 0.0 0,1 -15.285428,-17.711093" />
      <path d="M -21.634776,-17.146428 A 3.25,1.876388374866284 0.0 0,1 -17.406748,-18.935838" />
      <path d="M -21.484125,-14.622172 A 3.25,1.876388374866284 0.0 0,1 -21.634776,-15.186836" />
      <path d="M -21.634776,-15.186836 A 3.25,1.876388374866284 0.0 0,1 -17.406748,-16.976246" />
      <line x1="-15.285428" y1="-15.751501" x2="-15.285428" y2="-15.588202" />
      <path d="M -17.406748,-16.812947 A 3.25,1.876388374866284 0.0 0,1 -15.285428,-15.588202" />
      <line x1="-17.406748" y1="-16.976246" x2="-17.406748" y2="-16.812947" />
      <path d="M -15.285428,-15.751501 A 3.25,1.876388374866284 0.0 0,1 -15.134776,-15.186836" />
      <path d="M -15.134776,-15.186836 A 3.25,1.876388374866284 0.0 0,1 -16.884776,-13.522254" />
      <path d="M -15.285428,-17.711093 A 3.25,1.876388374866284 0.0 0,1 -15.134776,-17.146428" />
      <line x1="-19.445436" y1="-15.799209" x2="-21.484125" y2="-14.622172" />
      <line x1="-17.406748" y1="-16.976246" x2="-19.445436" y2="-15.799209" />
      <line x1="-16.884776" y1="-14.664818" x2="-15.285428" y2="-15.588202" />
      <line x1="-19.445436" y1="-15.63591" x2="-17.406748" y2="-16.812947" />
      <path d="M -19.445436,-15.63591 A 1.5,0.8660254037844388 0.0 0,1 -17.324116,-15.63591" />
      <path d="M -17.324116,-15.63591 A 1.5,0.8660254037844388 0.0 0,1 -16.884776,-15.023537" />
      <line x1="-19.445436" y1="-15.799209" x2="-19.445436" y2="-15.63591" />
      <line x1="-21.484125" y1="-14.622172" x2="-21.484125" y2="-14.458872" />
      <path d="M -19.884776,-13.358955 A 3.25,1.876388374866284 1.9476840171514755e-15 0,1 -21.484125,-14.458872" />
      <line x1="-21.484125" y1="-14.458872" x2="-19.445436" y2="-15.63591" />
      <path d="M -19.884776,-15.023537 A 1.5,0.8660254037844388 0.0 0,1 -19.445436,-15.63591" />
      <path d="M -17.324116,-13.676318 A 1.5,0.8660254037844388 0.0 0,1 -16.884776,-13.063945" />
      <path d="M -16.884776,-13.063945 A 1.5,0.8660254037844388 0.0 0,1 -19.884776,-13.063945" />
      <path d="M -19.884776,-13.063945 A 1.5,0.8660254037844388 0.0 0,1 -17.324116,-13.676318" />
      <path d="M 0.978028,-8.321382 A 3.25,1.876388374866284 0.0 0,1 2.298097,-7.85878" />
      <line x1="0.978028" y1="-8.321382" x2="0.978028" y2="-6.361791" />
      <path d="M 0.978028,-6.361791 A 3.25,1.876388374866284 0.0 0,1 2.298097,-5.899188" />
      <path d="M 2.298097,-5.899188 A 3.25,1.876388374866284 0.0 0,1 3.099348,-5.137046" />
      <line x1="3.099348" y1="-7.096637" x2="3.099348" y2="-5.137046" />
      <path d="M 2.298097,-7.85878 A 3.25,1.876388374866284 0.0 0,1 3.099348,-7.096637" />
      <path d="M -3.25,-6.531973 A 3.25,1.876388374866284 0.0 0,1 0.978028,-8.321382" />
      <path d="M -3.099348,-4.007716 A 3.25,1.876388374866284 0.0 0,1 -3.25,-4.572381" />
      <path d="M -3.25,-4.572381 A 3.25,1.876388374866284 0.0 0,1 0.978028,-6.361791" />
      <line x1="3.099348" y1="-5.137046" x2="3.099348" y2="-4.973746" />
      <path d="M 0.978028,-6.198491 A 3.25,1.876388374866284 0.0 0,1 3.099348,-4.973746" />
      <line x1="0.978028" y1="-6.361791" x2="0.978028" y2="-6.198491" />
      <path d="M 3.099348,-5.137046 A 3.25,1.876388374866284 0.0 0,1 3.25,-4.572381" />
      <path d="M 3.25,-4.572381 A 3.25,1.876388374866284 0.0 0,1 1.5,-2.907799" />
      <path d="M 3.099348,-7.096637 A 3.25,1.876388374866284 0.0 0,1 3.25,-6.531973" />
      <line x1="-1.06066" y1="-5.184753" x2="-3.099348" y2="-4.007716" />
      <line x1="0.978028" y1="-6.361791" x2="-1.06066" y2="-5.184753" />
      <line x1="1.5" y1="-4.050362" x2="3.099348" y2="-4.973746" />
      <line x1="-1.06066" y1="-5.021454" x2="0.978028" y2="-6.198491" />
      <path d="M -1.06066,-5.021454 A 1.5,0.8660254037844388 0.0 0,1 1.06066,-5.021454" />
      <path d="M 1.06066,-5.021454 A 1.5,0.8660254037844388 0.0 0,1 1.5,-4.409082" />
      <line x1="-1.06066" y1="-5.184753" x2="-1.06066" y2="-5.021454" />
      <line x1="-3.099348" y1="-4.007716" x2="-3.099348" y2="-3.844417" />
      <path d="M -1.5,-2.7445 A 3.25,1.876388374866284 1.9476840171514755e-15 0,1 -3.099348,-3.844417" />
      <line x1="-3.099348" y1="-3.844417" x2="-1.06066" y2="-5.021454" />
      <path d="M -1.5,-4.409082 A 1.5,0.8660254037844388 0.0 0,1 -1.06066,-5.021454" />
      <path d="M 1.06066,-3.061862 A 1.5,0.8660254037844388 0.0 0,1 1.5,-2.44949" />
      <path d="M 1.5,-2.44949 A 1.5,0.8660254037844388 0.0 0,1 -1.5,-2.44949" />
      <path d="M -1.5,-2.44949 A 1.5,0.8660254037844388 0.0 0,1 1.06066,-3.061862" />
      <path d="M 0.978028,-29.550293 A 3.25,1.876388374866284 0.0 0,1 2.298097,-29.087691" />
      <line x1="0.978028" y1="-29.550293" x2="0.978028" y2="-27.590702" />
      <path d="M 0.978028,-27.590702 A 3.25,1.876388374866284 0.0 0,1 2.298097,-27.128099" />
      <path d="M 2.298097,-27.128099 A 3.25,1.876388374866284 0.0 0,1 3.099348,-26.365957" />
      <line x1="3.099348" y1="-28.325549" x2="3.099348" y2="-26.365957" />
      <path d="M 2.298097,-29.087691 A 3.25,1.876388374866284 0.0 0,1 3.099348,-28.325549" />
      <path d="M -3.25,-27.760884 A 3.25,1.876388374866284 0.0 0,1 0.978028,-29.550293" />
      <path d="M -3.099348,-25.236627 A 3.25,1.876388374866284 0.0 0,1 -3.25,-25.801292" />
      <path d="M -3.25,-25.801292 A 3.25,1.876388374866284 0.0 0,1 0.978028,-27.590702" />
      <line x1="3.099348" y1="-26.365957" x2="3.099348" y2="-26.202657" />
      <path d="M 0.978028,-27.427402 A 3.25,1.876388374866284 0.0 0,1 3.099348,-26.202657" />
      <line x1="0.978028" y1="-27.590702" x2="0.978028" y2="-27.427402" />
      <path d="M 3.099348,-26.365957 A 3.25,1.876388374866284 0.0 0,1 3.25,-25.801292" />
      <path d="M 3.25,-25.801292 A 3.25,1.876388374866284 0.0 0,1 1.5,-24.13671" />
      <path d="M 3.099348,-28.325549 A 3.25,1.876388374866284 0.0 0,1 3.25,-27.760884" />
      <line x1="-1.06066" y1="-26.413664" x2="-3.099348" y2="-25.236627" />
      <line x1="0.978028" y1="-27.590702" x2="-1.06066" y2="-26.413664" />
      <line x1="1.5" y1="-25.279273" x2="3.099348" y2="-26.202657" />
      <line x1="-1.06066" y1="-26.250365" x2="0.978028" y2="-27.427402" />
      <path d="M -1.06066,-26.250365 A 1.5,0.8660254037844388 0.0 0,1 1.06066,-26.250365" />
      <path d="M 1.06066,-26.250365 A 1.5,0.8660254037844388 0.0 0,1 1.5,-25.637993" />
      <line x1="-1.06066" y1="-26.413664" x2="-1.06066" y2="-26.250365" />
      <line x1="-3.099348" y1="-25.236627" x2="-3.099348" y2="-25.073328" />
      <path d="M -1.5,-23.973411 A 3.25,1.876388374866284 1.9476840171514755e-15 0,1 -3.099348,-25.073328" />
      <line x1="-3.099348" y1="-25.073328" x2="-1.06066" y2="-26.250365" />
      <path d="M -1.5,-25.637993 A 1.5,0.8660254037844388 0.0 0,1 -1.06066,-26.250365" />
      <path d="M 1.06066,-24.290773 A 1.5,0.8660254037844388 0.0 0,1 1.5,-23.678401" />
      <path d="M 1.5,-23.678401 A 1.5,0.8660254037844388 0.0 0,1 -1.5,-23.678401" />
      <path d="M -1.5,-23.678401 A 1.5,0.8660254037844388 0.0 0,1 1.06066,-24.290773" />
      <line x1="15.134776" y1="-17.146428" x2="15.134776" y2="-15.186836" />
      <line x1="21.634776" y1="-17.146428" x2="21.634776" y2="-15.186836" />
      <line x1="19.884776" y1="-15.023537" x2="19.884776" y2="-13.063945" />
      <line x1="16.884776" y1="-15.023537" x2="16.884776" y2="-13.063945" />
      <line x1="-21.634776" y1="17.146428" x2="-21.634776" y2="19.10602" />
      <line x1="-15.134776" y1="17.146428" x2="-15.134776" y2="19.10602" />
      <line x1="-16.884776" y1="19.269319" x2="-16.884776" y2="21.228911" />
      <line x1="-19.884776" y1="19.269319" x2="-19.884776" y2="21.228911" />
      <line x1="-3.25" y1="27.760884" x2="-3.25" y2="29.720476" />
      <line x1="3.25" y1="27.760884" x2="3.25" y2="29.720476" />
      <line x1="1.5" y1="29.883775" x2="1.5" y2="31.843367" />
      <line x1="-1.5" y1="29.883775" x2="-1.5" y2="31.843367" />
      <line x1="-3.25" y1="6.531973" x2="-3.25" y2="8.491564" />
      <line x1="3.25" y1="6.531973" x2="3.25" y2="8.491564" />
      <line x1="1.5" y1="8.654864" x2="1.5" y2="10.614456" />
      <line x1="-1.5" y1="8.654864" x2="-1.5" y2="10.614456" />
      <line x1="15.134776" y1="17.146428" x2="15.134776" y2="19.10602" />
      <line x1="21.634776" y1="17.146428" x2="21.634776" y2="19.10602" />
      <line x1="19.884776" y1="19.269319" x2="19.884776" y2="21.228911" />
      <line x1="16.884776" y1="19.269319" x2="16.884776" y2="21.228911" />
      <line x1="8.063708" y1="0.0" x2="8.063708" y2="1.959592" />
      <line x1="14.563708" y1="0.0" x2="14.563708" y2="1.959592" />
      <line x1="12.813708" y1="2.122891" x2="12.813708" y2="4.082483" />
      <line x1="9.813708" y1="2.122891" x2="9.813708" y2="4.082483" />
      <line x1="26.448485" y1="10.614456" x2="26.448485" y2="12.574047" />
      <line x1="32.948485" y1="10.614456" x2="32.948485" y2="12.574047" />
      <line x1="31.198485" y1="12.737347" x2="31.198485" y2="14.696938" />
      <line x1="28.198485" y1="12.737347" x2="28.198485" y2="14.696938" />
      <line x1="26.448485" y1="-10.614456" x2="26.448485" y2="-8.654864" />
      <line x1="32.948485" y1="-10.614456" x2="32.948485" y2="-8.654864" />
      <line x1="31.198485" y1="-8.491564" x2="31.198485" y2="-6.531973" />
      <line x1="28.198485" y1="-8.491564" x2="28.198485" y2="-6.531973" />
      <line x1="44.833261" y1="0.0" x2="44.833261" y2="1.959592" />
      <line x1="51.333261" y1="0.0" x2="51.333261" y2="1.959592" />
      <line x1="49.583261" y1="2.122891" x2="49.583261" y2="4.082483" />
      <line x1="46.583261" y1="2.122891" x2="46.583261" y2="4.082483" />
      <line x1="-51.333261" y1="0.0" x2="-51.333261" y2="1.959592" />
      <line x1="-44.833261" y1="0.0" x2="-44.833261" y2="1.959592" />
      <line x1="-46.583261" y1="2.122891" x2="-46.583261" y2="4.082483" />
      <line x1="-49.583261" y1="2.122891" x2="-49.583261" y2="4.082483" />
      <line x1="-32.948485" y1="10.614456" x2="-32.948485" y2="12.574047" />
      <line x1="-26.448485" y1="10.614456" x2="-26.448485" y2="12.574047" />
      <line x1="-28.198485" y1="12.737347" x2="-28.198485" y2="14.696938" />
      <line x1="-31.198485" y1="12.737347" x2="-31.198485" y2="14.696938" />
      <line x1="-32.948485" y1="-10.614456" x2="-32.948485" y2="-8.654864" />
      <line x1="-26.448485" y1="-10.614456" x2="-26.448485" y2="-8.654864" />
      <line x1="-28.198485" y1="-8.491564" x2="-28.198485" y2="-6.531973" />
      <line x1="-31.198485" y1="-8.491564" x2="-31.198485" y2="-6.531973" />
      <line x1="-14.563708" y1="0.0" x2="-14.563708" y2="1.959592" />
      <line x1="-8.063708" y1="0.0" x2="-8.063708" y2="1.959592" />
      <line x1="-9.813708" y1="2.122891" x2="-9.813708" y2="4.082483" />
      <line x1="-12.813708" y1="2.122891" x2="-12.813708" y2="4.082483" />
      <line x1="-21.634776" y1="-17.146428" x2="-21.634776" y2="-15.186836" />
      <line x1="-15.134776" y1="-17.146428" x2="-15.134776" y2="-15.186836" />
      <line x1="-16.884776" y1="-15.023537" x2="-16.884776" y2="-13.063945" />
      <line x1="-19.884776" y1="-15.023537" x2="-19.884776" y2="-13.063945" />
      <line x1="-3.25" y1="-6.531973" x2="-3.25" y2="-4.572381" />
      <line x1="3.25" y1="-6.531973" x2="3.25" y2="-4.572381" />
      <line x1="1.5" y1="-4.409082" x2="1.5" y2="-2.44949" />
      <line x1="-1.5" y1="-4.409082" x2="-1.5" y2="-2.44949" />
      <line x1="-3.25" y1="-27.760884" x2="-3.25" y2="-25.801292" />
      <line x1="3.25" y1="-27.760884" x2="3.25" y2="-25.801292" />
      <line x1="1.5" y1="-25.637993" x2="1.5" y2="-23.678401" />
      <line x1="-1.5" y1="-25.637993" x2="-1.5" y2="-23.678401" />
    </g>
  </g>
</svg>