<?xml version='1.0' encoding='utf-8'?>
<svg width="200.09mm" height="53.138226mm" viewBox="-87.227835 -21.800216 174.45567 46.330475" version="1.1" xmlns="http://www.w3.org/2000/svg">
  <g transform="scale(1,-1)" stroke-linecap="round">
    <g fill="none" stroke="rgb(31,35,40)" stroke-width="0.07846974016201136" id="visible">
      <path d="M -85.0386,0.653197 A 1.6000000000000005,0.9237604307034016 -7.78718065295739e-16 0,1 -84.569971,-0.0" />
      <path d="M -59.962655,-14.207041 A 0.8000000000000015,0.46188021535170154 -7.78718065295739e-16 0,1 -58.831284,-14.207041" />
      <line x1="-86.090251" y1="5.40929" x2="-62.04862" y2="19.289732" />
      <line x1="-84.569971" y1="-0.0" x2="-60.52834" y2="-13.880442" />
      <line x1="-60.52834" y1="-13.880442" x2="-59.962655" y2="-14.207041" />
      <path d="M -60.52834,-13.880442 A 1.6000000000000005,0.9237604307034016 -7.78718065295739e-16 0,1 -58.265599,-13.880442" />
      <line x1="-58.265599" y1="-13.880442" x2="-58.831284" y2="-14.207041" />
      <line x1="-58.265599" y1="-13.880442" x2="-34.223968" y2="-0.0" />
      <path d="M -34.223968,-0.0 A 1.6000000000000005,0.9237604307034016 -7.78718065295739e-16 0,1 -33.755339,0.653197" />
      <line x1="-84.569971" y1="1.469694" x2="-60.52834" y2="-12.410748" />
      <path d="M -86.090251,5.40929 A 3.75,2.165063509461097 -7.78718065295739e-16 0,1 -86.090251,2.347428" />
      <path d="M -56.745319,19.289732 A 3.75,2.165063509461097 -7.78718065295739e-16 0,1 -62.04862,19.289732" />
      <line x1="-86.090251" y1="2.347428" x2="-62.04862" y2="-11.533014" />
      <path d="M -62.04862,-11.533014 A 3.75,2.165063509461097 -7.78718065295739e-16 0,1 -56.745319,-11.533014" />
      <line x1="-56.745319" y1="-11.533014" x2="-32.703689" y2="2.347428" />
      <path d="M -32.703689,2.347428 A 3.75,2.165063509461097 -7.78718065295739e-16 0,1 -32.703689,5.40929" />
      <line x1="-56.745319" y1="19.289732" x2="-32.703689" y2="5.40929" />
      <path d="M -60.52834,-12.410748 A 1.6000000000000005,0.9237604307034016 -7.78718065295739e-16 0,1 -58.265599,-12.410748" />
      <line x1="-58.265599" y1="-12.410748" x2="-34.223968" y2="1.469694" />
      <line x1="-62.04862" y1="-11.533014" x2="-60.52834" y2="-12.410748" />
      <line x1="-56.745319" y1="-11.533014" x2="-58.265599" y2="-12.410748" />
      <line x1="-26.693281" y1="7.246407" x2="-2.65165" y2="21.126849" />
      <path d="M -27.791631,-0.0 A 3.75,2.165063509461097 -7.78718065295739e-16 0,1 -26.693281,-1.530931" />
      <path d="M -26.693281,7.246407 A 3.75,2.165063509461097 -7.78718065295739e-16 0,1 -27.791631,5.715476" />
      <path d="M -27.791631,5.715476 A 3.75,2.165063509461097 -7.78718065295739e-16 0,1 -26.693281,4.184545" />
      <line x1="-26.693281" y1="-1.530931" x2="-2.65165" y2="-15.411373" />
      <line x1="-26.693281" y1="4.184545" x2="-2.65165" y2="-9.695897" />
      <path d="M -2.65165,-15.411373 A 3.75,2.165063509461097 -7.78718065295739e-16 0,1 2.65165,-15.411373" />
      <path d="M -2.65165,-9.695897 A 3.75,2.165063509461097 -7.78718065295739e-16 0,1 2.65165,-9.695897" />
      <line x1="2.65165" y1="-15.411373" x2="26.693281" y2="-1.530931" />
      <line x1="2.65165" y1="-9.695897" x2="26.693281" y2="4.184545" />
      <path d="M 26.693281,-1.530931 A 3.75,2.165063509461097 -7.78718065295739e-16 0,1 27.791631,-0.0" />
      <path d="M 26.693281,4.184545 A 3.75,2.165063509461097 -7.78718065295739e-16 0,1 27.791631,5.715476" />
      <path d="M 27.791631,5.715476 A 3.75,2.165063509461097 -7.78718065295739e-16 0,1 26.693281,7.246407" />
      <line x1="2.65165" y1="21.126849" x2="26.693281" y2="7.246407" />
      <path d="M 2.65165,21.126849 A 3.75,2.165063509461097 -7.78718065295739e-16 0,1 -2.65165,21.126849" />
      <path d="M 31.605339,-0.0 A 3.75,2.165063509461097 -7.78718065295739e-16 0,1 32.703689,-1.530931" />
      <line x1="32.703689" y1="-1.530931" x2="56.745319" y2="-15.411373" />
      <path d="M 56.745319,-15.411373 A 3.75,2.165063509461097 -7.78718065295739e-16 0,1 62.04862,-15.411373" />
      <path d="M 86.090251,-1.530931 A 3.75,2.165063509461097 -7.78718065295739e-16 0,1 87.1886,-0.0" />
      <line x1="62.04862" y1="-15.411373" x2="86.090251" y2="-1.530931" />
      <line x1="60.210142" y1="14.349927" x2="83.792154" y2="0.734847" />
      <path d="M 60.210142,14.349927 A 1.15,0.6639528095680697 -7.78718065295739e-16 0,1 58.583797,14.349927" />
      <line x1="35.001786" y1="0.734847" x2="58.583797" y2="14.349927" />
      <line x1="34.047192" y1="2.796501" x2="58.088822" y2="16.676943" />
      <path d="M 34.047192,1.326807 A 1.8500000000000003,1.068097998000808 -7.78718065295739e-16 0,1 34.012767,1.306395" />
      <path d="M 84.781172,1.306395 A 1.8500000000000003,1.068097998000808 -7.78718065295739e-16 0,1 84.746748,1.326807" />
      <line x1="60.705117" y1="15.207249" x2="84.746748" y2="1.326807" />
      <path d="M 60.705117,15.207249 A 1.8500000000000003,1.068097998000808 -7.78718065295739e-16 0,1 58.088822,15.207249" />
      <line x1="34.047192" y1="1.326807" x2="58.088822" y2="15.207249" />
      <line x1="57.469583" y1="-12.236942" x2="33.427953" y2="1.6435" />
      <line x1="33.427953" y1="1.6435" x2="34.047192" y2="1.285982" />
      <path d="M 34.047192,2.796501 A 1.8500000000000003,1.068097998000808 -7.78718065295739e-16 0,1 33.505339,2.041241" />
      <path d="M 33.505339,2.041241 A 1.8500000000000003,1.068097998000808 -7.78718065295739e-16 0,1 34.047192,1.285982" />
      <path d="M 60.705117,16.676943 A 1.8500000000000003,1.068097998000808 -7.78718065295739e-16 0,1 58.088822,16.676943" />
      <line x1="85.365987" y1="1.6435" x2="61.324356" y2="-12.236942" />
      <path d="M 84.746748,1.285982 A 1.8500000000000003,1.068097998000808 -7.78718065295739e-16 0,1 85.2886,2.041241" />
      <path d="M 85.2886,2.041241 A 1.8500000000000003,1.068097998000808 -7.78718065295739e-16 0,1 84.746748,2.796501" />
      <line x1="60.705117" y1="16.676943" x2="84.746748" y2="2.796501" />
      <line x1="-84.569971" y1="1.469694" x2="-84.569971" y2="-0.0" />
      <line x1="-60.52834" y1="-12.410748" x2="-60.52834" y2="-13.880442" />
      <line x1="-58.265599" y1="-12.410748" x2="-58.265599" y2="-13.880442" />
      <line x1="-34.223968" y1="1.469694" x2="-34.223968" y2="-0.0" />
      <line x1="-26.693281" y1="-1.530931" x2="-26.693281" y2="4.184545" />
      <line x1="-2.65165" y1="-15.411373" x2="-2.65165" y2="-9.695897" />
      <line x1="2.65165" y1="-15.411373" x2="2.65165" y2="-9.695897" />
      <line x1="26.693281" y1="-1.530931" x2="26.693281" y2="4.184545" />
      <path d="M 32.703689,0.878936 C 32.005707,1.278655 31.601358,1.842274 31.605339,2.409867" />
      <line x1="32.703689" y1="-1.530931" x2="32.703689" y2="0.878936" />
      <path d="M 32.827953,4.215464 A 0.6,0.3464101615137755 -60.00000000000001 0,0 33.427953,3.869054" />
      <line x1="33.427953" y1="3.869054" x2="57.469583" y2="17.749496" />
      <path d="M 56.869583,18.095906 A 0.6,0.3464101615137755 -60.00000000000001 0,0 57.469583,17.749496" />
      <path d="M 32.703689,0.878936 A 0.6,0.3464101615137755 60.00000000000001 0,0 33.427953,1.6435" />
      <path d="M 33.427953,1.6435 C 32.920616,1.934041 32.626709,2.343715 32.629603,2.756277 C 32.626709,3.168839 32.920616,3.578513 33.427953,3.869054" />
      <line x1="56.745319" y1="-13.001506" x2="32.703689" y2="0.878936" />
      <line x1="56.745319" y1="-15.411373" x2="56.745319" y2="-13.001506" />
      <line x1="33.427953" y1="3.869054" x2="34.047192" y2="2.796501" />
      <line x1="57.469583" y1="17.749496" x2="58.088822" y2="16.676943" />
      <path d="M 57.469583,17.749496 C 57.972815,18.042407 58.682391,18.212094 59.39697,18.210423 C 60.111548,18.212094 60.821124,18.042407 61.324356,17.749496" />
      <path d="M 61.924356,18.095906 C 61.846025,18.141866 61.735583,18.130925 61.624356,18.066189 C 61.513129,18.002493 61.402684,17.8859 61.324356,17.749496" />
      <path d="M 62.04862,-13.001506 C 61.356286,-13.404486 60.380069,-13.637937 59.39697,-13.635639 C 58.413871,-13.637937 57.437653,-13.404486 56.745319,-13.001506" />
      <line x1="62.04862" y1="-15.411373" x2="62.04862" y2="-13.001506" />
      <line x1="86.090251" y1="-1.530931" x2="86.090251" y2="0.878936" />
      <path d="M 87.1886,2.409867 C 87.192581,1.842274 86.788232,1.278655 86.090251,0.878936" />
      <line x1="86.090251" y1="0.878936" x2="62.04862" y2="-13.001506" />
      <line x1="34.047192" y1="1.326807" x2="34.082547" y2="1.26557" />
      <line x1="84.746748" y1="1.326807" x2="84.711392" y2="1.26557" />
      <line x1="60.705117" y1="15.207249" x2="60.210142" y2="14.349927" />
      <line x1="58.088822" y1="15.207249" x2="58.583797" y2="14.349927" />
      <path d="M 56.745319,-13.001506 C 56.743223,-12.809025 56.851447,-12.559514 57.007224,-12.397689 C 57.161397,-12.232317 57.352454,-12.165895 57.469583,-12.236942" />
      <line x1="34.047192" y1="2.796501" x2="34.047192" y2="1.326807" />
      <line x1="58.088822" y1="16.676943" x2="58.088822" y2="15.207249" />
      <line x1="61.324356" y1="17.749496" x2="60.705117" y2="16.676943" />
      <line x1="61.324356" y1="17.749496" x2="85.365987" y2="3.869054" />
      <path d="M 85.965987,4.215464 A 0.6,0.3464101615137755 -119.99999999999999 0,1 85.365987,3.869054" />
      <path d="M 62.04862,-13.001506 A 0.6,0.3464101615137755 119.99999999999999 0,1 61.324356,-12.236942" />
      <path d="M 85.365987,3.869054 C 85.873323,3.578513 86.16723,3.168839 86.164336,2.756277 C 86.16723,2.343715 85.873323,1.934041 85.365987,1.6435" />
      <path d="M 86.090251,0.878936 C 86.092347,1.071417 85.984123,1.320928 85.828345,1.482753 C 85.674172,1.648125 85.483116,1.714547 85.365987,1.6435" />
      <line x1="84.746748" y1="2.796501" x2="84.746748" y2="1.326807" />
      <line x1="60.705117" y1="16.676943" x2="60.705117" y2="15.207249" />
      <line x1="85.365987" y1="3.869054" x2="84.746748" y2="2.796501" />
      <line x1="-85.0386" y1="0.653197" x2="-85.0386" y2="1.740257" />
      <line x1="-33.755339" y1="0.653197" x2="-33.755339" y2="1.740257" />
      <line x1="-27.791631" y1="5.715476" x2="-27.791631" y2="-0.0" />
      <line x1="27.791631" y1="5.715476" x2="27.791631" y2="-0.0" />
      <line x1="31.605339" y1="2.409867" x2="31.605339" y2="-0.0" />
      <line x1="32.827953" y1="4.215464" x2="56.869583" y2="18.095906" />
      <path d="M 31.605339,2.409867 C 31.60447,2.859084 31.791519,3.307233 32.146144,3.684614 C 32.333169,3.883958 32.560439,4.060908 32.827953,4.215464" />
      <path d="M 56.869583,18.095906 C 57.549186,18.490717 58.470173,18.710649 59.397686,18.708963 C 60.324716,18.710425 61.245086,18.490518 61.924356,18.095906" />
      <line x1="87.1886" y1="2.409867" x2="87.1886" y2="-0.0" />
      <line x1="61.924356" y1="18.095906" x2="85.965987" y2="4.215464" />
      <path d="M 61.324356,-12.236942 C 60.870851,-12.505206 60.136957,-12.693734 59.396395,-12.689224 C 58.656217,-12.693551 57.922856,-12.50506 57.469583,-12.236942" />
      <path d="M 85.965987,4.215464 C 86.233829,4.060718 86.461323,3.883527 86.64847,3.68389 C 87.002652,3.306678 87.189464,2.858818 87.1886,2.409867" />
    </g>
    <g fill="rgb(31,35,40)" stroke="none" stroke-width="0.07846974016201136" id="text">
      <path d="M -63.000811,-23.211548 Q -62.887985,-23.019238 -62.887985,-22.737191 Q -62.887985,-22.434619 -63.008501,-22.256413 Q -63.129017,-22.078206 -63.314914,-21.989746 Q -63.500811,-21.901286 -63.698239,-21.867952 Q -63.531572,-21.832048 -63.381572,-21.73846 Q -63.231572,-21.644873 -63.136708,-21.485897 Q -63.041843,-21.326921 -63.041843,-21.096159 Q -63.041843,-20.837191 -63.148247,-20.665389 Q -63.254652,-20.493587 -63.430295,-20.393587 Q -63.605938,-20.293587 -63.821319,-20.252563 Q -64.036699,-20.21154 -64.257224,-20.21154 L -65.049525,-20.21154 L -65.049525,-23.734619 L -64.170033,-23.734619 Q -63.939271,-23.734619 -63.71235,-23.684619 Q -63.48543,-23.634619 -63.299533,-23.519238 Q -63.113636,-23.403857 -63.000811,-23.211548 M -63.582866,-20.635897 Q -63.380303,-20.773079 -63.380303,-21.101286 Q -63.380303,-21.434619 -63.56235,-21.585905 Q -63.744398,-21.737191 -64.070033,-21.737191 L -64.72389,-21.737191 L -64.72389,-20.498714 L -64.118763,-20.498714 Q -63.78543,-20.498714 -63.582866,-20.635897 M -63.352088,-22.320516 Q -63.239271,-22.475651 -63.239271,-22.767952 Q -63.239271,-22.978206 -63.316192,-23.110262 Q -63.393112,-23.242318 -63.517477,-23.314111 Q -63.641843,-23.385905 -63.78543,-23.412826 Q -63.929017,-23.439746 -64.059779,-23.439746 L -64.72389,-23.439746 L -64.72389,-22.047445 L -64.044398,-22.047445 Q -63.831572,-22.047445 -63.648239,-22.106413 Q -63.464906,-22.165381 -63.352088,-22.320516" />
      <path d="M -60.139271,-23.203857 L -60.139271,-21.839746 Q -60.139271,-21.457699 -60.381581,-21.225643 Q -60.62389,-20.993587 -61.098255,-20.993587 Q -61.28543,-20.993587 -61.484144,-21.029484 Q -61.682858,-21.065381 -61.926446,-21.155127 L -61.834144,-21.416667 Q -61.62389,-21.342318 -61.452097,-21.311548 Q -61.280303,-21.280778 -61.144398,-21.280778 Q -60.831589,-21.280778 -60.650819,-21.407699 Q -60.470049,-21.534619 -60.470049,-21.85 L -60.470049,-22.11154 L -60.877731,-22.11154 Q -61.487985,-22.11154 -61.807215,-22.329492 Q -62.126446,-22.547445 -62.126446,-22.957699 Q -62.126446,-23.334619 -61.898247,-23.560262 Q -61.670049,-23.785905 -61.270049,-23.785905 Q -60.726446,-23.785905 -60.439271,-23.401286 Q -60.390557,-23.585905 -60.270041,-23.675643 Q -60.149525,-23.765381 -59.995684,-23.78846 L -59.908509,-23.555127 Q -60.026446,-23.519238 -60.082858,-23.443595 Q -60.139271,-23.367952 -60.139271,-23.203857 M -60.795684,-23.424357 Q -60.987985,-23.532048 -61.208509,-23.532048 Q -61.775176,-23.532048 -61.775176,-22.967952 Q -61.775176,-22.691032 -61.58543,-22.523079 Q -61.395684,-22.355127 -60.916192,-22.355127 L -60.470049,-22.355127 L -60.470049,-23.124365 Q -60.603382,-23.316667 -60.795684,-23.424357" />
      <path d="M -57.484152,-23.364103 Q -57.680303,-23.496159 -58.02389,-23.496159 Q -58.26235,-23.496159 -58.470041,-23.415389 Q -58.677731,-23.334619 -58.836716,-23.201286 L -59.034144,-23.434619 Q -58.872604,-23.575651 -58.627731,-23.680778 Q -58.382858,-23.785905 -58.026462,-23.785905 Q -57.754668,-23.785905 -57.503382,-23.710262 Q -57.252097,-23.634619 -57.091843,-23.464103 Q -56.931589,-23.293587 -56.931589,-23.008984 Q -56.931589,-22.760254 -57.041843,-22.603849 Q -57.152097,-22.447445 -57.349533,-22.350008 Q -57.54697,-22.252572 -57.811065,-22.183333 Q -58.08543,-22.108984 -58.24697,-22.043595 Q -58.408509,-21.978206 -58.479017,-21.89231 Q -58.549525,-21.806413 -58.549525,-21.673079 Q -58.549525,-21.501286 -58.405938,-21.388468 Q -58.26235,-21.275651 -57.905938,-21.275651 Q -57.626462,-21.275651 -57.444406,-21.344881 Q -57.26235,-21.414111 -57.113636,-21.519238 L -56.964922,-21.283333 Q -57.12389,-21.162826 -57.358509,-21.078206 Q -57.593128,-20.993587 -57.908509,-20.993587 Q -58.188002,-20.993587 -58.409795,-21.076921 Q -58.631589,-21.160254 -58.758509,-21.317952 Q -58.88543,-21.475651 -58.88543,-21.698714 Q -58.88543,-21.932048 -58.770049,-22.073079 Q -58.654668,-22.214111 -58.443128,-22.301286 Q -58.231589,-22.38846 -57.941843,-22.460254 Q -57.652097,-22.529492 -57.51235,-22.607699 Q -57.372604,-22.685905 -57.330303,-22.784619 Q -57.288002,-22.883333 -57.288002,-23.016667 Q -57.288002,-23.232048 -57.484152,-23.364103" />
      <path d="M -55.582875,-22.516667 L -53.752097,-22.516667 Q -53.749541,-22.475651 -53.746978,-22.420516 Q -53.744414,-22.365381 -53.744414,-22.296159 Q -53.744414,-21.693587 -54.021335,-21.343587 Q -54.298255,-20.993587 -54.788002,-20.993587 Q -55.126462,-20.993587 -55.381589,-21.171794 Q -55.636716,-21.35 -55.780303,-21.665389 Q -55.92389,-21.980778 -55.92389,-22.391032 Q -55.92389,-22.808984 -55.782866,-23.123088 Q -55.641843,-23.437191 -55.376462,-23.611548 Q -55.111081,-23.785905 -54.739271,-23.785905 Q -54.516208,-23.785905 -54.281589,-23.706413 Q -54.04697,-23.626921 -53.859795,-23.483333 L -54.026462,-23.244873 Q -54.208509,-23.370524 -54.37389,-23.432056 Q -54.539271,-23.493587 -54.752097,-23.493587 Q -54.972604,-23.493587 -55.159787,-23.391024 Q -55.34697,-23.28846 -55.461073,-23.071794 Q -55.575176,-22.855127 -55.582875,-22.516667 M -55.327739,-21.521802 Q -55.105938,-21.291032 -54.780303,-21.291032 Q -54.46235,-21.291032 -54.259787,-21.523079 Q -54.057224,-21.755127 -54.04697,-22.229492 L -55.577748,-22.229492 Q -55.549541,-21.752572 -55.327739,-21.521802" />
      <path d="M -14.342301,-23.782048 Q -14.044873,-23.98077 -13.652555,-23.98077 Q -13.273063,-23.98077 -13.014095,-23.893587 Q -12.755127,-23.806405 -12.524349,-23.688452 L -12.524349,-22.029484 L -13.675635,-22.029484 L -13.629476,-22.334611 L -12.862809,-22.334611 L -12.862809,-23.488452 Q -13.206396,-23.678198 -13.60127,-23.678198 Q -14.096143,-23.678198 -14.355119,-23.316659 Q -14.614095,-22.955119 -14.614095,-22.165389 Q -14.614095,-21.734611 -14.523071,-21.444865 Q -14.432048,-21.155119 -14.280762,-20.983325 Q -14.129476,-20.811532 -13.941016,-20.735889 Q -13.752555,-20.660246 -13.557682,-20.660246 Q -13.106396,-20.660246 -12.793587,-20.95769 L -12.575635,-20.732056 Q -12.783333,-20.54231 -12.998714,-20.45 Q -13.214095,-20.35769 -13.547428,-20.35769 Q -13.814095,-20.35769 -14.069222,-20.46923 Q -14.324349,-20.58077 -14.528198,-20.806413 Q -14.732048,-21.032056 -14.852555,-21.371794 Q -14.973063,-21.711532 -14.973063,-22.167944 Q -14.973063,-22.778198 -14.806396,-23.180762 Q -14.63973,-23.583325 -14.342301,-23.782048" />
      <path d="M -11.578206,-23.929484 L -10.267952,-23.929484 L -10.267952,-23.662817 L -10.821794,-23.662817 L -10.821794,-22.411532 Q -10.678206,-21.932056 -10.45,-21.710254 Q -10.221794,-21.488452 -9.896143,-21.488452 Q -9.862809,-21.488452 -9.832048,-21.491024 L -9.837174,-21.55769 L -9.837174,-22.083325 L -9.529476,-22.083325 L -9.493587,-21.237183 Q -9.585889,-21.214103 -9.669222,-21.198714 Q -9.752555,-21.183325 -9.857682,-21.183325 Q -10.234619,-21.183325 -10.456413,-21.369222 Q -10.678206,-21.555119 -10.837174,-21.883325 L -10.896143,-21.237183 L -11.578206,-21.237183 L -11.578206,-21.506405 L -11.139746,-21.506405 L -11.139746,-23.662817 L -11.578206,-23.662817 L -11.578206,-23.929484" />
      <path d="M -7.247428,-21.237183 L -8.391032,-21.237183 L -8.391032,-21.514103 L -7.565381,-21.514103 L -7.565381,-23.652563 L -8.416667,-23.652563 L -8.416667,-23.929484 L -6.465381,-23.929484 L -6.465381,-23.652563 L -7.247428,-23.652563 L -7.247428,-21.237183" />
      <path d="M -7.352563,-20.093587 Q -7.424365,-20.01923 -7.547428,-20.01923 Q -7.662826,-20.01923 -7.734619,-20.093587 Q -7.806413,-20.167944 -7.806413,-20.273071 Q -7.806413,-20.385897 -7.734619,-20.46154 Q -7.662826,-20.537183 -7.547428,-20.537183 Q -7.424365,-20.537183 -7.352563,-20.46154 Q -7.280762,-20.385897 -7.280762,-20.273071 Q -7.280762,-20.167944 -7.352563,-20.093587" />
      <path d="M -3.814111,-20.103849 L -3.814111,-21.526912 Q -3.952572,-21.360246 -4.137183,-21.274349 Q -4.321794,-21.188452 -4.567952,-21.188452 Q -4.901286,-21.188452 -5.135897,-21.371785 Q -5.370508,-21.555119 -5.494873,-21.871785 Q -5.619238,-22.188452 -5.619238,-22.591024 Q -5.619238,-23.001278 -5.508976,-23.315381 Q -5.398714,-23.629484 -5.16923,-23.805127 Q -4.939746,-23.98077 -4.583333,-23.98077 Q -4.373079,-23.98077 -4.174357,-23.884611 Q -3.975635,-23.788452 -3.814111,-23.55769 L -3.773079,-23.929484 L -3.496159,-23.929484 L -3.496159,-20.147437 L -3.814111,-20.103849 M -5.06154,-21.746151 Q -4.862826,-21.462817 -4.48846,-21.462817 Q -4.283333,-21.462817 -4.10769,-21.562817 Q -3.932048,-21.662817 -3.814111,-21.844865 L -3.814111,-23.244865 Q -3.929492,-23.416659 -4.107699,-23.560254 Q -4.285905,-23.703849 -4.542301,-23.703849 Q -4.898714,-23.703849 -5.079484,-23.41154 Q -5.260254,-23.11923 -5.260254,-22.588452 Q -5.260254,-22.029484 -5.06154,-21.746151" />
      <path d="M -0.555127,-23.697437 Q -0.232048,-23.414103 -0.232048,-22.970516 Q -0.232048,-22.629484 -0.379484,-22.428198 Q -0.526921,-22.226912 -0.760254,-22.115381 Q -0.993587,-22.003849 -1.25,-21.932056 Q -1.601286,-21.829484 -1.807699,-21.73077 Q -2.014111,-21.632056 -2.101286,-21.512817 Q -2.18846,-21.393579 -2.18846,-21.229484 Q -2.18846,-21.034611 -2.083333,-20.908968 Q -1.978206,-20.783325 -1.806413,-20.720508 Q -1.634619,-20.65769 -1.432048,-20.65769 Q -1.203857,-20.65769 -0.982056,-20.734611 Q -0.760254,-20.811532 -0.567952,-20.985897 L -0.347445,-20.744865 Q -0.565381,-20.55769 -0.823079,-20.45769 Q -1.080778,-20.35769 -1.432048,-20.35769 Q -1.760254,-20.35769 -2.003849,-20.473071 Q -2.247445,-20.588452 -2.382056,-20.785889 Q -2.516667,-20.983325 -2.516667,-21.229484 Q -2.516667,-21.514103 -2.370516,-21.7 Q -2.224365,-21.885897 -1.967952,-22.00769 Q -1.71154,-22.129484 -1.383333,-22.224357 Q -1.062826,-22.316659 -0.885905,-22.417944 Q -0.708984,-22.51923 -0.639754,-22.648714 Q -0.570524,-22.778198 -0.570524,-22.962817 Q -0.570524,-23.208976 -0.698722,-23.367944 Q -0.826921,-23.526912 -1.029484,-23.603841 Q -1.232048,-23.68077 -1.457699,-23.68077 Q -1.791032,-23.68077 -2.029492,-23.576921 Q -2.267952,-23.473071 -2.447445,-23.301278 L -2.662826,-23.547437 Q -2.439746,-23.760246 -2.133333,-23.870508 Q -1.826921,-23.98077 -1.475651,-23.98077 Q -0.878206,-23.98077 -0.555127,-23.697437" />
      <path d="M 1.057682,-20.103849 L 0.73973,-20.147437 L 0.73973,-23.929484 L 1.057682,-23.929484 L 1.057682,-20.103849" />
      <path d="M 2.870508,-21.237183 L 2.396143,-21.237183 L 1.11154,-22.460246 L 2.570508,-23.929484 L 3.029476,-23.929484 L 1.560254,-22.455119 L 2.870508,-21.237183" />
      <path d="M 4.011523,-22.711532 L 5.842301,-22.711532 Q 5.844857,-22.670516 5.84742,-22.615381 Q 5.849984,-22.560246 5.849984,-22.491024 Q 5.849984,-21.888452 5.573063,-21.538452 Q 5.296143,-21.188452 4.806396,-21.188452 Q 4.467936,-21.188452 4.212809,-21.366659 Q 3.957682,-21.544865 3.814095,-21.860254 Q 3.670508,-22.175643 3.670508,-22.585897 Q 3.670508,-23.003849 3.811532,-23.317952 Q 3.952555,-23.632056 4.217936,-23.806413 Q 4.483317,-23.98077 4.855127,-23.98077 Q 5.07819,-23.98077 5.312809,-23.901278 Q 5.547428,-23.821785 5.734603,-23.678198 L 5.567936,-23.439738 Q 5.385889,-23.565389 5.220508,-23.626921 Q 5.055127,-23.688452 4.842301,-23.688452 Q 4.621794,-23.688452 4.434611,-23.585889 Q 4.247428,-23.483325 4.133325,-23.266659 Q 4.019222,-23.049992 4.011523,-22.711532 M 4.266659,-21.716667 Q 4.48846,-21.485897 4.814095,-21.485897 Q 5.132048,-21.485897 5.334611,-21.717944 Q 5.537174,-21.949992 5.547428,-22.424357 L 4.01665,-22.424357 Q 4.044857,-21.947437 4.266659,-21.716667" />
      <path d="M 8.911523,-23.801278 L 8.773063,-23.573071 Q 8.660238,-23.632056 8.529476,-23.667952 Q 8.398714,-23.703849 8.244857,-23.703849 Q 7.944857,-23.703849 7.817936,-23.576921 Q 7.691016,-23.449992 7.691016,-23.216659 L 7.691016,-21.503849 L 8.596143,-21.503849 L 8.63973,-21.237183 L 7.691016,-21.237183 L 7.691016,-20.578198 L 7.373063,-20.616659 L 7.373063,-21.237183 L 6.737174,-21.237183 L 6.737174,-21.503849 L 7.373063,-21.503849 L 7.373063,-23.224357 Q 7.373063,-23.549992 7.602555,-23.765381 Q 7.832048,-23.98077 8.237174,-23.98077 Q 8.398714,-23.98077 8.588452,-23.934611 Q 8.77819,-23.888452 8.911523,-23.801278" />
      <path d="M 11.487158,-23.621785 Q 11.303825,-23.688452 11.088444,-23.688452 Q 10.71665,-23.688452 10.474341,-23.423071 Q 10.232031,-23.15769 10.232031,-22.593579 Q 10.232031,-22.034611 10.474341,-21.752563 Q 10.71665,-21.470516 11.088444,-21.470516 Q 11.442301,-21.470516 11.808968,-21.721785 L 11.97819,-21.493579 Q 11.598698,-21.188452 11.103825,-21.188452 Q 10.708968,-21.188452 10.435889,-21.373071 Q 10.162809,-21.55769 10.0205,-21.875635 Q 9.87819,-22.193579 9.87819,-22.593579 Q 9.87819,-23.226912 10.196143,-23.603841 Q 10.514095,-23.98077 11.10127,-23.98077 Q 11.31665,-23.98077 11.562809,-23.897437 Q 11.808968,-23.814103 11.985889,-23.665389 L 11.819222,-23.449992 Q 11.670492,-23.555119 11.487158,-23.621785" />
      <path d="M 13.329476,-20.116659 L 13.011523,-20.155119 L 13.011523,-23.929484 L 13.329476,-23.929484 L 13.329476,-21.937183 Q 13.398698,-21.829484 13.519214,-21.717944 Q 13.63973,-21.606405 13.796143,-21.529484 Q 13.952555,-21.452563 14.126904,-21.452563 Q 14.655111,-21.452563 14.655111,-21.924357 L 14.655111,-23.929484 L 14.973063,-23.929484 L 14.973063,-21.98077 Q 14.973063,-21.608976 14.793571,-21.398714 Q 14.614079,-21.188452 14.208952,-21.188452 Q 13.967936,-21.188452 13.726912,-21.301278 Q 13.485889,-21.414103 13.329476,-21.634611 L 13.329476,-20.116659" />
      <path d="M 44.930319,-23.187183 Q 45.253399,-22.903849 45.253399,-22.460262 Q 45.253399,-22.11923 45.105962,-21.917944 Q 44.958526,-21.716659 44.725192,-21.605127 Q 44.491859,-21.493595 44.235446,-21.421802 Q 43.88416,-21.31923 43.677748,-21.220516 Q 43.471335,-21.121802 43.38416,-21.002563 Q 43.296986,-20.883325 43.296986,-20.71923 Q 43.296986,-20.524357 43.402113,-20.398714 Q 43.50724,-20.273071 43.679033,-20.210254 Q 43.850827,-20.147437 44.053399,-20.147437 Q 44.281589,-20.147437 44.503391,-20.224357 Q 44.725192,-20.301278 44.917494,-20.475643 L 45.138002,-20.234611 Q 44.920065,-20.047437 44.662367,-19.947437 Q 44.404668,-19.847437 44.053399,-19.847437 Q 43.725192,-19.847437 43.481597,-19.962817 Q 43.238002,-20.078198 43.103391,-20.275635 Q 42.96878,-20.473071 42.96878,-20.71923 Q 42.96878,-21.003849 43.11493,-21.189746 Q 43.261081,-21.375643 43.517494,-21.497437 Q 43.773906,-21.61923 44.102113,-21.714103 Q 44.422621,-21.806405 44.599541,-21.90769 Q 44.776462,-22.008976 44.845692,-22.13846 Q 44.914922,-22.267944 44.914922,-22.452563 Q 44.914922,-22.698722 44.786724,-22.85769 Q 44.658526,-23.016659 44.455962,-23.093587 Q 44.253399,-23.170516 44.027748,-23.170516 Q 43.694414,-23.170516 43.455954,-23.066667 Q 43.217494,-22.962817 43.038002,-22.791024 L 42.822621,-23.037183 Q 43.0457,-23.249992 43.352113,-23.360254 Q 43.658526,-23.470516 44.009795,-23.470516 Q 44.60724,-23.470516 44.930319,-23.187183" />
      <path d="M 48.243128,-23.291024 L 48.104668,-23.062817 Q 47.991843,-23.121802 47.861081,-23.157699 Q 47.730319,-23.193595 47.576462,-23.193595 Q 47.276462,-23.193595 47.149541,-23.066667 Q 47.022621,-22.939738 47.022621,-22.706405 L 47.022621,-20.993595 L 47.927748,-20.993595 L 47.971335,-20.726929 L 47.022621,-20.726929 L 47.022621,-20.067944 L 46.704668,-20.106405 L 46.704668,-20.726929 L 46.06878,-20.726929 L 46.06878,-20.993595 L 46.704668,-20.993595 L 46.704668,-22.714103 Q 46.704668,-23.039738 46.93416,-23.255127 Q 47.163653,-23.470516 47.56878,-23.470516 Q 47.730319,-23.470516 47.920057,-23.424357 Q 48.109795,-23.378198 48.243128,-23.291024" />
      <path d="M 51.094414,-22.888468 L 51.094414,-21.524357 Q 51.094414,-21.14231 50.852105,-20.910254 Q 50.609795,-20.678198 50.13543,-20.678198 Q 49.948255,-20.678198 49.749541,-20.714095 Q 49.550827,-20.749992 49.30724,-20.839738 L 49.399541,-21.101278 Q 49.609795,-21.026929 49.781589,-20.996159 Q 49.953382,-20.965389 50.089287,-20.965389 Q 50.402097,-20.965389 50.582866,-21.09231 Q 50.763636,-21.21923 50.763636,-21.534611 L 50.763636,-21.796151 L 50.355954,-21.796151 Q 49.7457,-21.796151 49.42647,-22.014103 Q 49.10724,-22.232056 49.10724,-22.64231 Q 49.10724,-23.01923 49.335438,-23.244873 Q 49.563636,-23.470516 49.963636,-23.470516 Q 50.50724,-23.470516 50.794414,-23.085897 Q 50.843128,-23.270516 50.963644,-23.360254 Q 51.08416,-23.449992 51.238002,-23.473071 L 51.325176,-23.239738 Q 51.20724,-23.203849 51.150827,-23.128206 Q 51.094414,-23.052563 51.094414,-22.888468 M 50.438002,-23.108968 Q 50.2457,-23.216659 50.025176,-23.216659 Q 49.458509,-23.216659 49.458509,-22.652563 Q 49.458509,-22.375643 49.648255,-22.20769 Q 49.838002,-22.039738 50.317494,-22.039738 L 50.763636,-22.039738 L 50.763636,-22.808976 Q 50.630303,-23.001278 50.438002,-23.108968" />
      <path d="M 53.895684,-23.111532 Q 53.71235,-23.178198 53.49697,-23.178198 Q 53.125176,-23.178198 52.882866,-22.912817 Q 52.640557,-22.647437 52.640557,-22.083325 Q 52.640557,-21.524357 52.882866,-21.24231 Q 53.125176,-20.960262 53.49697,-20.960262 Q 53.850827,-20.960262 54.217494,-21.211532 L 54.386716,-20.983325 Q 54.007224,-20.678198 53.51235,-20.678198 Q 53.117494,-20.678198 52.844414,-20.862817 Q 52.571335,-21.047437 52.429025,-21.365381 Q 52.286716,-21.683325 52.286716,-22.083325 Q 52.286716,-22.716659 52.604668,-23.093587 Q 52.922621,-23.470516 53.509795,-23.470516 Q 53.725176,-23.470516 53.971335,-23.387183 Q 54.217494,-23.303849 54.394414,-23.155135 L 54.227748,-22.939738 Q 54.079017,-23.044865 53.895684,-23.111532" />
      <path d="M 55.77389,-19.593595 L 55.455938,-19.637183 L 55.455938,-23.41923 L 55.77389,-23.41923 L 55.77389,-19.593595" />
      <path d="M 57.586716,-20.726929 L 57.11235,-20.726929 L 55.827748,-21.949992 L 57.286716,-23.41923 L 57.745684,-23.41923 L 56.276462,-21.944865 L 57.586716,-20.726929" />
      <path d="M 59.671327,-19.583333 Q 59.599525,-19.508976 59.476462,-19.508976 Q 59.361065,-19.508976 59.289271,-19.583333 Q 59.217477,-19.65769 59.217477,-19.762817 Q 59.217477,-19.875643 59.289271,-19.951286 Q 59.361065,-20.026929 59.476462,-20.026929 Q 59.599525,-20.026929 59.671327,-19.951286 Q 59.743128,-19.875643 59.743128,-19.762817 Q 59.743128,-19.65769 59.671327,-19.583333" />
      <path d="M 59.776462,-20.726929 L 58.632858,-20.726929 L 58.632858,-21.003849 L 59.458509,-21.003849 L 59.458509,-23.14231 L 58.607224,-23.14231 L 58.607224,-23.41923 L 60.558509,-23.41923 L 60.558509,-23.14231 L 59.776462,-23.14231 L 59.776462,-20.726929" />
      <path d="M 61.57389,-23.41923 L 61.891843,-23.41923 L 61.891843,-21.434611 Q 61.961065,-21.326929 62.080295,-21.212826 Q 62.199525,-21.098722 62.357224,-21.020516 Q 62.514922,-20.94231 62.694398,-20.94231 Q 62.930303,-20.94231 63.040557,-21.03077 Q 63.150811,-21.11923 63.184144,-21.31154 Q 63.217477,-21.503849 63.217477,-21.811532 L 63.217477,-23.41923 L 63.53543,-23.41923 L 63.53543,-21.470516 Q 63.53543,-21.098722 63.359787,-20.88846 Q 63.184144,-20.678198 62.771319,-20.678198 Q 62.545684,-20.678198 62.28543,-20.793587 Q 62.025176,-20.908976 61.866192,-21.11923 L 61.840557,-20.726929 L 61.57389,-20.726929 L 61.57389,-23.41923" />
      <path d="M 66.89697,-20.832056 L 66.779017,-20.483325 Q 66.622604,-20.544865 66.477731,-20.585897 Q 66.332858,-20.626929 66.123882,-20.648722 Q 65.914906,-20.670516 65.563636,-20.675643 Q 65.255938,-20.675643 65.022604,-20.796151 Q 64.789271,-20.916659 64.658501,-21.124357 Q 64.527731,-21.332056 64.527731,-21.596151 Q 64.527731,-22.098722 64.971319,-22.332056 Q 64.679017,-22.526929 64.679017,-22.791024 Q 64.679017,-22.985897 64.832858,-23.137183 Q 64.986699,-23.288468 65.309779,-23.288468 L 65.807224,-23.288468 Q 66.084144,-23.288468 66.281581,-23.393595 Q 66.479017,-23.498722 66.479017,-23.711532 Q 66.479017,-24.196151 65.555938,-24.196151 Q 65.240557,-24.196151 65.071327,-24.141024 Q 64.902097,-24.085897 64.836708,-23.975643 Q 64.771319,-23.865389 64.771319,-23.696151 L 64.479017,-23.696151 Q 64.479017,-24.111532 64.720041,-24.301278 Q 64.961065,-24.491024 65.566192,-24.491024 Q 66.148239,-24.491024 66.477731,-24.287174 Q 66.807224,-24.083325 66.807224,-23.691024 Q 66.807224,-23.488468 66.682866,-23.326929 Q 66.558509,-23.165389 66.34697,-23.070516 Q 66.13543,-22.975643 65.876446,-22.975643 L 65.379017,-22.975643 Q 65.166192,-22.975643 65.082858,-22.906413 Q 64.999525,-22.837183 64.999525,-22.732056 Q 64.999525,-22.644865 65.044398,-22.565381 Q 65.089271,-22.485897 65.153366,-22.437183 Q 65.243112,-22.467944 65.337985,-22.482048 Q 65.432858,-22.496151 65.584144,-22.496151 Q 66.048239,-22.496151 66.303374,-22.237174 Q 66.558509,-21.978198 66.558509,-21.575643 Q 66.558509,-21.355135 66.445684,-21.182056 Q 66.332858,-21.008976 66.104652,-20.903849 Q 66.325176,-20.903849 66.520041,-20.893587 Q 66.714906,-20.883325 66.89697,-20.832056 M 65.02389,-21.11923 Q 65.191843,-20.926929 65.555938,-20.926929 Q 65.881572,-20.926929 66.045676,-21.098722 Q 66.209779,-21.270516 66.209779,-21.598722 Q 66.209779,-21.916659 66.045676,-22.096151 Q 65.881572,-22.275643 65.571319,-22.275643 Q 65.199525,-22.275643 65.027731,-22.082056 Q 64.855938,-21.888468 64.855938,-21.601278 Q 64.855938,-21.311532 65.02389,-21.11923" />
      <path d="M 67.92516,-23.41923 L 69.845684,-23.41923 L 69.886699,-23.101278 L 68.253366,-23.101278 L 68.253366,-19.896151 L 67.92516,-19.896151 L 67.92516,-23.41923" />
      <path d="M 71.979009,-19.583333 Q 71.907207,-19.508976 71.784144,-19.508976 Q 71.668747,-19.508976 71.596953,-19.583333 Q 71.52516,-19.65769 71.52516,-19.762817 Q 71.52516,-19.875643 71.596953,-19.951286 Q 71.668747,-20.026929 71.784144,-20.026929 Q 71.907207,-20.026929 71.979009,-19.951286 Q 72.050811,-19.875643 72.050811,-19.762817 Q 72.050811,-19.65769 71.979009,-19.583333" />
      <path d="M 72.084144,-20.726929 L 70.940541,-20.726929 L 70.940541,-21.003849 L 71.766192,-21.003849 L 71.766192,-23.14231 L 70.914906,-23.14231 L 70.914906,-23.41923 L 72.866192,-23.41923 L 72.866192,-23.14231 L 72.084144,-23.14231 L 72.084144,-20.726929" />
      <path d="M 75.573882,-20.852563 Q 75.361065,-20.678198 74.999525,-20.678198 Q 74.740541,-20.678198 74.531572,-20.798714 Q 74.322604,-20.91923 74.179001,-21.124357 L 74.143112,-20.726929 L 73.881572,-20.726929 L 73.881572,-24.491024 L 74.199525,-24.447437 L 74.199525,-23.149992 Q 74.473874,-23.470516 74.932858,-23.470516 Q 75.289271,-23.470516 75.518755,-23.289746 Q 75.748239,-23.108976 75.859779,-22.793587 Q 75.971319,-22.478198 75.971319,-22.073071 Q 75.971319,-21.655135 75.879009,-21.341032 Q 75.786699,-21.026929 75.573882,-20.852563 M 74.504652,-21.099992 Q 74.694398,-20.949992 74.943112,-20.949992 Q 75.296953,-20.949992 75.459779,-21.241024 Q 75.622604,-21.532056 75.622604,-22.067944 Q 75.622604,-23.18077 74.881572,-23.18077 Q 74.671319,-23.18077 74.491826,-23.08077 Q 74.312334,-22.98077 74.199525,-22.814103 L 74.199525,-21.41923 Q 74.314906,-21.249992 74.504652,-21.099992" />
    </g>
  </g>
</svg>