<?xml version='1.0' encoding='utf-8'?>
<svg width="200.09mm" height="54.820039mm" viewBox="-146.644851 -38.966691 263.591217 72.217906" version="1.1" xmlns="http://www.w3.org/2000/svg">
  <g transform="scale(1,-1)" stroke-linecap="round">
    <g fill="none" stroke="rgb(240,246,252)" stroke-width="0.11856269465528861" id="visible">
      <path d="M -114.737085,-16.493231 A 1.6000000000000005,0.9237604307034016 -7.78718065295739e-16 0,1 -114.268456,-17.146428" />
      <path d="M -89.66114,-31.353469 A 0.8000000000000015,0.46188021535170154 -7.78718065295739e-16 0,1 -88.529769,-31.353469" />
      <line x1="-115.788735" y1="-11.737138" x2="-91.747105" y2="2.143304" />
      <line x1="-114.268456" y1="-17.146428" x2="-90.226825" y2="-31.02687" />
      <line x1="-90.226825" y1="-31.02687" x2="-89.66114" y2="-31.353469" />
      <path d="M -90.226825,-31.02687 A 1.6000000000000005,0.9237604307034016 -7.78718065295739e-16 0,1 -87.964084,-31.02687" />
      <line x1="-87.964084" y1="-31.02687" x2="-88.529769" y2="-31.353469" />
      <line x1="-87.964084" y1="-31.02687" x2="-63.922453" y2="-17.146428" />
      <path d="M -63.922453,-17.146428 A 1.6000000000000005,0.9237604307034016 -7.78718065295739e-16 0,1 -63.453824,-16.493231" />
      <line x1="-91.747105" y1="-28.679443" x2="-90.226825" y2="-29.557176" />
      <path d="M -115.788735,-11.737138 A 3.75,2.165063509461097 -7.78718065295739e-16 0,1 -115.788735,-14.799001" />
      <path d="M -86.443804,2.143304 A 3.75,2.165063509461097 -7.78718065295739e-16 0,1 -91.747105,2.143304" />
      <line x1="-115.788735" y1="-14.799001" x2="-91.747105" y2="-28.679442" />
      <path d="M -91.747105,-28.679442 A 3.75,2.165063509461097 -7.78718065295739e-16 0,1 -86.443804,-28.679442" />
      <line x1="-86.443804" y1="-28.679442" x2="-62.402173" y2="-14.799001" />
      <path d="M -62.402173,-14.799001 A 3.75,2.165063509461097 -7.78718065295739e-16 0,1 -62.402173,-11.737138" />
      <line x1="-86.443804" y1="2.143304" x2="-62.402173" y2="-11.737138" />
      <path d="M -90.226825,-29.557176 A 1.6000000000000005,0.9237604307034016 -7.78718065295739e-16 0,1 -87.964084,-29.557176" />
      <line x1="-87.964084" y1="-29.557176" x2="-63.922453" y2="-15.676734" />
      <line x1="-91.747105" y1="-28.679442" x2="-90.226825" y2="-29.557176" />
      <line x1="-86.443804" y1="-28.679442" x2="-87.964084" y2="-29.557176" />
      <path d="M -89.66114,2.939388 A 0.8000000000000015,0.46188021535170154 -7.78718065295739e-16 0,1 -88.529769,2.939388" />
      <line x1="-115.788735" y1="22.555718" x2="-91.747105" y2="36.43616" />
      <line x1="-91.012411" y1="3.719544" x2="-90.226825" y2="3.265986" />
      <line x1="-90.226825" y1="3.265986" x2="-89.66114" y2="2.939388" />
      <path d="M -90.226825,3.265986 A 1.6000000000000005,0.9237604307034016 -7.78718065295739e-16 0,1 -87.964084,3.265986" />
      <line x1="-87.964084" y1="3.265986" x2="-88.529769" y2="2.939388" />
      <line x1="-87.964084" y1="3.265986" x2="-63.922453" y2="17.146428" />
      <path d="M -63.922453,17.146428 A 1.6000000000000005,0.9237604307034016 -7.78718065295739e-16 0,1 -63.453824,17.799625" />
      <line x1="-114.268456" y1="18.616122" x2="-90.226825" y2="4.73568" />
      <path d="M -115.788735,22.555718 A 3.75,2.165063509461097 -7.78718065295739e-16 0,1 -115.788735,19.493856" />
      <path d="M -86.443804,36.43616 A 3.75,2.165063509461097 -7.78718065295739e-16 0,1 -91.747105,36.43616" />
      <line x1="-115.788735" y1="19.493856" x2="-91.747105" y2="5.613414" />
      <path d="M -91.747105,5.613414 A 3.75,2.165063509461097 -7.78718065295739e-16 0,1 -86.443804,5.613414" />
      <line x1="-86.443804" y1="5.613414" x2="-62.402173" y2="19.493856" />
      <path d="M -62.402173,19.493856 A 3.75,2.165063509461097 -7.78718065295739e-16 0,1 -62.402173,22.555718" />
      <line x1="-86.443804" y1="36.43616" x2="-62.402173" y2="22.555718" />
      <path d="M -90.226825,4.73568 A 1.6000000000000005,0.9237604307034016 -7.78718065295739e-16 0,1 -87.964084,4.73568" />
      <line x1="-87.964084" y1="4.73568" x2="-86.443804" y2="5.613414" />
      <line x1="-91.747105" y1="5.613414" x2="-90.226825" y2="4.73568" />
      <line x1="-86.443804" y1="5.613414" x2="-87.964084" y2="4.73568" />
      <path d="M -144.43557,0.653197 A 1.6000000000000005,0.9237604307034016 -7.78718065295739e-16 0,1 -143.966941,-0.0" />
      <path d="M -119.359625,-14.207041 A 0.8000000000000015,0.46188021535170154 -7.78718065295739e-16 0,1 -118.228254,-14.207041" />
      <line x1="-145.48722" y1="5.40929" x2="-121.44559" y2="19.289732" />
      <line x1="-143.966941" y1="0.0" x2="-119.92531" y2="-13.880442" />
      <line x1="-119.92531" y1="-13.880442" x2="-119.359625" y2="-14.207041" />
      <path d="M -119.92531,-13.880442 A 1.6000000000000005,0.9237604307034016 -7.78718065295739e-16 0,1 -117.662568,-13.880442" />
      <line x1="-117.662568" y1="-13.880442" x2="-118.228254" y2="-14.207041" />
      <line x1="-117.662568" y1="-13.880442" x2="-116.876983" y2="-13.426884" />
      <line x1="-121.445589" y1="-11.533014" x2="-119.92531" y2="-12.410748" />
      <path d="M -145.48722,5.40929 A 3.75,2.165063509461097 -7.78718065295739e-16 0,1 -145.48722,2.347428" />
      <path d="M -116.142289,19.289732 A 3.75,2.165063509461097 -7.78718065295739e-16 0,1 -121.44559,19.289732" />
      <line x1="-145.48722" y1="2.347428" x2="-121.44559" y2="-11.533014" />
      <path d="M -121.44559,-11.533014 A 3.75,2.165063509461097 -7.78718065295739e-16 0,1 -116.142289,-11.533014" />
      <line x1="-116.142289" y1="-11.533014" x2="-92.100658" y2="2.347428" />
      <path d="M -92.100658,2.347428 A 3.75,2.165063509461097 -7.78718065295739e-16 0,1 -92.100658,5.40929" />
      <line x1="-116.142289" y1="19.289732" x2="-92.100658" y2="5.40929" />
      <path d="M -119.92531,-12.410748 A 1.6000000000000005,0.9237604307034016 -7.78718065295739e-16 0,1 -117.662568,-12.410748" />
      <line x1="-117.662568" y1="-12.410748" x2="-116.142289" y2="-11.533014" />
      <line x1="-121.44559" y1="-11.533014" x2="-119.92531" y2="-12.410748" />
      <line x1="-116.142289" y1="-11.533014" x2="-117.662568" y2="-12.410748" />
      <line x1="2.65165" y1="-32.557801" x2="26.693281" y2="-18.677359" />
      <line x1="2.65165" y1="-26.842325" x2="26.693281" y2="-12.961883" />
      <path d="M 26.693281,-18.677359 A 3.75,2.165063509461097 -7.78718065295739e-16 0,1 27.791631,-17.146428" />
      <path d="M 26.693281,-12.961883 A 3.75,2.165063509461097 -7.78718065295739e-16 0,1 27.791631,-11.430952" />
      <path d="M 27.791631,-11.430952 A 3.75,2.165063509461097 -7.78718065295739e-16 0,1 26.693281,-9.900021" />
      <line x1="2.298097" y1="4.184545" x2="26.693281" y2="-9.900021" />
      <path d="M 2.298097,7.246407 A 3.75,2.165063509461097 -7.78718065295739e-16 0,1 1.199747,5.715476" />
      <path d="M 1.199747,5.715476 A 3.75,2.165063509461097 -7.78718065295739e-16 0,1 2.298097,4.184545" />
      <line x1="4.596194" y1="2.857738" x2="26.693281" y2="15.615497" />
      <line x1="2.298097" y1="7.246407" x2="26.693281" y2="21.330973" />
      <path d="M 26.693281,15.615497 A 3.75,2.165063509461097 -7.78718065295739e-16 0,1 27.791631,17.146428" />
      <path d="M 26.693281,21.330973 A 3.75,2.165063509461097 -7.78718065295739e-16 0,1 27.791631,22.861904" />
      <path d="M 27.791631,22.861904 A 3.75,2.165063509461097 -7.78718065295739e-16 0,1 26.693281,24.392835" />
      <line x1="2.65165" y1="38.273277" x2="26.693281" y2="24.392835" />
      <path d="M 2.65165,38.273277 A 3.75,2.165063509461097 -7.78718065295739e-16 0,1 -2.65165,38.273277" />
      <line x1="-2.65165" y1="38.273277" x2="-56.391766" y2="7.246407" />
      <path d="M -57.490115,-0.0 A 3.75,2.165063509461097 -7.78718065295739e-16 0,1 -56.391766,-1.530931" />
      <path d="M -56.391766,7.246407 A 3.75,2.165063509461097 -7.78718065295739e-16 0,1 -57.490115,5.715476" />
      <path d="M -57.490115,5.715476 A 3.75,2.165063509461097 -7.78718065295739e-16 0,1 -56.391766,4.184545" />
      <line x1="-56.391766" y1="-1.530931" x2="-2.65165" y2="-32.557801" />
      <line x1="-56.391766" y1="4.184545" x2="-2.65165" y2="-26.842325" />
      <path d="M -2.65165,-32.557801 A 3.75,2.165063509461097 -7.78718065295739e-16 0,1 2.65165,-32.557801" />
      <path d="M -2.65165,-26.842325 A 3.75,2.165063509461097 -7.78718065295739e-16 0,1 2.65165,-26.842325" />
      <line x1="91.747105" y1="-32.557801" x2="115.788735" y2="-18.677359" />
      <path d="M 86.443804,-32.557801 A 3.75,2.165063509461097 -7.78718065295739e-16 0,1 91.747105,-32.557801" />
      <line x1="91.022841" y1="-29.38337" x2="115.064471" y2="-15.502928" />
      <path d="M 115.788735,-18.677359 A 3.75,2.165063509461097 -7.78718065295739e-16 0,1 116.887085,-17.146428" />
      <line x1="32.703689" y1="-1.530931" x2="86.443804" y2="-32.557801" />
      <path d="M 31.605339,-0.0 A 3.75,2.165063509461097 -7.78718065295739e-16 0,1 32.703689,-1.530931" />
      <path d="M 91.393551,1.530931 A 3.75,2.165063509461097 -7.78718065295739e-16 0,1 91.042588,1.297023" />
      <line x1="91.393551" y1="1.530931" x2="115.788735" y2="15.615497" />
      <path d="M 115.788735,15.615497 A 3.75,2.165063509461097 -7.78718065295739e-16 0,1 116.887085,17.146428" />
      <line x1="89.555074" y1="-2.592377" x2="113.490638" y2="-16.411581" />
      <path d="M 88.395202,1.67332 A 6.349999999999999,3.666174209354123 -7.78718065295739e-16 0,1 89.555074,-2.592377" />
      <line x1="89.908627" y1="31.496356" x2="113.490638" y2="17.881275" />
      <path d="M 89.908627,31.496356 A 1.1500000000000017,0.6639528095680707 -7.78718065295739e-16 0,1 88.282282,31.496356" />
      <line x1="88.282282" y1="31.496356" x2="35.001786" y2="0.734847" />
      <line x1="115.064471" y1="-15.502928" x2="114.445233" y2="-15.860446" />
      <path d="M 114.479657,-15.840034 A 1.8500000000000003,1.068097998000808 -7.78718065295739e-16 0,1 114.445233,-15.819621" />
      <line x1="90.050049" y1="-1.735055" x2="114.445233" y2="-15.819621" />
      <path d="M 88.395202,0.571548 A 5.6499999999999995,3.2620290209213856 -7.78718065295739e-16 0,1 90.050049,-1.735055" />
      <path d="M 114.479657,18.452823 A 1.8500000000000003,1.068097998000808 -7.78718065295739e-16 0,1 114.445233,18.473235" />
      <line x1="90.403602" y1="32.353677" x2="114.445233" y2="18.473235" />
      <path d="M 90.403602,32.353677 A 1.8500000000000003,1.068097998000808 -7.78718065295739e-16 0,1 87.787307,32.353677" />
      <line x1="87.787307" y1="32.353677" x2="34.047192" y2="1.326807" />
      <path d="M 34.047192,1.326807 A 1.8500000000000003,1.068097998000808 -7.78718065295739e-16 0,1 34.012767,1.306395" />
      <line x1="33.427953" y1="1.6435" x2="87.168068" y2="-29.38337" />
      <path d="M 114.445233,-15.860446 A 1.8500000000000003,1.068097998000808 -7.78718065295739e-16 0,1 114.987085,-15.105187" />
      <path d="M 114.987085,-15.105187 A 1.8500000000000003,1.068097998000808 -7.78718065295739e-16 0,1 114.445233,-14.349927" />
      <line x1="90.669287" y1="4.705362" x2="115.064471" y2="18.789928" />
      <line x1="90.050049" y1="-0.265361" x2="114.445233" y2="-14.349927" />
      <path d="M 90.050049,4.347844 A 5.6499999999999995,3.2620290209213856 -7.78718065295739e-16 0,1 88.395202,2.041241" />
      <path d="M 88.395202,2.041241 A 5.6499999999999995,3.2620290209213856 -7.78718065295739e-16 0,1 90.050049,-0.265361" />
      <path d="M 114.445233,18.43241 A 1.8500000000000003,1.068097998000808 -7.78718065295739e-16 0,1 114.987085,19.18767" />
      <path d="M 114.987085,19.18767 A 1.8500000000000003,1.068097998000808 -7.78718065295739e-16 0,1 114.445233,19.942929" />
      <line x1="90.403602" y1="33.823371" x2="114.445233" y2="19.942929" />
      <path d="M 90.403602,33.823371 A 1.8500000000000003,1.068097998000808 -7.78718065295739e-16 0,1 87.787307,33.823371" />
      <line x1="87.787307" y1="33.823371" x2="34.047192" y2="2.796501" />
      <path d="M 34.047192,2.796501 A 1.8500000000000003,1.068097998000808 -7.78718065295739e-16 0,1 33.505339,2.041241" />
      <path d="M 33.505339,2.041241 A 1.8500000000000003,1.068097998000808 -7.78718065295739e-16 0,1 34.047192,1.285982" />
      <line x1="90.669287" y1="4.705362" x2="90.050049" y2="4.347844" />
      <line x1="-114.268456" y1="-15.676734" x2="-114.268456" y2="-17.146428" />
      <line x1="-90.226825" y1="-29.557176" x2="-90.226825" y2="-31.02687" />
      <line x1="-87.964084" y1="-29.557176" x2="-87.964084" y2="-31.02687" />
      <line x1="-63.922453" y1="-15.676734" x2="-63.922453" y2="-17.146428" />
      <line x1="-114.268456" y1="18.616122" x2="-114.268456" y2="18.207874" />
      <line x1="-90.226825" y1="4.73568" x2="-90.226825" y2="3.265986" />
      <line x1="-87.964084" y1="4.73568" x2="-87.964084" y2="3.265986" />
      <line x1="-63.922453" y1="18.616122" x2="-63.922453" y2="17.146428" />
      <line x1="-143.966941" y1="1.469694" x2="-143.966941" y2="0.0" />
      <line x1="-119.92531" y1="-12.410748" x2="-119.92531" y2="-13.880442" />
      <line x1="-117.662568" y1="-12.410748" x2="-117.662568" y2="-13.880442" />
      <line x1="-93.620938" y1="1.469694" x2="-93.620938" y2="1.061446" />
      <line x1="2.65165" y1="-32.557801" x2="2.65165" y2="-26.842325" />
      <line x1="26.693281" y1="-18.677359" x2="26.693281" y2="-12.961883" />
      <line x1="2.298097" y1="4.184545" x2="2.298097" y2="7.246407" />
      <line x1="26.693281" y1="15.615497" x2="26.693281" y2="21.330973" />
      <line x1="-56.391766" y1="-1.530931" x2="-56.391766" y2="4.184545" />
      <line x1="-2.65165" y1="-32.557801" x2="-2.65165" y2="-26.842325" />
      <line x1="91.747105" y1="-32.557801" x2="91.747105" y2="-30.147934" />
      <line x1="91.747105" y1="-30.147934" x2="115.788735" y2="-16.267493" />
      <line x1="115.788735" y1="-18.677359" x2="115.788735" y2="-16.267493" />
      <line x1="86.443804" y1="-32.557801" x2="86.443804" y2="-30.147934" />
      <path d="M 86.443804,-30.147934 C 87.136138,-30.550914 88.112355,-30.784365 89.095454,-30.782067 C 90.078553,-30.784365 91.054771,-30.550914 91.747105,-30.147934" />
      <path d="M 91.747105,-30.147934 A 0.6,0.3464101615137755 119.99999999999999 0,1 91.022841,-29.38337" />
      <path d="M 115.788735,-16.267493 A 0.6,0.3464101615137755 119.99999999999999 0,1 115.064471,-15.502928" />
      <path d="M 115.788735,-16.267493 C 116.486717,-15.867774 116.891066,-15.304154 116.887085,-14.736562" />
      <line x1="32.703689" y1="-1.530931" x2="32.703689" y2="0.878936" />
      <line x1="32.703689" y1="0.878936" x2="86.443804" y2="-30.147934" />
      <path d="M 86.443804,-30.147934 A 0.6,0.3464101615137755 60.00000000000001 0,0 87.168068,-29.38337" />
      <path d="M 87.168068,-29.38337 C 87.6713,-29.676281 88.380876,-29.845968 89.095454,-29.844297 C 89.810033,-29.845968 90.519609,-29.676281 91.022841,-29.38337" />
      <path d="M 115.064471,-15.502928 C 115.571808,-15.212387 115.865715,-14.802713 115.862821,-14.390151 C 115.865715,-13.977589 115.571808,-13.567915 115.064471,-13.277374" />
      <path d="M 115.664471,-12.930964 C 115.58614,-12.885004 115.475698,-12.895945 115.364471,-12.960681 C 115.253245,-13.024377 115.142799,-13.14097 115.064471,-13.277374" />
      <path d="M 31.605339,2.409867 C 31.601358,1.842274 32.005707,1.278655 32.703689,0.878936" />
      <line x1="91.393551" y1="1.530931" x2="91.393551" y2="3.940798" />
      <path d="M 90.295202,2.409867 C 90.291221,2.977459 90.69557,3.541079 91.393551,3.940798" />
      <line x1="91.393551" y1="3.940798" x2="115.788735" y2="18.025364" />
      <line x1="115.788735" y1="15.615497" x2="115.788735" y2="18.025364" />
      <path d="M 115.788735,18.025364 C 116.486717,18.425083 116.891066,18.988702 116.887085,19.556295" />
      <line x1="114.445233" y1="-15.819621" x2="114.409877" y2="-15.880858" />
      <line x1="90.050049" y1="-1.735055" x2="89.555074" y2="-2.592377" />
      <line x1="114.445233" y1="18.473235" x2="114.409877" y2="18.411998" />
      <line x1="90.403602" y1="32.353677" x2="89.908627" y2="31.496356" />
      <line x1="87.787307" y1="32.353677" x2="88.282282" y2="31.496356" />
      <line x1="34.047192" y1="1.326807" x2="34.082547" y2="1.26557" />
      <path d="M 32.703689,0.878936 C 32.701593,1.071417 32.809816,1.320928 32.965594,1.482753 C 33.119767,1.648125 33.310824,1.714547 33.427953,1.6435" />
      <line x1="115.064471" y1="-13.277374" x2="114.445233" y2="-14.349927" />
      <line x1="115.064471" y1="-13.277374" x2="90.669287" y2="0.807192" />
      <path d="M 91.269287,1.153602 A 0.6,0.3464101615137755 -119.99999999999999 0,1 90.669287,0.807192" />
      <path d="M 32.827953,4.215464 A 0.6,0.3464101615137755 -60.00000000000001 0,0 33.427953,3.869054" />
      <path d="M 33.427953,3.869054 C 32.920616,3.578513 32.626709,3.168839 32.629603,2.756277 C 32.626709,2.343715 32.920616,1.934041 33.427953,1.6435" />
      <path d="M 90.669287,0.807192 C 89.780662,1.316089 89.265869,2.033654 89.270938,2.756277 C 89.265869,3.4789 89.780662,4.196465 90.669287,4.705362" />
      <path d="M 91.393551,3.940798 C 91.395647,4.133279 91.287424,4.38279 91.131646,4.544616 C 90.977473,4.709987 90.786417,4.776409 90.669287,4.705362" />
      <path d="M 86.568068,35.242334 C 86.646399,35.288294 86.756841,35.277354 86.868068,35.212617 C 86.979295,35.148921 87.08974,35.032328 87.168068,34.895924" />
      <line x1="87.168068" y1="34.895924" x2="33.427953" y2="3.869054" />
      <path d="M 115.788735,18.025364 A 0.6,0.3464101615137755 119.99999999999999 0,1 115.064471,18.789928" />
      <path d="M 91.622841,35.242334 A 0.6,0.3464101615137755 -119.99999999999999 0,1 91.022841,34.895924" />
      <path d="M 91.022841,34.895924 C 90.519609,35.188835 89.810033,35.358522 89.095454,35.356851 C 88.380876,35.358522 87.6713,35.188835 87.168068,34.895924" />
      <path d="M 115.064471,18.789928 C 115.571808,19.080469 115.865715,19.490143 115.862821,19.902705 C 115.865715,20.315267 115.571808,20.724941 115.064471,21.015482" />
      <path d="M 115.664471,21.361892 C 115.58614,21.407852 115.475698,21.396912 115.364471,21.332175 C 115.253245,21.268479 115.142799,21.151886 115.064471,21.015482" />
      <line x1="115.064471" y1="21.015482" x2="91.022841" y2="34.895924" />
      <line x1="114.445233" y1="-14.349927" x2="114.445233" y2="-15.819621" />
      <line x1="90.050049" y1="-0.265361" x2="90.050049" y2="-1.735055" />
      <line x1="114.445233" y1="19.942929" x2="114.445233" y2="18.473235" />
      <line x1="90.403602" y1="33.823371" x2="90.403602" y2="32.353677" />
      <line x1="87.787307" y1="33.823371" x2="87.787307" y2="32.353677" />
      <line x1="34.047192" y1="2.796501" x2="34.047192" y2="1.326807" />
      <line x1="90.669287" y1="0.807192" x2="90.050049" y2="-0.265361" />
      <line x1="33.427953" y1="3.869054" x2="34.047192" y2="2.796501" />
      <line x1="87.168068" y1="34.895924" x2="87.787307" y2="33.823371" />
      <line x1="91.022841" y1="34.895924" x2="90.403602" y2="33.823371" />
      <line x1="115.064471" y1="21.015482" x2="114.445233" y2="19.942929" />
      <line x1="-114.737085" y1="-16.493231" x2="-114.737085" y2="-15.406171" />
      <line x1="-63.453824" y1="-16.493231" x2="-63.453824" y2="-15.406171" />
      <line x1="-114.737085" y1="18.478437" x2="-114.737085" y2="18.886685" />
      <line x1="-63.453824" y1="17.799625" x2="-63.453824" y2="18.886685" />
      <line x1="-144.43557" y1="0.653197" x2="-144.43557" y2="1.740257" />
      <line x1="-93.152309" y1="1.332009" x2="-93.152309" y2="1.740257" />
      <line x1="27.791631" y1="-11.430952" x2="27.791631" y2="-17.146428" />
      <line x1="27.791631" y1="22.861904" x2="27.791631" y2="17.146428" />
      <line x1="-57.490115" y1="5.715476" x2="-57.490115" y2="-0.0" />
      <line x1="116.887085" y1="-14.736562" x2="116.887085" y2="-17.146428" />
      <path d="M 87.168068,-29.38337 C 87.621573,-29.651634 88.355467,-29.840163 89.096029,-29.835653 C 89.836207,-29.839979 90.569568,-29.651488 91.022841,-29.38337" />
      <path d="M 116.887085,-14.736562 C 116.887954,-14.287344 116.700905,-13.839195 116.34628,-13.461815 C 116.159255,-13.26247 115.931985,-13.08552 115.664471,-12.930964" />
      <line x1="31.605339" y1="2.409867" x2="31.605339" y2="-0.0" />
      <line x1="116.887085" y1="19.556295" x2="116.887085" y2="17.146428" />
      <line x1="115.664471" y1="-12.930964" x2="91.269287" y2="1.153602" />
      <path d="M 32.827953,4.215464 C 32.56011,4.060718 32.332616,3.883527 32.145469,3.68389 C 31.791288,3.306678 31.604475,2.858818 31.605339,2.409867" />
      <path d="M 91.269287,1.153602 C 91.123592,1.23811 90.994968,1.325607 90.883415,1.416095 C 90.65608,1.599445 90.505937,1.78636 90.417585,1.952474 C 90.328953,2.120113 90.295903,2.266461 90.295202,2.409867" />
      <line x1="86.568068" y1="35.242334" x2="32.827953" y2="4.215464" />
      <path d="M 91.622841,35.242334 C 90.943238,35.637145 90.022251,35.857077 89.094738,35.855392 C 88.167708,35.856853 87.247339,35.636946 86.568068,35.242334" />
      <path d="M 116.887085,19.556295 C 116.887954,20.005512 116.700905,20.453661 116.34628,20.831042 C 116.159255,21.030386 115.931985,21.207336 115.664471,21.361892" />
      <line x1="115.664471" y1="21.361892" x2="91.622841" y2="35.242334" />
      <line x1="88.395202" y1="0.571548" x2="88.395202" y2="2.041241" />
    </g>
  </g>
</svg>