<?xml version='1.0' encoding='utf-8'?>
<svg width="200.09mm" height="69.408049mm" viewBox="-324.875853 -104.540479 441.862312 153.275032" version="1.1" xmlns="http://www.w3.org/2000/svg">
  <g transform="scale(1,-1)" stroke-linecap="round">
    <g fill="none" stroke="rgb(31,35,40)" stroke-width="0.19874860364184307" id="visible">
      <line x1="-92.100658" y1="36.640284" x2="-92.100658" y2="52.31822" />
      <line x1="-116.142289" y1="22.759842" x2="-92.100658" y2="36.640284" />
      <line x1="-121.799143" y1="19.493856" x2="-116.142289" y2="22.759842" />
      <line x1="-145.840774" y1="5.613414" x2="-121.799143" y2="19.493856" />
      <line x1="-151.497628" y1="2.347428" x2="-145.840774" y2="5.613414" />
      <line x1="-175.539258" y1="-11.533014" x2="-151.497628" y2="2.347428" />
      <line x1="-181.196113" y1="-14.799" x2="-175.539258" y2="-11.533014" />
      <line x1="-205.237743" y1="-28.679442" x2="-181.196113" y2="-14.799001" />
      <line x1="-210.894597" y1="-31.945429" x2="-205.237743" y2="-28.679442" />
      <line x1="-234.936228" y1="-45.825871" x2="-210.894597" y2="-31.945429" />
      <line x1="-234.936228" y1="-30.147934" x2="-234.936228" y2="-45.825871" />
      <line x1="-234.936228" y1="-30.147934" x2="-92.100658" y2="52.31822" />
      <path d="M -92.100658,36.640284 A 3.75,2.165063509461097 -7.78718065295739e-16 0,1 -91.002309,38.171215" />
      <path d="M -92.100658,52.31822 C -91.402677,52.717939 -90.998328,53.281559 -91.002309,53.849151" />
      <path d="M -240.239529,-45.825871 A 3.75,2.165063509461097 -7.78718065295739e-16 0,1 -234.936228,-45.825871" />
      <line x1="-240.239529" y1="-30.147934" x2="-240.239529" y2="-45.825871" />
      <path d="M -240.239529,-30.147934 C -239.547195,-30.550914 -238.570977,-30.784365 -237.587878,-30.782067 C -236.60478,-30.784365 -235.628562,-30.550914 -234.936228,-30.147934" />
      <line x1="-210.894597" y1="-31.945429" x2="-212.414877" y2="-32.823163" />
      <line x1="-236.456508" y1="-46.703604" x2="-212.414877" y2="-32.823163" />
      <line x1="-234.936228" y1="-45.825871" x2="-236.456508" y2="-46.703604" />
      <line x1="-269.938014" y1="-28.679442" x2="-264.281159" y2="-31.945429" />
      <line x1="-181.196113" y1="-14.799001" x2="-182.716392" y2="-15.676734" />
      <line x1="-205.237744" y1="-28.679443" x2="-182.716392" y2="-15.676734" />
      <line x1="-205.237743" y1="-28.679442" x2="-206.758023" y2="-29.557176" />
      <line x1="-151.497628" y1="2.347428" x2="-153.017907" y2="1.469694" />
      <line x1="-177.059538" y1="-12.410748" x2="-153.017907" y2="1.469694" />
      <line x1="-175.539258" y1="-11.533014" x2="-177.059538" y2="-12.410748" />
      <line x1="-121.799143" y1="19.493856" x2="-123.319423" y2="18.616122" />
      <line x1="-147.361053" y1="4.73568" x2="-123.319423" y2="18.616122" />
      <line x1="-145.840774" y1="5.613414" x2="-147.361053" y2="4.73568" />
      <line x1="-92.100658" y1="36.640284" x2="-93.620938" y2="35.76255" />
      <line x1="-116.142289" y1="22.759842" x2="-93.620938" y2="35.76255" />
      <line x1="-116.142289" y1="22.759842" x2="-117.662568" y2="21.882108" />
      <line x1="-235.660492" y1="-29.38337" x2="-92.824922" y2="53.082784" />
      <line x1="-264.281159" y1="-31.945429" x2="-240.239529" y2="-45.825871" />
      <line x1="-293.979644" y1="-14.799001" x2="-269.938014" y2="-28.679442" />
      <line x1="-299.636499" y1="-11.533014" x2="-293.979644" y2="-14.799" />
      <line x1="-323.678129" y1="2.347428" x2="-299.636499" y2="-11.533014" />
      <line x1="-323.678129" y1="18.025364" x2="-323.678129" y2="2.347428" />
      <line x1="-323.678129" y1="18.025364" x2="-240.239529" y2="-30.147934" />
      <line x1="-236.456508" y1="-48.173298" x2="-212.414877" y2="-34.292856" />
      <path d="M -238.719249,-46.703604 A 1.6000000000000005,0.9237604307034016 -7.78718065295739e-16 0,1 -236.456508,-46.703604" />
      <line x1="-240.239529" y1="-45.825871" x2="-238.719249" y2="-46.703604" />
      <path d="M -268.417734,-29.557176 A 1.6000000000000005,0.9237604307034016 -7.78718065295739e-16 0,1 -268.417168,-29.557503" />
      <line x1="-269.938014" y1="-28.679442" x2="-268.417734" y2="-29.557176" />
      <path d="M -206.758589,-29.557503 A 1.6000000000000005,0.9237604307034016 -7.78718065295739e-16 0,1 -206.758023,-29.557176" />
      <line x1="-206.758023" y1="-31.02687" x2="-182.716392" y2="-17.146428" />
      <path d="M -210.187491,21.087226 C -209.489509,20.687507 -209.08516,20.123887 -209.089141,19.556295" />
      <line x1="-210.187491" y1="21.087226" x2="-210.187491" y2="18.228286" />
      <line x1="-264.281159" y1="36.640284" x2="-240.239529" y2="22.759842" />
      <line x1="-264.281159" y1="52.31822" x2="-264.281159" y2="36.640284" />
      <line x1="-264.281159" y1="52.31822" x2="-210.187491" y2="21.087226" />
      <line x1="-234.582675" y1="19.493856" x2="-221.289067" y2="11.818788" />
      <line x1="-240.239529" y1="22.759842" x2="-234.582675" y2="19.493856" />
      <path d="M -147.361619,4.735354 A 1.6000000000000005,0.9237604307034016 -7.78718065295739e-16 0,1 -147.361053,4.73568" />
      <path d="M -177.060104,-12.411075 A 1.6000000000000005,0.9237604307034016 -7.78718065295739e-16 0,1 -177.059538,-12.410748" />
      <line x1="-177.059538" y1="-13.880442" x2="-153.017907" y2="-0.0" />
      <line x1="-147.361053" y1="3.265986" x2="-123.319423" y2="17.146428" />
      <path d="M -149.692172,53.849151 C -149.688191,54.416744 -150.09254,54.980363 -150.790521,55.380082" />
      <line x1="-150.790521" y1="55.380082" x2="-150.790521" y2="52.521143" />
      <line x1="-175.539258" y1="53.990837" x2="-175.185705" y2="53.786712" />
      <line x1="-175.539258" y1="69.668773" x2="-175.539258" y2="53.990837" />
      <line x1="-150.790521" y1="55.380082" x2="-175.539258" y2="69.668773" />
      <line x1="-175.185705" y1="53.786712" x2="-161.892098" y2="46.111644" />
      <path d="M -117.663134,21.881782 A 1.6000000000000005,0.9237604307034016 -7.78718065295739e-16 0,1 -117.662568,21.882108" />
      <line x1="-117.662568" y1="20.412415" x2="-93.620938" y2="34.292856" />
      <path d="M -324.776479,3.878359 A 3.75,2.165063509461097 -7.78718065295739e-16 0,1 -323.678129,2.347428" />
      <path d="M -324.776478,19.556295 C -324.78046,18.988702 -324.37611,18.425083 -323.678129,18.025364" />
      <path d="M -212.414877,-34.292856 A 1.6000000000000005,0.9237604307034016 -7.78718065295739e-16 0,1 -211.946248,-33.639659" />
      <path d="M -238.719249,-48.173298 A 1.6000000000000005,0.9237604307034016 -7.78718065295739e-16 0,1 -236.456508,-48.173298" />
      <line x1="-236.456508" y1="-48.173298" x2="-237.022193" y2="-48.499897" />
      <line x1="-240.239529" y1="-45.825871" x2="-238.719249" y2="-46.703604" />
      <path d="M -263.229509,-33.639659 A 1.6000000000000005,0.9237604307034016 -7.78718065295739e-16 0,1 -262.76088,-34.292856" />
      <line x1="-299.636499" y1="-11.533014" x2="-298.116219" y2="-12.410748" />
      <line x1="-322.15785" y1="1.469694" x2="-298.116219" y2="-12.410748" />
      <line x1="-323.678129" y1="2.347428" x2="-322.15785" y2="1.469694" />
      <line x1="-292.459365" y1="-15.676734" x2="-268.417734" y2="-29.557176" />
      <line x1="-293.979644" y1="-14.799001" x2="-292.459365" y2="-15.676734" />
      <path d="M -268.417734,-31.02687 A 1.6000000000000005,0.9237604307034016 -7.78718065295739e-16 0,1 -266.154992,-31.02687" />
      <line x1="-266.154992" y1="-31.02687" x2="-266.013571" y2="-30.94522" />
      <line x1="-209.162186" y1="-30.94522" x2="-209.020765" y2="-31.02687" />
      <path d="M -209.020765,-31.02687 A 1.6000000000000005,0.9237604307034016 -7.78718065295739e-16 0,1 -206.758023,-31.02687" />
      <path d="M -182.716392,-17.146428 A 1.6000000000000005,0.9237604307034016 -7.78718065295739e-16 0,1 -182.247763,-16.493231" />
      <line x1="-206.758023" y1="-31.02687" x2="-207.323708" y2="-31.353469" />
      <line x1="-240.239529" y1="22.759842" x2="-238.719249" y2="21.882108" />
      <line x1="-233.062395" y1="18.616122" x2="-221.289067" y2="11.818788" />
      <line x1="-234.582675" y1="19.493856" x2="-233.062395" y2="18.616122" />
      <path d="M -265.379509,38.171215 A 3.75,2.165063509461097 -7.78718065295739e-16 0,1 -264.281159,36.640284" />
      <path d="M -265.379509,53.849151 C -265.38349,53.281559 -264.979141,52.717939 -264.281159,52.31822" />
      <line x1="-205.591297" y1="52.521143" x2="-205.591297" y2="55.380082" />
      <path d="M -205.591297,55.380082 C -206.289278,54.980363 -206.693627,54.416744 -206.689646,53.849151" />
      <line x1="-149.765216" y1="3.347636" x2="-149.623795" y2="3.265986" />
      <path d="M -149.623795,3.265986 A 1.6000000000000005,0.9237604307034016 -7.78718065295739e-16 0,1 -147.361053,3.265986" />
      <path d="M -153.017907,-0.0 A 1.6000000000000005,0.9237604307034016 -7.78718065295739e-16 0,1 -152.549278,0.653197" />
      <line x1="-179.463701" y1="-13.798792" x2="-179.32228" y2="-13.880442" />
      <path d="M -179.32228,-13.880442 A 1.6000000000000005,0.9237604307034016 -7.78718065295739e-16 0,1 -177.059538,-13.880442" />
      <line x1="-177.059538" y1="-13.880442" x2="-177.625223" y2="-14.207041" />
      <path d="M -123.319423,17.146428 A 1.6000000000000005,0.9237604307034016 -7.78718065295739e-16 0,1 -122.850793,17.799625" />
      <line x1="-147.361053" y1="3.265986" x2="-147.926739" y2="2.939388" />
      <path d="M -175.539258,53.990837 A 3.75,2.165063509461097 -7.78718065295739e-16 0,1 -180.842559,53.990837" />
      <line x1="-181.196113" y1="53.786712" x2="-180.842559" y2="53.990837" />
      <line x1="-173.665425" y1="52.908978" x2="-161.892098" y2="46.111644" />
      <line x1="-175.185705" y1="53.786712" x2="-173.665425" y2="52.908978" />
      <path d="M -175.539258,69.668773 C -176.231592,70.071752 -177.20781,70.305203 -178.190909,70.302905 C -179.174008,70.305203 -180.150226,70.071752 -180.842559,69.668773" />
      <line x1="-180.842559" y1="69.668773" x2="-180.842559" y2="53.990837" />
      <line x1="-120.066732" y1="20.494064" x2="-119.92531" y2="20.412415" />
      <path d="M -119.92531,20.412415 A 1.6000000000000005,0.9237604307034016 -7.78718065295739e-16 0,1 -117.662568,20.412415" />
      <path d="M -93.620938,34.292856 A 1.6000000000000005,0.9237604307034016 -7.78718065295739e-16 0,1 -93.152309,34.946054" />
      <line x1="-117.662568" y1="20.412415" x2="-118.228254" y2="20.085816" />
      <path d="M -93.444161,52.725267 A 1.8500000000000003,1.068097998000808 -7.78718065295739e-16 0,1 -92.902309,53.480526" />
      <path d="M -92.902309,53.480526 A 1.8500000000000003,1.068097998000808 -7.78718065295739e-16 0,1 -93.444161,54.235785" />
      <line x1="-322.953865" y1="18.789928" x2="-239.515265" y2="-29.38337" />
      <line x1="-262.76088" y1="-34.292856" x2="-238.719249" y2="-48.173298" />
      <path d="M -238.153564,-48.499897 A 0.8000000000000015,0.46188021535170154 -7.78718065295739e-16 0,1 -237.022193,-48.499897" />
      <line x1="-238.719249" y1="-48.173298" x2="-238.153564" y2="-48.499897" />
      <path d="M -298.116219,-12.410748 A 1.6000000000000005,0.9237604307034016 -7.78718065295739e-16 0,1 -298.115653,-12.411075" />
      <line x1="-322.15785" y1="0.0" x2="-298.116219" y2="-13.880442" />
      <line x1="-292.459365" y1="-17.146428" x2="-268.417734" y2="-31.02687" />
      <line x1="-266.154992" y1="-31.02687" x2="-266.720678" y2="-31.353469" />
      <path d="M -267.852049,-31.353469 A 0.8000000000000015,0.46188021535170154 -7.78718065295739e-16 0,1 -266.720678,-31.353469" />
      <line x1="-268.417734" y1="-31.02687" x2="-267.852049" y2="-31.353469" />
      <line x1="-209.020765" y1="-31.02687" x2="-208.455079" y2="-31.353469" />
      <path d="M -208.455079,-31.353469 A 0.8000000000000015,0.46188021535170154 -7.78718065295739e-16 0,1 -207.323708,-31.353469" />
      <path d="M -238.719249,21.882108 A 1.6000000000000005,0.9237604307034016 -7.78718065295739e-16 0,1 -238.718684,21.881782" />
      <line x1="-262.76088" y1="34.292856" x2="-238.719249" y2="20.412415" />
      <line x1="-180.842559" y1="69.668773" x2="-205.591297" y2="55.380082" />
      <line x1="-194.48972" y1="46.111644" x2="-181.196113" y2="53.786712" />
      <line x1="-233.062395" y1="17.146428" x2="-222.561859" y2="11.083941" />
      <line x1="-149.623795" y1="3.265986" x2="-149.058109" y2="2.939388" />
      <path d="M -149.058109,2.939388 A 0.8000000000000015,0.46188021535170154 -7.78718065295739e-16 0,1 -147.926739,2.939388" />
      <line x1="-179.32228" y1="-13.880442" x2="-178.756594" y2="-14.207041" />
      <path d="M -178.756594,-14.207041 A 0.8000000000000015,0.46188021535170154 -7.78718065295739e-16 0,1 -177.625223,-14.207041" />
      <line x1="-181.196113" y1="53.786712" x2="-182.716392" y2="52.908978" />
      <line x1="-173.665425" y1="51.439285" x2="-163.16489" y2="45.376797" />
      <line x1="-119.92531" y1="20.412415" x2="-119.359625" y2="20.085816" />
      <path d="M -119.359625,20.085816 A 0.8000000000000015,0.46188021535170154 -7.78718065295739e-16 0,1 -118.228254,20.085816" />
      <line x1="-93.444161" y1="54.235785" x2="-176.882761" y2="102.409084" />
      <path d="M -93.409737,52.745679 A 1.8500000000000003,1.068097998000808 -7.78718065295739e-16 0,1 -93.444161,52.766092" />
      <line x1="-322.953865" y1="18.789928" x2="-322.334626" y2="18.43241" />
      <path d="M -298.116219,-13.880442 A 1.6000000000000005,0.9237604307034016 -7.78718065295739e-16 0,1 -295.853477,-13.880442" />
      <path d="M -322.626479,0.653197 A 1.6000000000000005,0.9237604307034016 -7.78718065295739e-16 0,1 -322.15785,-0.0" />
      <line x1="-298.116219" y1="-13.880442" x2="-297.550534" y2="-14.207041" />
      <line x1="-295.853477" y1="-13.880442" x2="-295.712056" y2="-13.798792" />
      <path d="M -292.927994,-16.493231 A 1.6000000000000005,0.9237604307034016 -7.78718065295739e-16 0,1 -292.459365,-17.146428" />
      <path d="M -238.719249,20.412415 A 1.6000000000000005,0.9237604307034016 -7.78718065295739e-16 0,1 -236.456508,20.412415" />
      <path d="M -263.229509,34.946054 A 1.6000000000000005,0.9237604307034016 -7.78718065295739e-16 0,1 -262.76088,34.292856" />
      <line x1="-238.719249" y1="20.412415" x2="-238.153564" y2="20.085816" />
      <line x1="-236.456508" y1="20.412415" x2="-236.315086" y2="20.494064" />
      <line x1="-194.48972" y1="46.111644" x2="-182.716392" y2="52.908978" />
      <path d="M -233.531024,17.799625 A 1.6000000000000005,0.9237604307034016 -7.78718065295739e-16 0,1 -233.062395,17.146428" />
      <line x1="-263.556895" y1="53.082784" x2="-209.463227" y2="21.85179" />
      <path d="M -174.134055,52.092482 A 1.6000000000000005,0.9237604307034016 -7.78718065295739e-16 0,1 -173.665425,51.439285" />
      <path d="M -182.716392,51.439285 A 1.6000000000000005,0.9237604307034016 -7.78718065295739e-16 0,1 -182.247763,52.092482" />
      <path d="M -179.026185,54.570578 A 1.6000000000000005,0.9237604307034016 -7.78718065295739e-16 0,1 -177.355633,54.570578" />
      <line x1="-150.066257" y1="56.144647" x2="-174.814994" y2="70.433337" />
      <path d="M -176.882761,102.409084 A 1.8500000000000003,1.068097998000808 -7.78718065295739e-16 0,1 -179.499056,102.409084" />
      <line x1="-93.444161" y1="52.766092" x2="-176.882761" y2="100.93939" />
      <path d="M -322.334626,19.942929 A 1.8500000000000003,1.068097998000808 -7.78718065295739e-16 0,1 -322.876479,19.18767" />
      <path d="M -322.876479,19.18767 A 1.8500000000000003,1.068097998000808 -7.78718065295739e-16 0,1 -322.334626,18.43241" />
      <line x1="-295.853477" y1="-13.880442" x2="-296.419163" y2="-14.207041" />
      <path d="M -297.550534,-14.207041 A 0.8000000000000015,0.46188021535170154 -7.78718065295739e-16 0,1 -296.419163,-14.207041" />
      <line x1="-241.583032" y1="2.592377" x2="-295.676701" y2="33.823371" />
      <path d="M -241.583032,2.592377 A 5.6499999999999995,3.2620290209213856 -7.78718065295739e-16 0,1 -233.592725,2.592377" />
      <line x1="-233.592725" y1="2.592377" x2="-208.843988" y2="16.881067" />
      <path d="M -208.843988,16.881067 A 5.6499999999999995,3.2620290209213856 -7.78718065295739e-16 0,1 -207.189141,19.18767" />
      <path d="M -207.189141,19.18767 A 5.6499999999999995,3.2620290209213856 -7.78718065295739e-16 0,1 -208.843988,21.494272" />
      <line x1="-209.463227" y1="21.85179" x2="-208.843988" y2="21.494272" />
      <line x1="-236.456508" y1="20.412415" x2="-237.022193" y2="20.085816" />
      <path d="M -238.153564,20.085816 A 0.8000000000000015,0.46188021535170154 -7.78718065295739e-16 0,1 -237.022193,20.085816" />
      <line x1="-193.216928" y1="45.376797" x2="-182.716392" y2="51.439285" />
      <line x1="-263.556895" y1="53.082784" x2="-262.937657" y2="52.725267" />
      <line x1="-206.9348" y1="51.173923" x2="-182.186062" y2="36.885233" />
      <path d="M -182.186062,36.885233 A 5.6499999999999995,3.2620290209213856 -7.78718065295739e-16 0,1 -174.195756,36.885233" />
      <line x1="-174.195756" y1="36.885233" x2="-149.447018" y2="51.173923" />
      <path d="M -149.447018,51.173923 A 5.6499999999999995,3.2620290209213856 -7.78718065295739e-16 0,1 -147.792172,53.480526" />
      <path d="M -147.792172,53.480526 A 5.6499999999999995,3.2620290209213856 -7.78718065295739e-16 0,1 -149.447018,55.787129" />
      <line x1="-150.066257" y1="56.144647" x2="-149.447018" y2="55.787129" />
      <path d="" />
      <line x1="-179.077001" y1="54.563659" x2="-178.756594" y2="54.378672" />
      <line x1="-177.304817" y1="54.563659" x2="-177.625223" y2="54.378672" />
      <path d="M -178.756594,54.378672 A 0.8000000000000015,0.46188021535170154 -7.78718065295739e-16 0,1 -177.625223,54.378672" />
      <line x1="-179.499056" y1="102.409084" x2="-262.937657" y2="54.235785" />
      <path d="M -176.882761,100.93939 A 1.8500000000000003,1.068097998000808 -7.78718065295739e-16 0,1 -179.499056,100.93939" />
      <line x1="-94.398755" y1="52.174132" x2="-177.377736" y2="100.082068" />
      <line x1="-322.334626" y1="19.942929" x2="-298.292996" y2="33.823371" />
      <path d="M -322.334626,18.473235 A 1.8500000000000003,1.068097998000808 -7.78718065295739e-16 0,1 -322.369051,18.452823" />
      <path d="M -295.676701,33.823371 A 1.8500000000000003,1.068097998000808 -7.78718065295739e-16 0,1 -298.292996,33.823371" />
      <line x1="-241.583032" y1="1.122683" x2="-295.676701" y2="32.353677" />
      <path d="M -241.583032,1.122683 A 5.6499999999999995,3.2620290209213856 -7.78718065295739e-16 0,1 -233.592725,1.122683" />
      <line x1="-233.592725" y1="1.122683" x2="-208.843988" y2="15.411373" />
      <path d="M -208.843988,15.411373 A 5.6499999999999995,3.2620290209213856 -7.78718065295739e-16 0,1 -207.189141,17.717976" />
      <line x1="-181.566823" y1="70.433337" x2="-206.315561" y2="56.144647" />
      <path d="M -262.937657,54.235785 A 1.8500000000000003,1.068097998000808 -7.78718065295739e-16 0,1 -263.479509,53.480526" />
      <path d="M -263.479509,53.480526 A 1.8500000000000003,1.068097998000808 -7.78718065295739e-16 0,1 -262.937657,52.725267" />
      <line x1="-206.315561" y1="56.144647" x2="-206.9348" y2="55.787129" />
      <path d="M -206.9348,55.787129 A 5.6499999999999995,3.2620290209213856 -7.78718065295739e-16 0,1 -208.589646,53.480526" />
      <path d="M -208.589646,53.480526 A 5.6499999999999995,3.2620290209213856 -7.78718065295739e-16 0,1 -206.9348,51.173923" />
      <line x1="-206.9348" y1="49.704229" x2="-182.186062" y2="35.415539" />
      <path d="M -182.186062,35.415539 A 5.6499999999999995,3.2620290209213856 -7.78718065295739e-16 0,1 -174.195756,35.415539" />
      <line x1="-174.195756" y1="35.415539" x2="-149.447018" y2="49.704229" />
      <path d="M -149.447018,49.704229 A 5.6499999999999995,3.2620290209213856 -7.78718065295739e-16 0,1 -147.792172,52.010832" />
      <line x1="-179.499056" y1="100.93939" x2="-262.937657" y2="52.766092" />
      <path d="M -177.377736,100.082068 A 1.1500000000000017,0.6639528095680707 -7.78718065295739e-16 0,1 -179.004082,100.082068" />
      <line x1="-95.247283" y1="51.684234" x2="-177.377736" y2="99.102273" />
      <line x1="-322.334626" y1="18.473235" x2="-298.292996" y2="32.353677" />
      <path d="M -295.676701,32.353677 A 1.8500000000000003,1.068097998000808 -7.78718065295739e-16 0,1 -298.292996,32.353677" />
      <line x1="-242.078007" y1="0.265361" x2="-296.171675" y2="31.496356" />
      <path d="M -242.078007,0.265361 A 6.349999999999999,3.666174209354123 -7.78718065295739e-16 0,1 -233.09775,0.265361" />
      <line x1="-233.09775" y1="0.265361" x2="-208.349013" y2="14.554052" />
      <path d="M -208.349013,14.554052 A 6.349999999999999,3.666174209354123 -7.78718065295739e-16 0,1 -206.489141,17.146428" />
      <path d="M -206.489141,17.146428 A 6.349999999999999,3.666174209354123 -7.78718065295739e-16 0,1 -207.189141,18.819748" />
      <path d="M -262.937657,52.766092 A 1.8500000000000003,1.068097998000808 -7.78718065295739e-16 0,1 -262.972081,52.745679" />
      <path d="M -208.589646,52.010832 A 5.6499999999999995,3.2620290209213856 -7.78718065295739e-16 0,1 -206.9348,49.704229" />
      <line x1="-207.429774" y1="48.846908" x2="-182.681037" y2="34.558218" />
      <path d="M -182.681037,34.558218 A 6.349999999999999,3.666174209354123 -7.78718065295739e-16 0,1 -173.700781,34.558218" />
      <line x1="-173.700781" y1="34.558218" x2="-148.952043" y2="48.846908" />
      <path d="M -148.952043,48.846908 A 6.349999999999999,3.666174209354123 -7.78718065295739e-16 0,1 -147.092172,51.439285" />
      <path d="M -147.092172,51.439285 A 6.349999999999999,3.666174209354123 -7.78718065295739e-16 0,1 -147.792172,53.112605" />
      <line x1="-179.004082" y1="100.082068" x2="-261.983062" y2="52.174132" />
      <path d="M -177.377736,99.102273 A 1.1500000000000017,0.6639528095680707 -7.78718065295739e-16 0,1 -179.004082,99.102273" />
      <line x1="-321.380032" y1="17.881275" x2="-297.798021" y2="31.496356" />
      <path d="M -296.171675,31.496356 A 1.1500000000000017,0.6639528095680707 -7.78718065295739e-16 0,1 -297.798021,31.496356" />
      <line x1="-242.078007" y1="-0.714435" x2="-296.171675" y2="30.51656" />
      <path d="M -242.078007,-0.714435 A 6.349999999999999,3.666174209354123 -7.78718065295739e-16 0,1 -233.09775,-0.714435" />
      <line x1="-233.09775" y1="-0.714435" x2="-208.349013" y2="13.574256" />
      <path d="M -208.349013,13.574256 A 6.349999999999999,3.666174209354123 -7.78718065295739e-16 0,1 -206.489141,16.166632" />
      <path d="M -208.589646,53.112605 A 6.349999999999999,3.666174209354123 -7.78718065295739e-16 0,1 -209.289646,51.439285" />
      <path d="M -209.289646,51.439285 A 6.349999999999999,3.666174209354123 -7.78718065295739e-16 0,1 -207.429774,48.846908" />
      <line x1="-207.429774" y1="47.867112" x2="-182.681037" y2="33.578422" />
      <path d="M -182.681037,33.578422 A 6.349999999999999,3.666174209354123 -7.78718065295739e-16 0,1 -173.700781,33.578422" />
      <line x1="-173.700781" y1="33.578422" x2="-148.952043" y2="47.867112" />
      <path d="M -148.952043,47.867112 A 6.349999999999999,3.666174209354123 -7.78718065295739e-16 0,1 -147.092172,50.459489" />
      <line x1="-179.004082" y1="99.102273" x2="-261.134534" y2="51.684234" />
      <path d="M -176.246365,98.449075 A 2.75,1.587713240271471 7.78718065295739e-16 0,1 -180.135453,98.449075" />
      <line x1="-320.531504" y1="17.391377" x2="-297.798021" y2="30.51656" />
      <path d="M -296.171675,30.51656 A 1.1500000000000017,0.6639528095680707 -7.78718065295739e-16 0,1 -297.798021,30.51656" />
      <line x1="-242.078007" y1="-0.714435" x2="-240.946636" y2="-1.367632" />
      <line x1="-240.946636" y1="-1.367632" x2="-242.078007" y2="-0.714435" />
      <line x1="-233.09775" y1="-0.714435" x2="-234.229121" y2="-1.367632" />
      <path d="M -234.229121,-1.367632 C -234.687614,-1.631552 -235.146146,-1.789365 -235.643335,-1.85436" />
      <path d="M -239.532422,-1.85436 C -239.342815,-1.879653 -239.113368,-1.903174 -238.844083,-1.924925 C -238.480616,-1.953525 -238.038064,-1.973059 -237.587878,-1.972751 C -237.137693,-1.973059 -236.695141,-1.953525 -236.331674,-1.924925 C -236.062389,-1.903174 -235.832942,-1.879653 -235.643335,-1.85436" />
      <path d="M -240.946636,-1.367632 C -240.488143,-1.631552 -240.029611,-1.789365 -239.532422,-1.85436" />
      <line x1="-234.229121" y1="-1.367632" x2="-233.09775" y2="-0.714435" />
      <path d="M -209.289646,50.459489 A 6.349999999999999,3.666174209354123 -7.78718065295739e-16 0,1 -207.429774,47.867112" />
      <line x1="-182.681037" y1="33.578422" x2="-181.549666" y2="32.925225" />
      <line x1="-182.681037" y1="33.578422" x2="-181.549666" y2="32.925225" />
      <line x1="-173.700781" y1="33.578422" x2="-174.832152" y2="32.925225" />
      <path d="M -174.832152,32.925225 C -175.290644,32.661304 -175.749176,32.503492 -176.246365,32.438496" />
      <path d="M -180.135453,32.438496 C -179.945845,32.413204 -179.716399,32.389682 -179.447113,32.367932 C -179.083646,32.339332 -178.641094,32.319798 -178.190909,32.320106 C -177.740724,32.319798 -177.298172,32.339332 -176.934705,32.367932 C -176.665419,32.389682 -176.435973,32.413204 -176.246365,32.438496" />
      <path d="M -180.135453,32.438496 C -180.632642,32.503492 -181.091174,32.661304 -181.549666,32.925225" />
      <line x1="-174.832152" y1="32.925225" x2="-173.700781" y2="33.578422" />
      <path d="M -295.040305,29.863363 A 2.75,1.587713240271471 7.78718065295739e-16 0,1 -298.929392,29.863362" />
      <line x1="-91.747105" y1="-28.679442" x2="-91.747105" y2="-13.001506" />
      <line x1="-115.788735" y1="-14.799001" x2="-91.747105" y2="-28.679442" />
      <line x1="-115.788735" y1="0.878936" x2="-115.788735" y2="-14.799" />
      <line x1="-115.788735" y1="0.878936" x2="-91.747105" y2="-13.001506" />
      <line x1="-86.443804" y1="-28.679442" x2="-86.443804" y2="-13.001506" />
      <path d="M -91.747105,-28.679442 A 3.75,2.165063509461097 -7.78718065295739e-16 0,1 -86.443804,-28.679442" />
      <path d="M -91.747105,-13.001506 C -91.054771,-13.404486 -90.078553,-13.637937 -89.095454,-13.635639 C -88.112355,-13.637937 -87.136138,-13.404486 -86.443804,-13.001506" />
      <path d="M -116.887085,-13.268069 A 3.75,2.165063509461097 -7.78718065295739e-16 0,1 -115.788735,-14.799001" />
      <path d="M -116.887085,2.409867 C -116.891066,1.842274 -116.486717,1.278655 -115.788735,0.878936" />
      <line x1="-91.747105" y1="-28.679442" x2="-90.226825" y2="-29.557176" />
      <line x1="-114.268456" y1="-15.676734" x2="-90.226825" y2="-29.557176" />
      <line x1="-115.788735" y1="-14.799001" x2="-114.268456" y2="-15.676734" />
      <line x1="-32.350135" y1="2.551552" x2="-32.350135" y2="18.229488" />
      <line x1="-32.703689" y1="2.347428" x2="-32.350135" y2="2.551552" />
      <line x1="-56.745319" y1="-11.533014" x2="-32.703689" y2="2.347428" />
      <line x1="-62.402173" y1="-14.799" x2="-56.745319" y2="-11.533014" />
      <line x1="-86.443804" y1="-28.679442" x2="-62.402173" y2="-14.799001" />
      <line x1="-86.443804" y1="-13.001506" x2="-32.350135" y2="18.229488" />
      <line x1="-115.064471" y1="1.6435" x2="-91.022841" y2="-12.236942" />
      <line x1="-86.443804" y1="-28.679442" x2="-87.964084" y2="-29.557176" />
      <path d="M -90.226825,-29.557176 A 1.6000000000000005,0.9237604307034016 -7.78718065295739e-16 0,1 -87.964084,-29.557176" />
      <line x1="-114.268456" y1="-17.146428" x2="-90.226825" y2="-31.02687" />
      <path d="M -27.046834,2.551552 A 3.75,2.165063509461097 -7.78718065295739e-16 0,1 -32.350135,2.551552" />
      <line x1="-27.046834" y1="2.551552" x2="-27.046834" y2="18.229488" />
      <path d="M -32.350135,18.229488 C -31.657802,18.632468 -30.681584,18.865919 -29.698485,18.86362 C -28.715386,18.865919 -27.739168,18.632468 -27.046834,18.229488" />
      <line x1="-62.402173" y1="-14.799001" x2="-63.922453" y2="-15.676734" />
      <line x1="-87.964084" y1="-29.557176" x2="-63.922453" y2="-15.676734" />
      <path d="M -90.226825,-31.02687 A 1.6000000000000005,0.9237604307034016 -7.78718065295739e-16 0,1 -87.964084,-31.02687" />
      <path d="M -114.737085,-16.493231 A 1.6000000000000005,0.9237604307034016 -7.78718065295739e-16 0,1 -114.268456,-17.146428" />
      <line x1="-90.226825" y1="-31.02687" x2="-89.66114" y2="-31.353469" />
      <line x1="-32.703689" y1="2.347428" x2="-34.223968" y2="1.469694" />
      <line x1="-58.265599" y1="-12.410748" x2="-34.223968" y2="1.469694" />
      <line x1="-56.745319" y1="-11.533014" x2="-58.265599" y2="-12.410748" />
      <line x1="-27.046834" y1="2.551552" x2="-26.693281" y2="2.347428" />
      <line x1="32.350135" y1="36.844408" x2="32.703689" y2="36.640284" />
      <path d="M 32.350135,36.844408 A 3.75,2.165063509461097 -7.78718065295739e-16 0,1 27.046834,36.844408" />
      <line x1="26.693281" y1="36.640284" x2="27.046834" y2="36.844408" />
      <line x1="-2.65165" y1="-11.533014" x2="-2.65165" y2="4.144922" />
      <line x1="-26.693281" y1="2.347428" x2="-2.65165" y2="-11.533014" />
      <line x1="-27.046834" y1="18.229488" x2="-2.65165" y2="4.144922" />
      <line x1="-87.168068" y1="-12.236942" x2="-33.074399" y2="18.994052" />
      <path d="M -114.445233,2.796501 A 1.8500000000000003,1.068097998000808 -7.78718065295739e-16 0,1 -114.987085,2.041241" />
      <path d="M -114.987085,2.041241 A 1.8500000000000003,1.068097998000808 -7.78718065295739e-16 0,1 -114.445233,1.285982" />
      <line x1="-87.964084" y1="-31.02687" x2="-63.922453" y2="-17.146428" />
      <line x1="-87.964084" y1="-31.02687" x2="-88.529769" y2="-31.353469" />
      <path d="M -89.66114,-31.353469 A 0.8000000000000015,0.46188021535170154 -7.78718065295739e-16 0,1 -88.529769,-31.353469" />
      <path d="M -58.266165,-12.411075 A 1.6000000000000005,0.9237604307034016 -7.78718065295739e-16 0,1 -58.265599,-12.410748" />
      <line x1="-58.265599" y1="-13.880442" x2="-34.223968" y2="-0.0" />
      <line x1="2.298097" y1="38.233654" x2="2.298097" y2="35.374714" />
      <line x1="2.298097" y1="38.233654" x2="27.046834" y2="52.522344" />
      <line x1="27.046834" y1="36.844408" x2="27.046834" y2="52.522344" />
      <line x1="13.399674" y1="28.965216" x2="26.693281" y2="36.640284" />
      <path d="M 1.199748,36.702723 C 1.195766,37.270316 1.600116,37.833935 2.298097,38.233654" />
      <line x1="-26.693281" y1="2.347428" x2="-25.173001" y2="1.469694" />
      <line x1="32.703689" y1="36.640284" x2="34.223968" y2="35.76255" />
      <line x1="32.350135" y1="52.522344" x2="32.350135" y2="36.844408" />
      <line x1="32.350135" y1="52.522344" x2="86.443804" y2="21.29135" />
      <line x1="86.443804" y1="5.613414" x2="86.443804" y2="21.29135" />
      <line x1="62.402173" y1="19.493856" x2="86.443804" y2="5.613414" />
      <line x1="56.745319" y1="22.759842" x2="62.402173" y2="19.493856" />
      <line x1="32.703689" y1="36.640284" x2="56.745319" y2="22.759842" />
      <path d="M 27.046834,52.522344 C 27.739168,52.925324 28.715386,53.158775 29.698485,53.156477 C 30.681584,53.158775 31.657802,52.925324 32.350135,52.522344" />
      <line x1="26.693281" y1="36.640284" x2="25.173001" y2="35.76255" />
      <line x1="2.65165" y1="-11.533014" x2="2.65165" y2="4.144922" />
      <path d="M -2.65165,-11.533014 A 3.75,2.165063509461097 -7.78718065295739e-16 0,1 2.65165,-11.533014" />
      <path d="M -2.65165,4.144922 C -1.959317,3.741942 -0.983099,3.508491 -0.0,3.51079 C 0.983099,3.508491 1.959317,3.741942 2.65165,4.144922" />
      <line x1="28.390337" y1="85.262655" x2="-114.445233" y2="2.796501" />
      <path d="M -114.445233,1.326807 A 1.8500000000000003,1.068097998000808 -7.78718065295739e-16 0,1 -114.479657,1.306395" />
      <path d="M 115.788735,19.493856 A 3.75,2.165063509461097 -7.78718065295739e-16 0,1 116.887085,21.024787" />
      <line x1="115.788735" y1="35.171792" x2="115.788735" y2="19.493856" />
      <path d="M 115.788735,35.171792 C 116.486717,35.571511 116.891066,36.135131 116.887085,36.702723" />
      <path d="M -63.922453,-17.146428 A 1.6000000000000005,0.9237604307034016 -7.78718065295739e-16 0,1 -63.453824,-16.493231" />
      <line x1="-60.669762" y1="-13.798792" x2="-60.52834" y2="-13.880442" />
      <path d="M -60.52834,-13.880442 A 1.6000000000000005,0.9237604307034016 -7.78718065295739e-16 0,1 -58.265599,-13.880442" />
      <path d="M -34.223968,-0.0 A 1.6000000000000005,0.9237604307034016 -7.78718065295739e-16 0,1 -33.755339,0.653197" />
      <line x1="-58.265599" y1="-13.880442" x2="-58.831284" y2="-14.207041" />
      <path d="M -30.533761,3.131293 A 1.6000000000000005,0.9237604307034016 -7.78718065295739e-16 0,1 -28.863209,3.131293" />
      <line x1="13.399674" y1="28.965216" x2="25.173001" y2="35.76255" />
      <path d="M 26.693281,2.347428 A 3.75,2.165063509461097 -7.78718065295739e-16 0,1 27.791631,3.878359" />
      <line x1="26.693281" y1="18.025364" x2="26.693281" y2="2.347428" />
      <path d="M 26.693281,18.025364 C 27.391262,18.425083 27.795612,18.988702 27.79163,19.556295" />
      <line x1="-2.65165" y1="-11.533014" x2="-1.131371" y2="-12.410748" />
      <line x1="-25.173001" y1="1.469694" x2="-1.131371" y2="-12.410748" />
      <path d="M -25.641631,0.653197 A 1.6000000000000005,0.9237604307034016 -7.78718065295739e-16 0,1 -25.173001,-0.0" />
      <path d="M 28.863209,37.42415 A 1.6000000000000005,0.9237604307034016 -7.78718065295739e-16 0,1 30.533761,37.42415" />
      <line x1="56.745319" y1="22.759842" x2="58.265599" y2="21.882108" />
      <line x1="34.223968" y1="35.76255" x2="58.265599" y2="21.882108" />
      <path d="M 33.755339,34.946054 A 1.6000000000000005,0.9237604307034016 -7.78718065295739e-16 0,1 34.223968,34.292856" />
      <line x1="86.443804" y1="5.613414" x2="87.964084" y2="4.73568" />
      <line x1="63.922453" y1="18.616122" x2="87.964084" y2="4.73568" />
      <line x1="62.402173" y1="19.493856" x2="63.922453" y2="18.616122" />
      <path d="M 86.443804,5.613414 A 3.75,2.165063509461097 -7.78718065295739e-16 0,1 91.747105,5.613414" />
      <path d="M 86.443804,21.29135 C 87.136138,20.88837 88.112355,20.654919 89.095454,20.657218 C 90.078553,20.654919 91.054771,20.88837 91.747105,21.29135" />
      <line x1="91.747105" y1="5.613414" x2="91.747105" y2="21.29135" />
      <path d="M 25.173001,34.292856 A 1.6000000000000005,0.9237604307034016 -7.78718065295739e-16 0,1 25.641631,34.946054" />
      <line x1="-26.32257" y1="18.994052" x2="-1.927386" y2="4.909486" />
      <line x1="2.65165" y1="-11.533014" x2="26.693281" y2="2.347428" />
      <line x1="2.65165" y1="4.144922" x2="26.693281" y2="18.025364" />
      <path d="M 31.006632,85.262655 A 1.8500000000000003,1.068097998000808 -7.78718065295739e-16 0,1 28.390337,85.262655" />
      <line x1="28.390337" y1="83.792962" x2="-114.445233" y2="1.326807" />
      <line x1="91.747105" y1="5.613414" x2="115.788735" y2="19.493856" />
      <line x1="91.747105" y1="21.29135" x2="115.788735" y2="35.171792" />
      <line x1="-60.52834" y1="-13.880442" x2="-59.962655" y2="-14.207041" />
      <path d="M -59.962655,-14.207041 A 0.8000000000000015,0.46188021535170154 -7.78718065295739e-16 0,1 -58.831284,-14.207041" />
      <line x1="-30.584577" y1="3.124375" x2="-30.26417" y2="2.939388" />
      <line x1="-28.812392" y1="3.124375" x2="-29.132799" y2="2.939388" />
      <path d="M -30.26417,2.939388 A 0.8000000000000015,0.46188021535170154 -7.78718065295739e-16 0,1 -29.132799,2.939388" />
      <line x1="14.672466" y1="28.230369" x2="25.173001" y2="34.292856" />
      <line x1="2.65165" y1="-11.533014" x2="1.131371" y2="-12.410748" />
      <path d="M -1.131371,-12.410748 A 1.6000000000000005,0.9237604307034016 -7.78718065295739e-16 0,1 1.131371,-12.410748" />
      <line x1="-25.173001" y1="-0.0" x2="-1.131371" y2="-13.880442" />
      <path d="M 29.132799,37.232244 A 0.8000000000000015,0.46188021535170154 -7.78718065295739e-16 0,1 30.26417,37.232244" />
      <line x1="28.812392" y1="37.417231" x2="29.132799" y2="37.232244" />
      <line x1="30.584577" y1="37.417231" x2="30.26417" y2="37.232244" />
      <path d="M 58.265599,21.882108 A 1.6000000000000005,0.9237604307034016 -7.78718065295739e-16 0,1 58.266165,21.881782" />
      <line x1="34.223968" y1="34.292856" x2="58.265599" y2="20.412415" />
      <line x1="91.747105" y1="5.613414" x2="90.226825" y2="4.73568" />
      <path d="M 87.964084,4.73568 A 1.6000000000000005,0.9237604307034016 -7.78718065295739e-16 0,1 90.226825,4.73568" />
      <line x1="63.922453" y1="17.146428" x2="87.964084" y2="3.265986" />
      <line x1="114.445233" y1="37.089357" x2="31.006632" y2="85.262655" />
      <path d="M 31.006632,83.792962 A 1.8500000000000003,1.068097998000808 -7.78718065295739e-16 0,1 28.390337,83.792962" />
      <line x1="28.885312" y1="82.93564" x2="-113.490638" y2="0.734847" />
      <line x1="1.573833" y1="38.998218" x2="26.32257" y2="53.286909" />
      <path d="M 25.173001,-0.0 A 1.6000000000000005,0.9237604307034016 -7.78718065295739e-16 0,1 25.641631,0.653197" />
      <line x1="1.131371" y1="-12.410748" x2="2.65165" y2="-11.533014" />
      <path d="M -0.565685,-14.207041 A 0.8000000000000015,0.46188021535170154 -7.78718065295739e-16 0,1 0.565685,-14.207041" />
      <path d="M -1.131371,-13.880442 A 1.6000000000000005,0.9237604307034016 -7.78718065295739e-16 0,1 1.131371,-13.880442" />
      <line x1="-1.131371" y1="-13.880442" x2="-0.565685" y2="-14.207041" />
      <path d="M 114.268456,17.146428 A 1.6000000000000005,0.9237604307034016 -7.78718065295739e-16 0,1 114.737085,17.799625" />
      <line x1="90.226825" y1="4.73568" x2="91.747105" y2="5.613414" />
      <path d="M 63.453824,17.799625 A 1.6000000000000005,0.9237604307034016 -7.78718065295739e-16 0,1 63.922453,17.146428" />
      <path d="M 58.265599,20.412415 A 1.6000000000000005,0.9237604307034016 -7.78718065295739e-16 0,1 60.52834,20.412415" />
      <line x1="60.52834" y1="20.412415" x2="60.669762" y2="20.494064" />
      <path d="M 58.831284,20.085816 A 0.8000000000000015,0.46188021535170154 -7.78718065295739e-16 0,1 59.962655,20.085816" />
      <line x1="58.265599" y1="20.412415" x2="58.831284" y2="20.085816" />
      <path d="M 87.964084,3.265986 A 1.6000000000000005,0.9237604307034016 -7.78718065295739e-16 0,1 90.226825,3.265986" />
      <line x1="87.964084" y1="3.265986" x2="88.529769" y2="2.939388" />
      <line x1="33.074399" y1="53.286909" x2="87.168068" y2="22.055914" />
      <line x1="1.927386" y1="4.909486" x2="25.969017" y2="18.789928" />
      <line x1="91.022841" y1="22.055914" x2="115.064471" y2="35.936356" />
      <path d="M 114.445233,35.578839 A 1.8500000000000003,1.068097998000808 -7.78718065295739e-16 0,1 114.987085,36.334098" />
      <path d="M 114.987085,36.334098 A 1.8500000000000003,1.068097998000808 -7.78718065295739e-16 0,1 114.445233,37.089357" />
      <line x1="115.064471" y1="35.936356" x2="114.445233" y2="35.578839" />
      <line x1="114.445233" y1="35.619663" x2="31.006632" y2="83.792962" />
      <path d="M 30.511658,82.93564 A 1.1500000000000017,0.6639528095680707 -7.78718065295739e-16 0,1 28.885312,82.93564" />
      <line x1="28.885312" y1="81.955844" x2="-112.64211" y2="0.244949" />
      <line x1="1.573833" y1="38.998218" x2="0.954594" y2="38.640701" />
      <path d="M 0.954594,38.640701 A 5.6499999999999995,3.2620290209213856 -7.78718065295739e-16 0,1 -0.700253,36.334098" />
      <path d="M -0.700253,36.334098 A 5.6499999999999995,3.2620290209213856 -7.78718065295739e-16 0,1 0.954594,34.027495" />
      <line x1="1.131371" y1="-13.880442" x2="25.173001" y2="-0.0" />
      <line x1="0.954594" y1="34.027495" x2="25.349778" y2="19.942929" />
      <line x1="1.131371" y1="-13.880442" x2="0.565685" y2="-14.207041" />
      <line x1="90.226825" y1="3.265986" x2="114.268456" y2="17.146428" />
      <path d="M 88.529769,2.939388 A 0.8000000000000015,0.46188021535170154 -7.78718065295739e-16 0,1 89.66114,2.939388" />
      <line x1="60.52834" y1="20.412415" x2="59.962655" y2="20.085816" />
      <line x1="90.226825" y1="3.265986" x2="89.66114" y2="2.939388" />
      <path d="M 114.479657,35.599251 A 1.8500000000000003,1.068097998000808 -7.78718065295739e-16 0,1 114.445233,35.619663" />
      <line x1="113.490638" y1="35.027703" x2="30.511658" y2="82.93564" />
      <path d="M 30.511658,81.955844 A 1.1500000000000017,0.6639528095680707 -7.78718065295739e-16 0,1 28.885312,81.955844" />
      <path d="M -0.700253,34.864404 A 5.6499999999999995,3.2620290209213856 -7.78718065295739e-16 0,1 0.954594,32.557801" />
      <path d="M 25.349778,18.43241 A 1.8500000000000003,1.068097998000808 -7.78718065295739e-16 0,1 25.891631,19.18767" />
      <path d="M 25.891631,19.18767 A 1.8500000000000003,1.068097998000808 -7.78718065295739e-16 0,1 25.349778,19.942929" />
      <line x1="0.954594" y1="32.557801" x2="25.349778" y2="18.473235" />
      <line x1="112.64211" y1="34.537805" x2="30.511658" y2="81.955844" />
      <path d="M 31.643028,81.302647 A 2.75,1.587713240271471 7.78718065295739e-16 0,1 27.753941,81.302647" />
      <path d="M -0.700253,35.966176 A 6.349999999999999,3.666174209354123 -7.78718065295739e-16 0,1 -1.400253,34.292856" />
      <path d="M -1.400253,34.292856 A 6.349999999999999,3.666174209354123 -7.78718065295739e-16 0,1 0.459619,31.70048" />
      <path d="M 25.384203,18.452823 A 1.8500000000000003,1.068097998000808 -7.78718065295739e-16 0,1 25.349778,18.473235" />
      <line x1="0.459619" y1="31.70048" x2="24.395184" y2="17.881275" />
      <path d="M -1.400253,33.313061 A 6.349999999999999,3.666174209354123 -7.78718065295739e-16 0,1 0.459619,30.720684" />
      <line x1="0.459619" y1="30.720684" x2="23.546656" y2="17.391377" />
      <path d="M -234.936228,-30.147934 A 0.6,0.3464101615137755 119.99999999999999 0,1 -235.660492,-29.38337" />
      <path d="M -92.100658,52.31822 A 0.6,0.3464101615137755 119.99999999999999 0,1 -92.824922,53.082784" />
      <line x1="-236.456508" y1="-46.703604" x2="-236.456508" y2="-48.173298" />
      <line x1="-212.414877" y1="-32.823163" x2="-212.414877" y2="-34.292856" />
      <line x1="-206.758023" y1="-29.557176" x2="-206.758023" y2="-31.02687" />
      <line x1="-182.716392" y1="-15.676734" x2="-182.716392" y2="-17.146428" />
      <line x1="-177.059538" y1="-12.410748" x2="-177.059538" y2="-13.880442" />
      <line x1="-153.017907" y1="1.469694" x2="-153.017907" y2="-0.0" />
      <line x1="-147.361053" y1="4.73568" x2="-147.361053" y2="3.265986" />
      <line x1="-123.319423" y1="18.616122" x2="-123.319423" y2="17.146428" />
      <line x1="-117.662568" y1="21.882108" x2="-117.662568" y2="20.412415" />
      <line x1="-93.620938" y1="35.76255" x2="-93.620938" y2="34.292856" />
      <path d="M -92.824922,53.082784 C -92.317586,53.373325 -92.023679,53.783 -92.026573,54.195561 C -92.023679,54.608123 -92.317586,55.017798 -92.824922,55.308338" />
      <path d="M -92.100658,55.380082 C -92.100207,55.508772 -92.145954,55.609893 -92.224922,55.654749" />
      <path d="M -92.224922,55.654749 C -92.303253,55.700708 -92.413695,55.689768 -92.524922,55.625031 C -92.636149,55.561336 -92.746594,55.444743 -92.824922,55.308338" />
      <path d="M -240.239529,-30.147934 A 0.6,0.3464101615137755 60.00000000000001 0,0 -239.515265,-29.38337" />
      <path d="M -239.515265,-29.38337 C -239.012033,-29.676281 -238.302457,-29.845968 -237.587878,-29.844297 C -236.8733,-29.845968 -236.163724,-29.676281 -235.660492,-29.38337" />
      <line x1="-238.719249" y1="-46.703604" x2="-238.719249" y2="-48.173298" />
      <line x1="-262.76088" y1="-32.823163" x2="-262.76088" y2="-34.292856" />
      <line x1="-268.417734" y1="-29.557176" x2="-268.417734" y2="-31.02687" />
      <line x1="-266.154992" y1="-30.863571" x2="-266.154992" y2="-31.02687" />
      <line x1="-209.020765" y1="-30.863571" x2="-209.020765" y2="-31.02687" />
      <line x1="-149.623795" y1="3.429286" x2="-149.623795" y2="3.265986" />
      <line x1="-179.32228" y1="-13.717142" x2="-179.32228" y2="-13.880442" />
      <line x1="-119.92531" y1="20.575714" x2="-119.92531" y2="20.412415" />
      <line x1="-92.824922" y1="55.308338" x2="-176.263522" y2="103.481637" />
      <path d="M -175.663522,103.828047 A 0.6,0.3464101615137755 -119.99999999999999 0,1 -176.263522,103.481637" />
      <line x1="-92.824922" y1="55.308338" x2="-93.444161" y2="54.235785" />
      <path d="M -323.678129,18.025364 C -323.680225,18.217845 -323.572001,18.467356 -323.416224,18.629182 C -323.262051,18.794553 -323.070994,18.860975 -322.953865,18.789928" />
      <line x1="-322.15785" y1="1.469694" x2="-322.15785" y2="0.0" />
      <line x1="-298.116219" y1="-12.410748" x2="-298.116219" y2="-13.880442" />
      <line x1="-292.459365" y1="-15.676734" x2="-292.459365" y2="-17.146428" />
      <line x1="-262.76088" y1="35.76255" x2="-262.76088" y2="34.292856" />
      <line x1="-238.719249" y1="21.882108" x2="-238.719249" y2="20.412415" />
      <line x1="-233.062395" y1="18.616122" x2="-233.062395" y2="17.146428" />
      <line x1="-173.665425" y1="52.908978" x2="-173.665425" y2="51.439285" />
      <path d="M -176.263522,103.481637 C -176.766754,103.774548 -177.476331,103.944235 -178.190909,103.942564 C -178.905487,103.944235 -179.615064,103.774548 -180.118295,103.481637" />
      <path d="M -180.718295,103.828047 C -180.639964,103.874007 -180.529522,103.863066 -180.418295,103.79833 C -180.307069,103.734634 -180.196623,103.618041 -180.118295,103.481637" />
      <line x1="-176.263522" y1="103.481637" x2="-176.882761" y2="102.409084" />
      <line x1="-93.444161" y1="54.235785" x2="-93.444161" y2="52.766092" />
      <path d="M -323.678129,21.087226 A 0.6,0.3464101615137755 -60.00000000000001 0,0 -323.553865,21.361892" />
      <path d="M -323.553865,21.361892 A 0.6,0.3464101615137755 -60.00000000000001 0,0 -322.953865,21.015482" />
      <path d="M -322.953865,21.015482 C -323.461202,20.724941 -323.755108,20.315267 -323.752214,19.902705 C -323.755108,19.490143 -323.461202,19.080469 -322.953865,18.789928" />
      <line x1="-295.853477" y1="-13.717142" x2="-295.853477" y2="-13.880442" />
      <path d="M -240.363793,4.01134 C -240.442124,4.0573 -240.552566,4.046359 -240.663793,3.981623 C -240.77502,3.917927 -240.885465,3.801334 -240.963793,3.66493" />
      <line x1="-240.963793" y1="3.66493" x2="-295.057462" y2="34.895924" />
      <path d="M -294.457462,35.242334 A 0.6,0.3464101615137755 -119.99999999999999 0,1 -295.057462,34.895924" />
      <path d="M -234.811964,4.01134 A 0.6,0.3464101615137755 -60.00000000000001 0,0 -234.211964,3.66493" />
      <path d="M -234.211964,3.66493 C -235.0934,3.151881 -236.336259,2.854666 -237.587878,2.857592 C -238.839498,2.854666 -240.082357,3.151881 -240.963793,3.66493" />
      <path d="M -210.063227,18.30003 C -209.984896,18.34599 -209.874454,18.33505 -209.763227,18.270313 C -209.652,18.206617 -209.541555,18.090024 -209.463227,17.95362" />
      <line x1="-209.463227" y1="17.95362" x2="-234.211964" y2="3.66493" />
      <path d="M -210.187491,21.087226 A 0.6,0.3464101615137755 60.00000000000001 0,0 -209.463227,21.85179" />
      <path d="M -209.463227,21.85179 C -208.574601,21.342893 -208.059809,20.625328 -208.064877,19.902705 C -208.059809,19.180082 -208.574601,18.462517 -209.463227,17.95362" />
      <line x1="-236.456508" y1="20.575714" x2="-236.456508" y2="20.412415" />
      <path d="M -264.281159,52.31822 C -264.283255,52.510701 -264.175032,52.760213 -264.019254,52.922038 C -263.865081,53.08741 -263.674025,53.153832 -263.556895,53.082784" />
      <path d="M -205.715561,52.592886 A 0.6,0.3464101615137755 -119.99999999999999 0,1 -206.315561,52.246476" />
      <line x1="-206.315561" y1="52.246476" x2="-181.566823" y2="37.957786" />
      <path d="M -180.966823,38.304196 A 0.6,0.3464101615137755 -119.99999999999999 0,1 -181.566823,37.957786" />
      <path d="M -181.566823,37.957786 C -180.685388,37.444738 -179.442529,37.147522 -178.190909,37.150449 C -176.939289,37.147522 -175.69643,37.444738 -174.814994,37.957786" />
      <path d="M -175.414994,38.304196 C -175.336663,38.350156 -175.226221,38.339216 -175.114994,38.274479 C -175.003768,38.210783 -174.893322,38.09419 -174.814994,37.957786" />
      <line x1="-174.814994" y1="37.957786" x2="-150.066257" y2="52.246476" />
      <path d="M -150.666257,52.592886 A 0.6,0.3464101615137755 -60.00000000000001 0,0 -150.066257,52.246476" />
      <path d="M -150.066257,52.246476 C -149.177631,52.755373 -148.662839,53.472938 -148.667908,54.195561 C -148.662839,54.918184 -149.177631,55.635749 -150.066257,56.144647" />
      <path d="M -150.790521,55.380082 C -150.792617,55.572564 -150.684393,55.822075 -150.528616,55.9839 C -150.374443,56.149272 -150.183386,56.215694 -150.066257,56.144647" />
      <line x1="-182.716392" y1="52.908978" x2="-182.716392" y2="51.439285" />
      <path d="M -175.539258,69.668773 A 0.6,0.3464101615137755 60.00000000000001 0,0 -174.814994,70.433337" />
      <line x1="-180.118295" y1="103.481637" x2="-263.556895" y2="55.308338" />
      <path d="M -264.281159,55.380082 A 0.6,0.3464101615137755 -60.00000000000001 0,0 -264.156895,55.654749" />
      <path d="M -264.156895,55.654749 A 0.6,0.3464101615137755 -60.00000000000001 0,0 -263.556895,55.308338" />
      <line x1="-180.118295" y1="103.481637" x2="-179.499056" y2="102.409084" />
      <line x1="-176.882761" y1="102.409084" x2="-176.882761" y2="100.93939" />
      <line x1="-93.444161" y1="52.766092" x2="-93.479516" y2="52.704854" />
      <path d="M -299.512234,35.242334 C -299.433903,35.288294 -299.323462,35.277354 -299.212234,35.212617 C -299.101008,35.148921 -298.990562,35.032328 -298.912234,34.895924" />
      <line x1="-298.912234" y1="34.895924" x2="-322.953865" y2="21.015482" />
      <line x1="-322.953865" y1="21.015482" x2="-322.334626" y2="19.942929" />
      <path d="M -295.057462,34.895924 C -295.560693,35.188835 -296.27027,35.358522 -296.984848,35.356851 C -297.699426,35.358522 -298.409003,35.188835 -298.912234,34.895924" />
      <line x1="-295.057462" y1="34.895924" x2="-295.676701" y2="33.823371" />
      <line x1="-240.963793" y1="3.66493" x2="-241.583032" y2="2.592377" />
      <line x1="-234.211964" y1="3.66493" x2="-233.592725" y2="2.592377" />
      <line x1="-209.463227" y1="17.95362" x2="-208.843988" y2="16.881067" />
      <path d="M -263.556895,55.308338 C -264.064232,55.017798 -264.358139,54.608123 -264.355245,54.195561 C -264.358139,53.783 -264.064232,53.373325 -263.556895,53.082784" />
      <path d="M -205.591297,55.380082 A 0.6,0.3464101615137755 119.99999999999999 0,1 -206.315561,56.144647" />
      <path d="M -206.315561,56.144647 C -207.204186,55.635749 -207.718979,54.918184 -207.71391,54.195561 C -207.718979,53.472938 -207.204186,52.755373 -206.315561,52.246476" />
      <line x1="-206.315561" y1="52.246476" x2="-206.9348" y2="51.173923" />
      <line x1="-181.566823" y1="37.957786" x2="-182.186062" y2="36.885233" />
      <line x1="-174.814994" y1="37.957786" x2="-174.195756" y2="36.885233" />
      <line x1="-150.066257" y1="52.246476" x2="-149.447018" y2="51.173923" />
      <path d="M -174.814994,70.433337 C -175.69643,70.946385 -176.939289,71.2436 -178.190909,71.240674 C -179.442529,71.2436 -180.685388,70.946385 -181.566823,70.433337" />
      <path d="M -180.842559,69.668773 C -180.840463,69.861254 -180.948687,70.110765 -181.104465,70.27259 C -181.258637,70.437962 -181.449694,70.504384 -181.566823,70.433337" />
      <line x1="-263.556895" y1="55.308338" x2="-262.937657" y2="54.235785" />
      <line x1="-179.499056" y1="102.409084" x2="-179.499056" y2="100.93939" />
      <line x1="-176.882761" y1="100.93939" x2="-177.377736" y2="100.082068" />
      <line x1="-298.912234" y1="34.895924" x2="-298.292996" y2="33.823371" />
      <line x1="-322.334626" y1="19.942929" x2="-322.334626" y2="18.473235" />
      <line x1="-241.583032" y1="2.592377" x2="-241.583032" y2="1.122683" />
      <line x1="-295.676701" y1="33.823371" x2="-295.676701" y2="32.353677" />
      <line x1="-233.592725" y1="2.592377" x2="-233.592725" y2="1.122683" />
      <line x1="-208.843988" y1="16.881067" x2="-208.843988" y2="15.411373" />
      <line x1="-206.9348" y1="51.173923" x2="-206.9348" y2="49.704229" />
      <line x1="-182.186062" y1="36.885233" x2="-182.186062" y2="35.415539" />
      <line x1="-174.195756" y1="36.885233" x2="-174.195756" y2="35.415539" />
      <line x1="-149.447018" y1="51.173923" x2="-149.447018" y2="49.704229" />
      <line x1="-262.937657" y1="54.235785" x2="-262.937657" y2="52.766092" />
      <line x1="-179.499056" y1="100.93939" x2="-179.004082" y2="100.082068" />
      <line x1="-177.377736" y1="100.082068" x2="-177.377736" y2="99.102273" />
      <line x1="-298.292996" y1="33.823371" x2="-298.292996" y2="32.353677" />
      <line x1="-322.334626" y1="18.473235" x2="-322.299271" y2="18.411998" />
      <line x1="-295.676701" y1="32.353677" x2="-296.171675" y2="31.496356" />
      <line x1="-241.583032" y1="1.122683" x2="-242.078007" y2="0.265361" />
      <line x1="-233.592725" y1="1.122683" x2="-233.09775" y2="0.265361" />
      <line x1="-208.843988" y1="15.411373" x2="-208.349013" y2="14.554052" />
      <line x1="-206.9348" y1="49.704229" x2="-207.429774" y2="48.846908" />
      <line x1="-182.186062" y1="35.415539" x2="-182.681037" y2="34.558218" />
      <line x1="-174.195756" y1="35.415539" x2="-173.700781" y2="34.558218" />
      <line x1="-149.447018" y1="49.704229" x2="-148.952043" y2="48.846908" />
      <line x1="-262.937657" y1="52.766092" x2="-262.902301" y2="52.704854" />
      <line x1="-179.004082" y1="100.082068" x2="-179.004082" y2="99.102273" />
      <line x1="-298.292996" y1="32.353677" x2="-297.798021" y2="31.496356" />
      <line x1="-242.078007" y1="0.265361" x2="-242.078007" y2="-0.714435" />
      <line x1="-296.171675" y1="31.496356" x2="-296.171675" y2="30.51656" />
      <line x1="-233.09775" y1="0.265361" x2="-233.09775" y2="-0.714435" />
      <line x1="-208.349013" y1="14.554052" x2="-208.349013" y2="13.574256" />
      <line x1="-207.429774" y1="48.846908" x2="-207.429774" y2="47.867112" />
      <line x1="-182.681037" y1="34.558218" x2="-182.681037" y2="33.578422" />
      <line x1="-173.700781" y1="34.558218" x2="-173.700781" y2="33.578422" />
      <line x1="-148.952043" y1="48.846908" x2="-148.952043" y2="47.867112" />
      <line x1="-176.246365" y1="98.449075" x2="-176.246365" y2="90.12081" />
      <line x1="-102.459773" y1="47.520101" x2="-176.246365" y2="90.12081" />
      <line x1="-297.798021" y1="31.496356" x2="-297.798021" y2="30.51656" />
      <line x1="-103.873986" y1="46.703604" x2="-176.953472" y2="88.896065" />
      <path d="M -176.953472,88.896065 A 1.75,1.0103629710818451 7.78718065295739e-16 0,1 -179.428346,88.896065" />
      <line x1="-298.222285" y1="20.310352" x2="-311.904801" y2="12.410748" />
      <line x1="-179.428346" y1="88.896065" x2="-252.507832" y2="46.703604" />
      <path d="M -295.747411,20.310352 A 1.75,1.0103629710818451 7.78718065295739e-16 0,1 -298.222285,20.310352" />
      <line x1="-240.239529" y1="-11.737138" x2="-295.747411" y2="20.310352" />
      <path d="M -234.936228,-11.737138 A 3.75,2.165063509461097 180.0 0,0 -240.239529,-11.737138" />
      <path d="M -207.260714,7.187436 A 3.75,2.165063509461097 -180.0 0,0 -207.359064,4.184545" />
      <line x1="-207.359064" y1="4.184545" x2="-234.936228" y2="-11.737138" />
      <line x1="-208.419724" y1="38.477401" x2="-180.842559" y2="22.555718" />
      <path d="M -208.518073,41.480293 A 3.75,2.165063509461097 -7.78718065295739e-16 0,1 -208.419724,38.477401" />
      <path d="M -180.842559,22.555718 A 3.75,2.165063509461097 7.78718065295739e-16 0,1 -175.539258,22.555718" />
      <line x1="-175.539258" y1="22.555718" x2="-147.962094" y2="38.477401" />
      <path d="M -147.962094,38.477401 A 3.75,2.165063509461097 -7.78718065295739e-16 0,1 -147.863744,41.480293" />
      <line x1="-180.135453" y1="98.449075" x2="-180.135453" y2="90.12081" />
      <path d="M -176.246365,90.12081 A 2.75,1.587713240271471 7.78718065295739e-16 0,1 -180.135453,90.12081" />
      <path d="M -176.246365,90.12081 A 1.0,0.5773502691896258 60.00000000000001 0,0 -176.953472,88.896065" />
      <path d="M -180.135453,90.12081 A 1.0,0.5773502691896258 119.99999999999999 0,1 -179.428346,88.896065" />
      <path d="M -298.929392,21.535097 A 1.0,0.5773502691896258 119.99999999999999 0,1 -298.222285,20.310352" />
      <line x1="-298.929392" y1="21.535097" x2="-313.319015" y2="13.227245" />
      <line x1="-180.135453" y1="90.12081" x2="-253.922045" y2="47.520101" />
      <path d="M -295.040304,21.535097 A 1.0,0.5773502691896258 60.00000000000001 0,0 -295.747411,20.310352" />
      <path d="M -295.040304,21.535097 A 2.75,1.587713240271471 7.78718065295739e-16 0,1 -298.929392,21.535097" />
      <path d="M -239.532422,-10.512393 A 1.0,0.5773502691896258 60.00000000000001 0,0 -240.239529,-11.737138" />
      <line x1="-239.532422" y1="-10.512393" x2="-295.040304" y2="21.535097" />
      <path d="M -235.643335,-10.512393 A 1.0,0.5773502691896258 119.99999999999999 0,1 -234.936228,-11.737138" />
      <path d="M -235.643335,-10.512393 A 2.75,1.587713240271471 180.0 0,0 -239.532422,-10.512393" />
      <path d="M -207.260714,6.531973 A 2.75,1.587713240271471 -180.0 0,0 -208.06617,5.40929" />
      <path d="M -208.06617,5.40929 A 1.0,0.5773502691896258 119.99999999999999 0,1 -207.359064,4.184545" />
      <line x1="-208.06617" y1="5.40929" x2="-235.643335" y2="-10.512393" />
      <path d="M -207.712617,39.702146 A 1.0,0.5773502691896258 60.00000000000001 0,0 -208.419724,38.477401" />
      <line x1="-207.712617" y1="39.702146" x2="-180.135453" y2="23.780463" />
      <path d="M -180.135453,23.780463 A 1.0,0.5773502691896258 60.00000000000001 0,0 -180.842559,22.555718" />
      <path d="M -208.518073,40.824829 A 2.75,1.587713240271471 -7.78718065295739e-16 0,1 -207.712617,39.702146" />
      <path d="M -180.135453,23.780463 A 2.75,1.587713240271471 7.78718065295739e-16 0,1 -176.246365,23.780463" />
      <path d="M -176.246365,23.780463 A 1.0,0.5773502691896258 119.99999999999999 0,1 -175.539258,22.555718" />
      <line x1="-176.246365" y1="23.780463" x2="-148.669201" y2="39.702146" />
      <path d="M -148.669201,39.702146 A 1.0,0.5773502691896258 119.99999999999999 0,1 -147.962094,38.477401" />
      <path d="M -148.669201,39.702146 A 2.75,1.587713240271471 -7.78718065295739e-16 0,1 -147.863744,40.824829" />
      <line x1="-295.040304" y1="29.863362" x2="-295.040304" y2="21.535097" />
      <line x1="-239.532422" y1="-1.85436" x2="-239.532422" y2="-10.512393" />
      <line x1="-208.06617" y1="13.748558" x2="-208.06617" y2="5.40929" />
      <line x1="-235.643335" y1="-1.85436" x2="-235.643335" y2="-10.512393" />
      <line x1="-180.135453" y1="32.438496" x2="-180.135453" y2="23.780463" />
      <line x1="-207.712617" y1="48.041414" x2="-207.712617" y2="39.702146" />
      <line x1="-148.669201" y1="48.041414" x2="-148.669201" y2="39.702146" />
      <line x1="-176.246365" y1="32.438496" x2="-176.246365" y2="23.780463" />
      <line x1="-298.929392" y1="29.863362" x2="-298.929392" y2="21.535097" />
      <path d="M -115.788735,0.878936 A 0.6,0.3464101615137755 60.00000000000001 0,0 -115.064471,1.6435" />
      <path d="M -91.747105,-13.001506 A 0.6,0.3464101615137755 60.00000000000001 0,0 -91.022841,-12.236942" />
      <line x1="-114.268456" y1="-15.676734" x2="-114.268456" y2="-17.146428" />
      <line x1="-90.226825" y1="-29.557176" x2="-90.226825" y2="-31.02687" />
      <path d="M -91.022841,-12.236942 C -90.519609,-12.529853 -89.810033,-12.69954 -89.095454,-12.697869 C -88.380876,-12.69954 -87.6713,-12.529853 -87.168068,-12.236942" />
      <path d="M -86.443804,-13.001506 C -86.441708,-12.809025 -86.549932,-12.559514 -86.705709,-12.397689 C -86.859882,-12.232317 -87.050939,-12.165895 -87.168068,-12.236942" />
      <path d="M -115.788735,3.940798 A 0.6,0.3464101615137755 -60.00000000000001 0,0 -115.664471,4.215464" />
      <path d="M -115.664471,4.215464 A 0.6,0.3464101615137755 -60.00000000000001 0,0 -115.064471,3.869054" />
      <path d="M -115.064471,3.869054 C -115.571808,3.578513 -115.865715,3.168839 -115.862821,2.756277 C -115.865715,2.343715 -115.571808,1.934041 -115.064471,1.6435" />
      <line x1="-87.964084" y1="-29.557176" x2="-87.964084" y2="-31.02687" />
      <path d="M -32.350135,18.229488 A 0.6,0.3464101615137755 119.99999999999999 0,1 -33.074399,18.994052" />
      <path d="M 27.171098,86.681619 C 27.24943,86.727578 27.359871,86.716638 27.471099,86.651901 C 27.582325,86.588206 27.692771,86.471613 27.771098,86.335209" />
      <line x1="27.771098" y1="86.335209" x2="-115.064471" y2="3.869054" />
      <line x1="-115.064471" y1="3.869054" x2="-114.445233" y2="2.796501" />
      <line x1="-63.922453" y1="-15.676734" x2="-63.922453" y2="-17.146428" />
      <line x1="-58.265599" y1="-12.410748" x2="-58.265599" y2="-13.880442" />
      <line x1="-34.223968" y1="1.469694" x2="-34.223968" y2="-0.0" />
      <path d="M -33.074399,18.994052 C -32.192964,19.5071 -30.950105,19.804316 -29.698485,19.801389 C -28.446865,19.804316 -27.204006,19.5071 -26.32257,18.994052" />
      <path d="M -27.046834,18.229488 C -27.04893,18.421969 -26.940707,18.671481 -26.784929,18.833306 C -26.630756,18.998677 -26.439699,19.065099 -26.32257,18.994052" />
      <path d="M 32.225871,86.681619 A 0.6,0.3464101615137755 -119.99999999999999 0,1 31.625871,86.335209" />
      <path d="M 31.625871,86.335209 C 31.12264,86.62812 30.413063,86.797807 29.698485,86.796136 C 28.983907,86.797807 28.27433,86.62812 27.771098,86.335209" />
      <line x1="27.771098" y1="86.335209" x2="28.390337" y2="85.262655" />
      <line x1="-114.445233" y1="2.796501" x2="-114.445233" y2="1.326807" />
      <line x1="-60.52834" y1="-13.717142" x2="-60.52834" y2="-13.880442" />
      <line x1="-25.173001" y1="1.469694" x2="-25.173001" y2="-0.0" />
      <line x1="34.223968" y1="35.76255" x2="34.223968" y2="34.292856" />
      <line x1="25.173001" y1="35.76255" x2="25.173001" y2="34.292856" />
      <path d="M -2.65165,4.144922 A 0.6,0.3464101615137755 60.00000000000001 0,0 -1.927386,4.909486" />
      <path d="M 115.788735,38.233654 C 115.789186,38.362344 115.743439,38.463465 115.664471,38.50832" />
      <path d="M 115.664471,38.50832 C 115.58614,38.55428 115.475698,38.54334 115.364471,38.478603 C 115.253245,38.414907 115.142799,38.298314 115.064471,38.16191" />
      <line x1="115.064471" y1="38.16191" x2="31.625871" y2="86.335209" />
      <line x1="31.625871" y1="86.335209" x2="31.006632" y2="85.262655" />
      <line x1="28.390337" y1="85.262655" x2="28.390337" y2="83.792962" />
      <line x1="-114.445233" y1="1.326807" x2="-114.409877" y2="1.26557" />
      <line x1="-1.131371" y1="-12.410748" x2="-1.131371" y2="-13.880442" />
      <line x1="58.265599" y1="21.882108" x2="58.265599" y2="20.412415" />
      <line x1="63.922453" y1="18.616122" x2="63.922453" y2="17.146428" />
      <line x1="87.964084" y1="4.73568" x2="87.964084" y2="3.265986" />
      <path d="M -1.927386,4.909486 C -1.424155,4.616575 -0.714578,4.446888 -0.0,4.448559 C 0.714578,4.446888 1.424155,4.616575 1.927386,4.909486" />
      <path d="M 2.65165,4.144922 C 2.653746,4.337403 2.545523,4.586914 2.389745,4.74874 C 2.235572,4.914111 2.044516,4.980533 1.927386,4.909486" />
      <path d="M 115.788735,35.171792 A 0.6,0.3464101615137755 119.99999999999999 0,1 115.064471,35.936356" />
      <path d="M 115.064471,35.936356 C 115.571808,36.226897 115.865715,36.636571 115.862821,37.049133 C 115.865715,37.461695 115.571808,37.871369 115.064471,38.16191" />
      <line x1="115.064471" y1="38.16191" x2="114.445233" y2="37.089357" />
      <line x1="31.006632" y1="85.262655" x2="31.006632" y2="83.792962" />
      <line x1="28.390337" y1="83.792962" x2="28.885312" y2="82.93564" />
      <path d="M 2.298097,38.233654 C 2.300193,38.426135 2.191969,38.675647 2.036192,38.837472 C 1.882019,39.002844 1.690962,39.069266 1.573833,38.998218" />
      <path d="M 27.046834,52.522344 A 0.6,0.3464101615137755 119.99999999999999 0,1 26.32257,53.286909" />
      <path d="M 2.173833,35.446458 A 0.6,0.3464101615137755 -119.99999999999999 0,1 1.573833,35.100048" />
      <path d="M 1.573833,35.100048 C 0.685207,35.608945 0.170415,36.32651 0.175484,37.049133 C 0.170415,37.771756 0.685207,38.489321 1.573833,38.998218" />
      <line x1="25.173001" y1="1.469694" x2="25.173001" y2="-0.0" />
      <path d="M 26.693281,21.087226 C 26.693732,21.215916 26.647985,21.317037 26.569017,21.361892" />
      <path d="M 26.569017,21.361892 C 26.490686,21.407852 26.380244,21.396912 26.269017,21.332175 C 26.15779,21.268479 26.047345,21.151886 25.969017,21.015482" />
      <line x1="25.969017" y1="21.015482" x2="1.573833" y2="35.100048" />
      <line x1="1.131371" y1="-12.410748" x2="1.131371" y2="-13.880442" />
      <line x1="114.268456" y1="18.616122" x2="114.268456" y2="17.146428" />
      <line x1="60.52834" y1="20.575714" x2="60.52834" y2="20.412415" />
      <line x1="90.226825" y1="4.73568" x2="90.226825" y2="3.265986" />
      <path d="M 32.350135,52.522344 C 32.348039,52.714826 32.456263,52.964337 32.61204,53.126162 C 32.766213,53.291534 32.95727,53.357956 33.074399,53.286909" />
      <path d="M 86.443804,21.29135 A 0.6,0.3464101615137755 60.00000000000001 0,0 87.168068,22.055914" />
      <path d="M 26.32257,53.286909 C 27.204006,53.799957 28.446865,54.097172 29.698485,54.094246 C 30.950105,54.097172 32.192964,53.799957 33.074399,53.286909" />
      <path d="M 26.693281,18.025364 A 0.6,0.3464101615137755 119.99999999999999 0,1 25.969017,18.789928" />
      <path d="M 91.747105,21.29135 C 91.749201,21.483831 91.640977,21.733343 91.4852,21.895168 C 91.331027,22.06054 91.13997,22.126961 91.022841,22.055914" />
      <line x1="114.445233" y1="37.089357" x2="114.445233" y2="35.619663" />
      <line x1="31.006632" y1="83.792962" x2="30.511658" y2="82.93564" />
      <line x1="28.885312" y1="82.93564" x2="28.885312" y2="81.955844" />
      <line x1="1.573833" y1="35.100048" x2="0.954594" y2="34.027495" />
      <path d="M 25.969017,18.789928 C 26.476354,19.080469 26.77026,19.490143 26.767366,19.902705 C 26.77026,20.315267 26.476354,20.724941 25.969017,21.015482" />
      <line x1="25.969017" y1="21.015482" x2="25.349778" y2="19.942929" />
      <path d="M 87.168068,22.055914 C 87.6713,21.763003 88.380876,21.593316 89.095454,21.594987 C 89.810033,21.593316 90.519609,21.763003 91.022841,22.055914" />
      <line x1="114.445233" y1="35.619663" x2="114.409877" y2="35.558426" />
      <line x1="30.511658" y1="82.93564" x2="30.511658" y2="81.955844" />
      <line x1="0.954594" y1="34.027495" x2="0.954594" y2="32.557801" />
      <line x1="25.349778" y1="19.942929" x2="25.349778" y2="18.473235" />
      <line x1="27.753941" y1="72.974382" x2="-105.429621" y2="-3.919184" />
      <line x1="27.753941" y1="81.302647" x2="27.753941" y2="72.974382" />
      <line x1="28.461048" y1="71.749637" x2="-104.015408" y2="-4.73568" />
      <path d="M 30.935922,71.749637 A 1.75,1.0103629710818451 7.78718065295739e-16 0,1 28.461048,71.749637" />
      <line x1="104.015408" y1="29.557176" x2="30.935922" y2="71.749637" />
      <line x1="14.919953" y1="12.410748" x2="-0.53033" y2="21.330973" />
      <path d="M -0.53033,21.330973 A 3.75,2.165063509461097 -180.0 0,0 -0.62868,24.333864" />
      <line x1="0.954594" y1="32.557801" x2="0.459619" y2="31.70048" />
      <line x1="25.349778" y1="18.473235" x2="25.314423" y2="18.411998" />
      <path d="M 31.643028,72.974382 A 2.75,1.587713240271471 7.78718065295739e-16 0,1 27.753941,72.974382" />
      <line x1="31.643028" y1="81.302647" x2="31.643028" y2="72.974382" />
      <path d="M 27.753941,72.974382 A 1.0,0.5773502691896258 119.99999999999999 0,1 28.461048,71.749637" />
      <path d="M 31.643028,72.974382 A 1.0,0.5773502691896258 60.00000000000001 0,0 30.935922,71.749637" />
      <line x1="105.429621" y1="30.373673" x2="31.643028" y2="72.974382" />
      <line x1="16.334167" y1="13.227245" x2="0.176777" y2="22.555718" />
      <path d="M 0.176777,22.555718 A 1.0,0.5773502691896258 60.00000000000001 0,0 -0.53033,21.330973" />
      <path d="M 0.176777,22.555718 A 2.75,1.587713240271471 -180.0 0,0 -0.62868,23.678401" />
      <line x1="0.459619" y1="31.70048" x2="0.459619" y2="30.720684" />
      <line x1="0.176777" y1="30.894986" x2="0.176777" y2="22.555718" />
      <line x1="-91.002309" y1="53.849151" x2="-91.002309" y2="38.171215" />
      <path d="M -91.002309,53.849151 C -91.001439,54.298369 -91.188488,54.746518 -91.543114,55.123898 C -91.730139,55.323243 -91.957408,55.500193 -92.224922,55.654749" />
      <path d="M -239.515265,-29.38337 C -239.06176,-29.651634 -238.327866,-29.840163 -237.587304,-29.835653 C -236.847126,-29.839979 -236.113765,-29.651488 -235.660492,-29.38337" />
      <line x1="-324.776479" y1="19.556295" x2="-324.776479" y2="3.878359" />
      <line x1="-211.946248" y1="-33.639659" x2="-211.946248" y2="-32.552599" />
      <line x1="-263.229509" y1="-33.639659" x2="-263.229509" y2="-32.552599" />
      <line x1="-182.247763" y1="-16.493231" x2="-182.247763" y2="-15.406171" />
      <line x1="-265.379509" y1="53.849151" x2="-265.379509" y2="38.171215" />
      <line x1="-152.549278" y1="0.653197" x2="-152.549278" y2="1.740257" />
      <line x1="-122.850793" y1="17.799625" x2="-122.850793" y2="18.886685" />
      <line x1="-93.152309" y1="34.946054" x2="-93.152309" y2="36.033113" />
      <line x1="-92.224922" y1="55.654749" x2="-175.663522" y2="103.828047" />
      <path d="M -175.663522,103.828047 C -176.343125,104.222858 -177.264112,104.44279 -178.191626,104.441104 C -179.118655,104.442566 -180.039025,104.222659 -180.718295,103.828047" />
      <path d="M -323.553865,21.361892 C -323.821708,21.207146 -324.049202,21.029955 -324.236348,20.830318 C -324.59053,20.453106 -324.777343,20.005246 -324.776478,19.556295" />
      <line x1="-322.626479" y1="0.653197" x2="-322.626479" y2="1.740257" />
      <line x1="-292.927994" y1="-16.493231" x2="-292.927994" y2="-15.406171" />
      <line x1="-240.363793" y1="4.01134" x2="-294.457462" y2="35.242334" />
      <path d="M -234.811964,4.01134 C -235.145489,3.8182 -235.565982,3.651733 -236.034796,3.537609 C -236.518954,3.41898 -237.053743,3.355769 -237.588699,3.356133 C -238.6423,3.351102 -239.688117,3.613825 -240.363793,4.01134" />
      <line x1="-210.063227" y1="18.30003" x2="-234.811964" y2="4.01134" />
      <path d="M -209.089141,19.556295 C -209.087974,19.447594 -209.111069,19.332965 -209.158424,19.21241 C -209.213352,19.07621 -209.306637,18.924071 -209.455636,18.766566 C -209.603864,18.609432 -209.807807,18.446933 -210.063227,18.30003" />
      <line x1="-263.229509" y1="34.946054" x2="-263.229509" y2="36.033113" />
      <line x1="-233.531024" y1="17.799625" x2="-233.531024" y2="18.886685" />
      <line x1="-205.715561" y1="52.592886" x2="-180.966823" y2="38.304196" />
      <path d="M -180.966823,38.304196 C -180.633298,38.111056 -180.212805,37.94459 -179.743992,37.830465 C -179.259833,37.711836 -178.725044,37.648626 -178.190088,37.64899 C -177.136487,37.643959 -176.09067,37.906681 -175.414994,38.304196" />
      <line x1="-175.414994" y1="38.304196" x2="-150.666257" y2="52.592886" />
      <path d="M -150.666257,52.592886 C -150.520561,52.677394 -150.391937,52.764892 -150.280385,52.85538 C -150.05305,53.038729 -149.902907,53.225645 -149.814554,53.391758 C -149.725922,53.559397 -149.692873,53.705746 -149.692172,53.849151" />
      <line x1="-174.134055" y1="52.092482" x2="-174.134055" y2="53.179542" />
      <line x1="-182.247763" y1="52.092482" x2="-182.247763" y2="53.179542" />
      <line x1="-180.718295" y1="103.828047" x2="-264.156895" y2="55.654749" />
      <line x1="-299.512234" y1="35.242334" x2="-323.553865" y2="21.361892" />
      <path d="M -294.457462,35.242334 C -295.137064,35.637145 -296.058051,35.857077 -296.985565,35.855392 C -297.912594,35.856853 -298.832964,35.636946 -299.512234,35.242334" />
      <path d="M -264.156895,55.654749 C -264.424738,55.500003 -264.652232,55.322811 -264.839379,55.123174 C -265.193561,54.745962 -265.380373,54.298102 -265.379509,53.849151" />
      <path d="M -206.689646,53.849151 C -206.690813,53.74045 -206.667719,53.625822 -206.620363,53.505267 C -206.565436,53.369066 -206.472151,53.216927 -206.323151,53.059423 C -206.174923,52.902289 -205.970981,52.739789 -205.715561,52.592886" />
      <path d="M -174.814994,70.433337 C -175.723899,70.961827 -176.973297,71.257513 -178.228756,71.249229 C -179.458878,71.245761 -180.676092,70.95105 -181.566823,70.433337" />
      <line x1="-207.189141" y1="17.717976" x2="-207.189141" y2="19.18767" />
      <line x1="-147.792172" y1="52.010832" x2="-147.792172" y2="53.480526" />
      <line x1="-208.589646" y1="52.010832" x2="-208.589646" y2="53.480526" />
      <line x1="-206.489141" y1="16.166632" x2="-206.489141" y2="17.146428" />
      <line x1="-147.092172" y1="50.459489" x2="-147.092172" y2="51.439285" />
      <line x1="-209.289646" y1="50.459489" x2="-209.289646" y2="51.439285" />
      <line x1="-207.260714" y1="6.531973" x2="-207.260714" y2="14.415095" />
      <line x1="-147.863744" y1="40.824829" x2="-147.863744" y2="48.707951" />
      <line x1="-208.518073" y1="40.824829" x2="-208.518073" y2="48.707951" />
      <line x1="-116.887085" y1="2.409867" x2="-116.887085" y2="-13.268069" />
      <path d="M -91.022841,-12.236942 C -90.569336,-12.505206 -89.835442,-12.693734 -89.09488,-12.689224 C -88.354702,-12.693551 -87.621341,-12.50506 -87.168068,-12.236942" />
      <path d="M -115.664471,4.215464 C -115.932314,4.060718 -116.159808,3.883527 -116.346955,3.68389 C -116.701136,3.306678 -116.887949,2.858818 -116.887085,2.409867" />
      <line x1="-114.737085" y1="-16.493231" x2="-114.737085" y2="-15.406171" />
      <line x1="27.171098" y1="86.681619" x2="-115.664471" y2="4.215464" />
      <path d="M -33.074399,18.994052 C -32.165495,19.522542 -30.916096,19.818229 -29.660637,19.809945 C -28.430516,19.806476 -27.213301,19.511766 -26.32257,18.994052" />
      <path d="M 32.225871,86.681619 C 31.546269,87.07643 30.625282,87.296362 29.697768,87.294676 C 28.770739,87.296138 27.850369,87.07623 27.171098,86.681619" />
      <line x1="116.887085" y1="36.702723" x2="116.887085" y2="21.024787" />
      <line x1="-63.453824" y1="-16.493231" x2="-63.453824" y2="-15.406171" />
      <line x1="-33.755339" y1="0.653197" x2="-33.755339" y2="1.740257" />
      <line x1="27.791631" y1="19.556295" x2="27.791631" y2="3.878359" />
      <line x1="-25.641631" y1="0.653197" x2="-25.641631" y2="1.740257" />
      <line x1="33.755339" y1="34.946054" x2="33.755339" y2="36.033113" />
      <line x1="25.641631" y1="34.946054" x2="25.641631" y2="36.033113" />
      <line x1="115.664471" y1="38.50832" x2="32.225871" y2="86.681619" />
      <path d="M -1.927386,4.909486 C -1.473881,4.641223 -0.739988,4.452694 0.000575,4.457204 C 0.740752,4.452877 1.474114,4.641368 1.927386,4.909486" />
      <path d="M 116.887085,36.702723 C 116.887954,37.15194 116.700905,37.60009 116.34628,37.97747 C 116.159255,38.176814 115.931985,38.353765 115.664471,38.50832" />
      <path d="M 2.173833,35.446458 C 2.028137,35.530966 1.899513,35.618464 1.787961,35.708951 C 1.560626,35.892301 1.410483,36.079217 1.32213,36.24533 C 1.233498,36.412969 1.200449,36.559318 1.199748,36.702723" />
      <line x1="25.641631" y1="0.653197" x2="25.641631" y2="1.740257" />
      <line x1="26.569017" y1="21.361892" x2="2.173833" y2="35.446458" />
      <line x1="114.737085" y1="17.799625" x2="114.737085" y2="18.886685" />
      <line x1="63.453824" y1="17.799625" x2="63.453824" y2="18.886685" />
      <path d="M 26.32257,53.286909 C 27.231475,53.815399 28.480873,54.111085 29.736332,54.102801 C 30.966454,54.099333 32.183668,53.804622 33.074399,53.286909" />
      <path d="M 27.79163,19.556295 C 27.7925,20.005512 27.605451,20.453661 27.250825,20.831042 C 27.0638,21.030386 26.836531,21.207336 26.569017,21.361892" />
      <path d="M 87.168068,22.055914 C 87.621573,21.787651 88.355467,21.599122 89.096029,21.603632 C 89.836207,21.599305 90.569568,21.787797 91.022841,22.055914" />
      <line x1="-0.700253" y1="34.864404" x2="-0.700253" y2="36.334098" />
      <line x1="-1.400253" y1="33.313061" x2="-1.400253" y2="34.292856" />
      <line x1="-0.62868" y1="23.678401" x2="-0.62868" y2="31.561523" />
    </g>
  </g>
</svg>