<?xml version='1.0' encoding='utf-8'?>
<svg width="100.09mm" height="44.610138mm" viewBox="-85.108011 -35.906174 112.950424 50.342032" version="1.1" xmlns="http://www.w3.org/2000/svg">
  <g transform="scale(1,-1)" stroke-linecap="round">
    <g fill="none" stroke="rgb(240,246,252)" stroke-width="0.10156397399141107" id="visible">
      <line x1="-84.251773" y1="11.900438" x2="-74.50657" y2="17.526833" />
      <path d="M -84.251773,9.655072 A 2.75,1.587713240271471 -180.0 0,0 -85.057229,10.777755" />
      <path d="M -85.057229,10.777755 A 2.75,1.587713240271471 -180.0 0,0 -84.251773,11.900438" />
      <path d="M -70.32177,17.697563 C -70.516734,17.746359 -70.719845,17.79402 -70.931102,17.840546 C -71.390373,17.940704 -71.951233,18.026594 -72.534788,18.012746 C -73.25876,18.000096 -73.98882,17.829051 -74.50657,17.526833" />
      <line x1="-84.251773" y1="9.655072" x2="-67.950544" y2="0.243553" />
      <line x1="-70.321769" y1="17.697563" x2="-54.02054" y2="8.286044" />
      <line x1="-54.02054" y1="8.286044" x2="-67.950544" y2="0.243553" />
      <line x1="-68.193844" y1="-0.507216" x2="-61.341513" y2="-10.002083" />
      <path d="M -67.950544,0.243553 A 0.6,0.3464101615137755 119.99999999999999 0,1 -68.250544,0.27327" />
      <path d="M -68.250544,0.27327 A 0.6,0.3464101615137755 119.99999999999999 0,1 -68.193844,-0.507216" />
      <path d="M -54.582038,7.351564 A 0.6,0.3464101615137755 -60.00000000000001 0,0 -54.763003,7.857384" />
      <line x1="-54.582038" y1="7.351564" x2="-47.729708" y2="-2.143304" />
      <path d="M -47.729708,-2.143304 Q -47.676722,-2.219726 -47.623736,-2.296148 Q -47.522318,-2.451325 -47.43146,-2.6105 Q -47.343706,-2.770582 -47.267388,-2.933095 Q -47.194402,-3.096069 -47.133584,-3.259876 Q -47.106079,-3.341715 -47.078573,-3.423553 Q -47.055152,-3.505144 -47.03173,-3.586735 Q -47.012465,-3.667821 -46.993201,-3.748907 Q -46.978154,-3.829233 -46.963107,-3.909559 Q -46.952325,-3.988873 -46.941543,-4.068187 Q -46.935061,-4.146239 -46.928578,-4.224291 Q -46.926415,-4.300835 -46.924251,-4.377379" />
      <path d="M -46.924251,-4.377379 L -46.928577,-4.526972 L -46.941542,-4.672597 L -46.963105,-4.813796 L -46.993199,-4.950126 L -47.031728,-5.081156 L -47.078571,-5.206475 L -47.133581,-5.325689 L -47.196586,-5.438422 L -47.267386,-5.544319 L -47.345759,-5.643048 L -47.431458,-5.734298 L -47.524214,-5.817782 L -47.623735,-5.893237 L -47.729708,-5.960425" />
      <line x1="-47.729708" y1="-5.960425" x2="-57.452426" y2="-11.573839" />
      <path d="M -61.341513,-10.002083 L -61.111567,-10.296705 L -60.860058,-10.573504 L -60.59015,-10.828999 L -60.305237,-11.059976 L -60.008902,-11.263531 L -59.704872,-11.437104 L -59.39697,-11.578513 L -59.089067,-11.685979 L -58.785037,-11.75815 L -58.488702,-11.79412 L -58.203789,-11.793435 L -57.933881,-11.756104 L -57.682373,-11.682598 L -57.452426,-11.573839" />
      <line x1="-69.955346" y1="20.154484" x2="-60.210142" y2="25.78088" />
      <path d="M -56.321055,25.78088 A 2.75,1.587713240271471 7.78718065295739e-16 0,1 -60.210142,25.78088" />
      <path d="M -70.251059,17.738388 C -70.335576,17.850951 -70.418127,17.968217 -70.498711,18.090187 C -70.672191,18.355347 -70.820957,18.679159 -70.796972,19.016075 C -70.77506,19.434061 -70.478803,19.855561 -69.955346,20.154484" />
      <line x1="-70.251059" y1="17.738388" x2="-53.94983" y2="8.326869" />
      <line x1="-56.321055" y1="25.78088" x2="-40.019826" y2="16.369361" />
      <line x1="-40.019826" y1="16.369361" x2="-53.94983" y2="8.326869" />
      <path d="M -53.874931,7.759812 A 0.6,0.3464101615137755 -60.00000000000001 0,0 -54.055896,8.265632" />
      <path d="M -54.05442,8.305605 A 0.6,0.3464101615137755 -60.00000000000001 0,0 -54.042424,8.380328" />
      <line x1="-53.874931" y1="7.759812" x2="-47.022601" y2="-1.735055" />
      <line x1="-40.263126" y1="15.618592" x2="-33.410795" y2="6.123724" />
      <path d="M -40.44409,16.124412 A 0.6,0.3464101615137755 119.99999999999999 0,1 -40.263126,15.618592" />
      <path d="M -33.410795,6.123724 Q -33.357809,6.047302 -33.304823,5.97088 Q -33.203406,5.815703 -33.112547,5.656528 Q -33.024794,5.496446 -32.948476,5.333933 Q -32.87549,5.170959 -32.814672,5.007152 Q -32.787166,4.925313 -32.759661,4.843475 Q -32.736239,4.761884 -32.712818,4.680293 Q -32.693553,4.599207 -32.674288,4.518121 Q -32.659241,4.437795 -32.644195,4.357469 Q -32.633413,4.278155 -32.622631,4.198841 Q -32.616148,4.120789 -32.609666,4.042737 Q -32.607502,3.966193 -32.605339,3.889649" />
      <path d="M -32.605339,3.889649 L -32.609665,3.740056 L -32.62263,3.594431 L -32.644193,3.453232 L -32.674286,3.316902 L -32.712815,3.185872 L -32.759659,3.060553 L -32.814669,2.941339 L -32.877673,2.828606 L -32.948474,2.722709 L -33.026847,2.62398 L -33.112546,2.53273 L -33.205302,2.449246 L -33.304823,2.373791 L -33.410795,2.306603" />
      <line x1="-33.410795" y1="2.306603" x2="-43.133514" y2="-3.306811" />
      <path d="M -47.022601,-1.735055 L -46.792654,-2.029677 L -46.541146,-2.306476 L -46.271238,-2.561971 L -45.986325,-2.792948 L -45.68999,-2.996503 L -45.38596,-3.170076 L -45.078057,-3.311485 L -44.770155,-3.418951 L -44.466125,-3.491122 L -44.16979,-3.527092 L -43.884877,-3.526407 L -43.614969,-3.489076 L -43.36346,-3.41557 L -43.133514,-3.306811" />
      <line x1="-26.693281" y1="2.347428" x2="-26.693281" y2="18.025364" />
      <path d="M -27.791631,3.878359 A 3.75,2.165063509461097 -7.78718065295739e-16 0,1 -26.693281,2.347428" />
      <path d="M -26.693281,18.025364 C -27.391262,18.425083 -27.795612,18.988702 -27.79163,19.556295" />
      <line x1="-2.65165" y1="-11.533014" x2="-2.65165" y2="4.144922" />
      <line x1="-26.693281" y1="2.347428" x2="-2.65165" y2="-11.533014" />
      <line x1="-2.65165" y1="4.144922" x2="-26.693281" y2="18.025364" />
      <line x1="-26.693281" y1="2.347428" x2="-25.173001" y2="1.469694" />
      <path d="M 26.693281,2.347428 A 3.75,2.165063509461097 -7.78718065295739e-16 0,1 27.791631,3.878359" />
      <line x1="26.693281" y1="18.025364" x2="26.693281" y2="2.347428" />
      <path d="M 27.79163,19.556295 C 27.795612,18.988702 27.391262,18.425083 26.693281,18.025364" />
      <line x1="-25.349778" y1="19.942929" x2="-1.308148" y2="33.823371" />
      <line x1="2.65165" y1="-11.533014" x2="2.65165" y2="4.144922" />
      <path d="M -2.65165,-11.533014 A 3.75,2.165063509461097 -7.78718065295739e-16 0,1 2.65165,-11.533014" />
      <path d="M 2.65165,4.144922 C 1.959317,3.741942 0.983099,3.508491 -0.0,3.51079 C -0.983099,3.508491 -1.959317,3.741942 -2.65165,4.144922" />
      <line x1="-2.65165" y1="-11.533014" x2="-1.131371" y2="-12.410748" />
      <line x1="-25.173001" y1="1.469694" x2="-1.131371" y2="-12.410748" />
      <path d="M -25.641631,0.653197 A 1.6000000000000005,0.9237604307034016 -7.78718065295739e-16 0,1 -25.173001,-0.0" />
      <path d="M 1.308148,33.823371 A 1.8500000000000003,1.068097998000808 -7.78718065295739e-16 0,1 -1.308148,33.823371" />
      <line x1="2.65165" y1="-11.533014" x2="26.693281" y2="2.347428" />
      <line x1="26.693281" y1="18.025364" x2="2.65165" y2="4.144922" />
      <line x1="-1.927386" y1="4.909486" x2="-25.969017" y2="18.789928" />
      <path d="M -25.349778,19.942929 A 1.8500000000000003,1.068097998000808 -7.78718065295739e-16 0,1 -25.891631,19.18767" />
      <path d="M -25.891631,19.18767 A 1.8500000000000003,1.068097998000808 -7.78718065295739e-16 0,1 -25.349778,18.43241" />
      <line x1="-25.349778" y1="18.473235" x2="-1.308148" y2="32.353677" />
      <line x1="2.65165" y1="-11.533014" x2="1.131371" y2="-12.410748" />
      <path d="M -1.131371,-12.410748 A 1.6000000000000005,0.9237604307034016 -7.78718065295739e-16 0,1 1.131371,-12.410748" />
      <line x1="-25.173001" y1="-0.0" x2="-1.131371" y2="-13.880442" />
      <path d="M -0.565685,-14.207041 A 0.8000000000000015,0.46188021535170154 -7.78718065295739e-16 0,1 0.565685,-14.207041" />
      <line x1="1.308148" y1="33.823371" x2="25.349778" y2="19.942929" />
      <path d="M 1.308148,32.353677 A 1.8500000000000003,1.068097998000808 -7.78718065295739e-16 0,1 -1.308148,32.353677" />
      <path d="M -25.349778,18.473235 A 1.8500000000000003,1.068097998000808 -7.78718065295739e-16 0,1 -25.384203,18.452823" />
      <line x1="-24.395184" y1="17.881275" x2="-15.1096" y2="23.242309" />
      <line x1="-15.1096" y1="23.242309" x2="-10.558376" y2="25.86996" />
      <line x1="-10.558376" y1="25.86996" x2="-0.813173" y2="31.496356" />
      <line x1="1.131371" y1="-12.410748" x2="2.65165" y2="-11.533014" />
      <path d="M -1.131371,-13.880442 A 1.6000000000000005,0.9237604307034016 -7.78718065295739e-16 0,1 1.131371,-13.880442" />
      <line x1="-1.131371" y1="-13.880442" x2="-0.565685" y2="-14.207041" />
      <path d="M 25.173001,-0.0 A 1.6000000000000005,0.9237604307034016 -7.78718065295739e-16 0,1 25.641631,0.653197" />
      <line x1="1.131371" y1="-13.880442" x2="0.565685" y2="-14.207041" />
      <line x1="1.131371" y1="-13.880442" x2="25.173001" y2="-0.0" />
      <line x1="25.969017" y1="18.789928" x2="1.927386" y2="4.909486" />
      <path d="M 25.349778,18.43241 A 1.8500000000000003,1.068097998000808 -7.78718065295739e-16 0,1 25.891631,19.18767" />
      <path d="M 25.891631,19.18767 A 1.8500000000000003,1.068097998000808 -7.78718065295739e-16 0,1 25.349778,19.942929" />
      <line x1="1.308148" y1="32.353677" x2="25.349778" y2="18.473235" />
      <path d="M 0.813173,31.496356 A 1.15,0.6639528095680697 -7.78718065295739e-16 0,1 -0.813173,31.496356" />
      <line x1="-19.445436" y1="15.023537" x2="-15.132085" y2="17.513852" />
      <line x1="-15.132085" y1="17.513852" x2="-15.132085" y2="22.861904" />
      <path d="M -15.1096,23.242309 A 3.2,1.8475208614068024 -120.00000000000001 0,1 -15.132085,22.861904" />
      <path d="M -10.854089,23.453864 C -10.938606,23.566427 -11.021157,23.683693 -11.101742,23.805663 C -11.275222,24.070823 -11.423987,24.394635 -11.400002,24.731551 C -11.37809,25.149537 -11.081833,25.571037 -10.558376,25.86996" />
      <line x1="-10.854089" y1="23.453864" x2="5.44714" y2="14.042345" />
      <line x1="18.245773" y1="21.431639" x2="5.44714" y2="14.042345" />
      <line x1="18.245773" y1="21.431639" x2="24.395184" y2="17.881275" />
      <line x1="5.376429" y1="14.001521" x2="-6.149411" y2="7.347073" />
      <line x1="-10.9248" y1="23.413039" x2="5.376429" y2="14.001521" />
      <path d="M -10.9248,23.41304 C -11.119764,23.461835 -11.322875,23.509496 -11.534132,23.556022 C -11.993404,23.65618 -12.554263,23.74207 -13.137819,23.728222 C -13.861791,23.715572 -14.59185,23.544528 -15.1096,23.242309" />
      <line x1="-10.535891" y1="25.515518" x2="-10.535891" y2="23.422344" />
      <line x1="-7.717083" y1="21.794905" x2="-0.813173" y2="25.78088" />
      <line x1="-0.813173" y1="30.51656" x2="-0.813173" y2="25.78088" />
      <line x1="-0.813173" y1="31.496356" x2="-0.813173" y2="30.51656" />
      <path d="M -10.558376,25.86996 A 3.2,1.8475208614068028 60.00000000000001 0,0 -10.535891,25.515518" />
      <path d="M 25.384203,18.452823 A 1.8500000000000003,1.068097998000808 -7.78718065295739e-16 0,1 25.349778,18.473235" />
      <line x1="0.813173" y1="31.496356" x2="18.245773" y2="21.431639" />
      <path d="M 0.813173,30.51656 A 1.15,0.6639528095680697 -7.78718065295739e-16 0,1 -0.813173,30.51656" />
      <path d="M 5.44714,14.042345 C 5.434542,14.143365 5.422061,14.208964 5.406819,14.217817" />
      <path d="M 5.406819,14.217817 Q 5.403241,14.219905 5.399409,14.21771" />
      <path d="M 17.945773,21.461357 A 0.6,0.3464101615137755 -60.00000000000001 0,0 18.245773,21.431639" />
      <path d="M 5.376429,14.001521 C 5.174505,14.010158 4.969508,13.969551 4.82416,13.88559" />
      <line x1="0.813173" y1="30.51656" x2="17.221509" y2="21.043203" />
      <path d="M 1.581534,30.072946 C 1.290257,30.241577 0.996797,30.379284 0.701155,30.486065 C 0.417582,30.586743 0.134176,30.657247 -0.142072,30.667426 C -0.378188,30.676135 -0.610637,30.634457 -0.813173,30.51656" />
      <line x1="-84.251773" y1="9.655072" x2="-84.251773" y2="3.939596" />
      <path d="M -84.251773,3.939596 A 2.75,1.587713240271471 -180.0 0,0 -85.057229,5.062279" />
      <path d="M -84.251773,3.939596 A 4.25,2.45373864405591 119.99999999999999 0,1 -81.246569,-1.26557" />
      <path d="M -81.246569,-1.26557 A 2.75,1.5877132402714706 -120.00000000000001 0,1 -80.677026,-2.524457" />
      <line x1="-61.341513" y1="-10.002083" x2="-61.341513" y2="-12.757759" />
      <line x1="-81.246569" y1="-1.26557" x2="-61.341513" y2="-12.757759" />
      <line x1="-54.582038" y1="7.351564" x2="-68.193844" y2="-0.507216" />
      <path d="M -61.341513,-12.757759 A 2.75,1.587713240271471 -119.99999999999999 0,1 -60.77197,-14.016646" />
      <path d="M -58.02197,-14.016646 A 2.75,1.587713240271471 119.99999999999999 0,1 -57.452426,-12.757759" />
      <path d="M -47.729708,-7.144345 A 2.75,1.5877132402714706 -59.99999999999999 0,0 -48.299251,-8.403232" />
      <line x1="-57.452426" y1="-12.757759" x2="-47.729708" y2="-7.144345" />
      <line x1="-57.452426" y1="-11.573839" x2="-57.452426" y2="-12.757759" />
      <path d="M -61.341513,-12.757759 A 2.75,1.5877132402714713 -3.0277098484932115e-15 0,1 -57.452426,-12.757759" />
      <path d="M -47.729708,-7.144345 A 2.75,1.5877132402714713 4.975393865644687e-15 0,1 -46.924251,-6.021662" />
      <line x1="-47.729708" y1="-7.144345" x2="-47.729708" y2="-5.960425" />
      <path d="M -70.326764,17.841862 A 2.75,1.5877132402714735 -179.99999999999991 0,0 -70.728711,18.544765" />
      <line x1="-69.932861" y1="17.554676" x2="-69.932861" y2="17.473027" />
      <line x1="-47.022601" y1="-3.622256" x2="-47.022601" y2="-1.735055" />
      <line x1="-40.263126" y1="15.618592" x2="-53.874931" y2="7.759812" />
      <path d="M -46.924251,-5.138995 A 2.75,1.587713240271471 -119.99999999999999 0,1 -46.453057,-5.749618" />
      <path d="M -43.703057,-5.749618 A 2.75,1.587713240271471 119.99999999999999 0,1 -43.133514,-4.490731" />
      <path d="M -33.410795,1.122683 A 2.75,1.587713240271471 -60.00000000000001 0,0 -33.980339,-0.136204" />
      <line x1="-43.133514" y1="-4.490731" x2="-33.410795" y2="1.122683" />
      <path d="M -46.924251,-4.544777 A 2.75,1.5877132402714713 -3.0277098484932115e-15 0,1 -43.133514,-4.490731" />
      <line x1="-43.133514" y1="-4.490731" x2="-43.133514" y2="-3.306811" />
      <line x1="-33.410795" y1="2.306603" x2="-33.410795" y2="1.122683" />
      <path d="M -33.410795,1.122683 A 2.75,1.587713240271471 -1.4702737179017332e-15 0,1 -32.605339,2.245366" />
      <path d="M -26.569017,21.361892 A 0.6,0.3464101615137755 -60.00000000000001 0,0 -25.969017,21.015482" />
      <line x1="-25.969017" y1="21.015482" x2="-1.927386" y2="34.895924" />
      <path d="M -2.527386,35.242334 A 0.6,0.3464101615137755 -60.00000000000001 0,0 -1.927386,34.895924" />
      <path d="M -1.927386,34.895924 C -1.424155,35.188835 -0.714578,35.358522 -0.0,35.356851 C 0.714578,35.358522 1.424155,35.188835 1.927386,34.895924" />
      <path d="M 2.527386,35.242334 C 2.449055,35.288294 2.338613,35.277354 2.227386,35.212617 C 2.11616,35.148921 2.005714,35.032328 1.927386,34.895924" />
      <path d="M -26.693281,18.025364 A 0.6,0.3464101615137755 60.00000000000001 0,0 -25.969017,18.789928" />
      <path d="M -25.969017,18.789928 C -26.476354,19.080469 -26.77026,19.490143 -26.767366,19.902705 C -26.77026,20.315267 -26.476354,20.724941 -25.969017,21.015482" />
      <line x1="-25.969017" y1="21.015482" x2="-25.349778" y2="19.942929" />
      <line x1="-1.927386" y1="34.895924" x2="-1.308148" y2="33.823371" />
      <line x1="-25.173001" y1="1.469694" x2="-25.173001" y2="-0.0" />
      <line x1="1.927386" y1="34.895924" x2="25.969017" y2="21.015482" />
      <path d="M 26.569017,21.361892 A 0.6,0.3464101615137755 -119.99999999999999 0,1 25.969017,21.015482" />
      <line x1="1.927386" y1="34.895924" x2="1.308148" y2="33.823371" />
      <path d="M -2.65165,4.144922 C -2.653746,4.337403 -2.545523,4.586914 -2.389745,4.74874 C -2.235572,4.914111 -2.044516,4.980533 -1.927386,4.909486" />
      <line x1="-25.349778" y1="19.942929" x2="-25.349778" y2="18.473235" />
      <line x1="-1.308148" y1="33.823371" x2="-1.308148" y2="32.353677" />
      <line x1="-1.131371" y1="-12.410748" x2="-1.131371" y2="-13.880442" />
      <path d="M 25.969017,21.015482 C 26.476354,20.724941 26.77026,20.315267 26.767366,19.902705 C 26.77026,19.490143 26.476354,19.080469 25.969017,18.789928" />
      <path d="M 26.693281,18.025364 C 26.695377,18.217845 26.587153,18.467356 26.431376,18.629182 C 26.277203,18.794553 26.086146,18.860975 25.969017,18.789928" />
      <line x1="25.969017" y1="21.015482" x2="25.349778" y2="19.942929" />
      <line x1="1.308148" y1="33.823371" x2="1.308148" y2="32.353677" />
      <path d="M 2.65165,4.144922 A 0.6,0.3464101615137755 119.99999999999999 0,1 1.927386,4.909486" />
      <line x1="-25.349778" y1="18.473235" x2="-25.314423" y2="18.411998" />
      <line x1="-1.308148" y1="32.353677" x2="-0.813173" y2="31.496356" />
      <line x1="1.131371" y1="-12.410748" x2="1.131371" y2="-13.880442" />
      <line x1="25.173001" y1="1.469694" x2="25.173001" y2="-0.0" />
      <line x1="25.349778" y1="19.942929" x2="25.349778" y2="18.473235" />
      <line x1="1.308148" y1="32.353677" x2="0.813173" y2="31.496356" />
      <line x1="25.349778" y1="18.473235" x2="25.314423" y2="18.411998" />
      <line x1="0.813173" y1="31.496356" x2="0.813173" y2="30.51656" />
      <path d="M -10.9248,23.413039 A 0.45,0.25980762113533157 -120.00000000000001 0,1 -11.242998,22.861904" />
      <path d="M -11.242998,22.861904 A 2.75,1.5877132402714687 -7.401899338801778e-14 0,1 -15.132085,22.861904" />
      <path d="M -11.242998,17.513852 A 2.75,1.587713240271471 7.78718065295739e-16 0,1 -15.132085,17.513852" />
      <line x1="-11.242998" y1="22.861904" x2="-11.242998" y2="17.513852" />
      <path d="M -10.854089,23.453864 A 0.45,0.2598076211353316 60.00000000000001 0,0 -10.629089,23.476152" />
      <path d="M -11.341333,24.397977 A 2.75,1.5877132402714735 -179.99999999999991 0,0 -10.535891,25.515518" />
      <line x1="-11.242998" y1="22.861904" x2="4.564297" y2="13.735558" />
      <path d="M -11.242998,17.513852 A 4.25,2.45373864405591 119.99999999999999 0,1 -8.237794,12.308686" />
      <line x1="-8.237794" y1="12.308686" x2="-3.072456" y2="9.326477" />
      <path d="M -15.132085,17.513852 A 7.0,4.041451884327381 119.99999999999999 0,1 -12.6103,11.077269" />
      <path d="M -8.237794,12.308686 A 2.75,1.5877132402714706 59.99999999999999 0,0 -9.626944,9.354828" />
      <line x1="3.075914" y1="29.210165" x2="3.075914" y2="25.78088" />
      <path d="M 3.075914,25.78088 A 2.75,1.587713240271471 7.78718065295739e-16 0,1 -0.813173,25.78088" />
      <path d="M -0.813173,25.78088 A 7.0,4.041451884327381 119.99999999999999 0,1 4.136575,17.207665" />
      <line x1="2.182412" y1="16.079429" x2="4.136575" y2="17.207665" />
      <line x1="6.081118" y1="20.575714" x2="11.246456" y2="17.593505" />
      <path d="M 3.075914,25.78088 A 4.25,2.45373864405591 119.99999999999999 0,1 6.081118,20.575714" />
      <path d="M 6.081118,20.575714 A 2.75,1.5877132402714706 59.99999999999999 0,0 4.136575,17.207665" />
      <line x1="4.136575" y1="17.207665" x2="7.357369" y2="15.348139" />
      <line x1="-85.057229" y1="10.777755" x2="-85.057229" y2="5.062279" />
      <path d="M -85.057229,5.062279 C -85.057349,3.618073 -84.593813,2.08545 -83.80733,0.723156 C -83.020957,-0.637238 -81.926464,-1.803228 -80.677026,-2.524457" />
      <line x1="-80.677026" y1="-2.524457" x2="-60.77197" y2="-14.016646" />
      <line x1="-58.02197" y1="-14.016646" x2="-48.299251" y2="-8.403232" />
      <line x1="-46.924251" y1="-6.021662" x2="-46.924251" y2="-4.377342" />
      <path d="M -60.77197,-14.016646 A 2.75,2.75 -1.7114933139201134e-15 0,1 -58.02197,-14.016646" />
      <path d="M -48.299251,-8.403232 A 2.75,2.75 8.363085112776317e-15 0,1 -46.924251,-6.021662" />
      <line x1="-70.738317" y1="18.573707" x2="-70.738317" y2="17.79752" />
      <line x1="-46.924251" y1="-5.477574" x2="-46.453057" y2="-5.749618" />
      <line x1="-43.703057" y1="-5.749618" x2="-33.980339" y2="-0.136204" />
      <line x1="-32.605339" y1="3.889686" x2="-32.605339" y2="2.245366" />
      <path d="M -46.453057,-5.749618 A 2.75,2.75 -1.7114933139201134e-15 0,1 -43.703057,-5.749618" />
      <path d="M -33.980339,-0.136204 A 2.75,2.75 -1.7114933139201134e-15 0,1 -32.605339,2.245366" />
      <line x1="-27.791631" y1="19.556295" x2="-27.791631" y2="3.878359" />
      <line x1="-26.569017" y1="21.361892" x2="-2.527386" y2="35.242334" />
      <path d="M -2.527386,35.242334 C -1.847784,35.637145 -0.926797,35.857077 0.000717,35.855392 C 0.927746,35.856853 1.848116,35.636946 2.527386,35.242334" />
      <line x1="27.791631" y1="19.556295" x2="27.791631" y2="3.878359" />
      <path d="M -27.79163,19.556295 C -27.7925,20.005512 -27.605451,20.453661 -27.250825,20.831042 C -27.0638,21.030386 -26.836531,21.207336 -26.569017,21.361892" />
      <line x1="-25.641631" y1="0.653197" x2="-25.641631" y2="1.740257" />
      <line x1="2.527386" y1="35.242334" x2="26.569017" y2="21.361892" />
      <path d="M 26.569017,21.361892 C 26.836859,21.207146 27.064354,21.029955 27.2515,20.830318 C 27.605682,20.453106 27.792495,20.005246 27.79163,19.556295" />
      <path d="M 1.927386,4.909486 C 1.473881,4.641223 0.739988,4.452694 -0.000575,4.457204 C -0.740752,4.452877 -1.474114,4.641368 -1.927386,4.909486" />
      <line x1="25.641631" y1="0.653197" x2="25.641631" y2="1.740257" />
      <path d="M -10.629089,23.476152 C -10.806752,23.578256 -10.964408,23.714608 -11.082909,23.861508 C -11.202019,24.007149 -11.279716,24.164878 -11.313897,24.275774 C -11.337777,24.350212 -11.341786,24.400139 -11.341472,24.399873" />
      <path d="M -11.341472,24.399873 Q -11.34141,24.399901 -11.341347,24.392835" />
      <line x1="-10.629089" y1="23.476152" x2="5.406819" y2="14.217817" />
      <line x1="5.403206" y1="14.219902" x2="17.945773" y2="21.461357" />
      <line x1="-6.325147" y1="7.448535" x2="4.82416" y2="13.88559" />
    </g>
  </g>
</svg>