<?xml version="1.0" encoding="UTF-8" standalone="no"?>
<svg
   width="61.599mm"
   height="175.66mm"
   version="1.1"
   viewBox="0 0 61.599 175.66"
   id="svg1"
   sodipodi:docname="PA-09_outline.svg"
   inkscape:version="1.3.2 (091e20e, 2023-11-25)"
   xmlns:inkscape="http://www.inkscape.org/namespaces/inkscape"
   xmlns:sodipodi="http://sodipodi.sourceforge.net/DTD/sodipodi-0.dtd"
   xmlns="http://www.w3.org/2000/svg"
   xmlns:svg="http://www.w3.org/2000/svg">
  <defs
     id="defs1" />
  <sodipodi:namedview
     id="namedview1"
     pagecolor="#ffffff"
     bordercolor="#666666"
     borderopacity="1.0"
     inkscape:showpageshadow="2"
     inkscape:pageopacity="0.0"
     inkscape:pagecheckerboard="0"
     inkscape:deskcolor="#d1d1d1"
     inkscape:document-units="mm"
     inkscape:zoom="4.5362916"
     inkscape:cx="62.275538"
     inkscape:cy="637.96605"
     inkscape:window-width="984"
     inkscape:window-height="1369"
     inkscape:window-x="1572"
     inkscape:window-y="32"
     inkscape:window-maximized="0"
     inkscape:current-layer="svg1" />
  <g
     transform="translate(106.36 -41.804)"
     id="g1">
    <path
       d="m -79.183,41.854 c -3.1296,0 -7.0552,4.3002 -7.661,7.1127 l -6.119,30.831 0.09147,7.0373 c -5.3548,-0.96724 -13.514,2.4949 -6.1733,15.701 l -0.28577,14.2979 c -0.02714,0.91052 -0.56552,2.88501 -1.848,3.636 l -3.1709,-0.44959 -1.9554,7.0482 4.6865,3.1734 -1.557,71.181 c -0.1111,5.07931 5.9953,14.372 8.7147,15.749 1.2531,0.63458 2.6626,0.0771 3.2076,-2.2443 1.1133,-4.7425 5.652918,-10.92333 11.506,-15.744 l -2.8148,-15.79 -0.17312,-24.999 2.7053,-10.529 c -2.9155,-7.5174 -2.5544,-17.37 -2.5544,-28.849 6.799903,1.43024 7.221958,1.43435 14.0416,0 0,11.479 0.36163,21.331 -2.5538,28.849 l 2.7053,10.529 -0.17312,24.999 c -0.03541,5.11304 -2.245381,12.13133 -2.8148,15.79 5.599341,3.55346 10.392,11.002 11.506,15.744 0.54497,2.3214 1.9539,2.8789 3.207,2.2443 2.7194,-1.3771 8.8314,-10.67 8.7152,-15.749 l -1.557,-71.181 4.6865,-3.1734 -1.9554,-7.0482 -3.1714,0.44959 c -1.5081,-1.19197 -1.828391,-2.50807 -1.848,-3.636 l -0.18294,-5.9764 c -0.247758,-8.09391 0.96157,-13.429 -6.3252,-20.208 l 0.14108,-10.852 -6.119,-30.831 c -0.6058,-2.8126 -4.5314,-7.1127 -7.661,-7.1127 z"
       style="fill:none;stroke:#000000;stroke-width:0.1"
       id="path1"
       sodipodi:nodetypes="cccccccccccccccccccccscccccccccsccccc" />
  </g>
</svg>
